<svg xmlns="http://www.w3.org/2000/svg" xmlns:xlink="http://www.w3.org/1999/xlink" width="100" zoomAndPan="magnify" viewBox="0 0 75 74.999997" height="100" preserveAspectRatio="xMidYMid meet" version="1.0"><defs><clipPath id="0de7015450"><path d="M 37.5 0 C 16.789062 0 0 16.789062 0 37.5 C 0 58.210938 16.789062 75 37.5 75 C 58.210938 75 75 58.210938 75 37.5 C 75 16.789062 58.210938 0 37.5 0 Z M 37.5 0 " clip-rule="nonzero"/></clipPath><clipPath id="c2b3359e01"><path d="M 22.957031 13.441406 L 52.207031 13.441406 L 52.207031 74.941406 L 22.957031 74.941406 Z M 22.957031 13.441406 " clip-rule="nonzero"/></clipPath></defs><g clip-path="url(#0de7015450)"><rect x="-7.5" width="90" fill="#8fd5a6" y="-7.5" height="89.999996" fill-opacity="1"/></g><g clip-path="url(#c2b3359e01)"><path fill="#000000" d="M 45.332031 23.644531 L 52.042969 23.644531 L 52.042969 13.527344 L 43.472656 13.527344 L 43.472656 13.566406 C 32.210938 13.980469 29.886719 20.289062 29.691406 26.960938 L 29.667969 26.960938 L 29.667969 33.980469 L 22.957031 33.980469 L 22.957031 44.113281 L 29.667969 44.113281 L 29.667969 74.902344 L 41.707031 74.902344 L 41.707031 44.113281 L 50.339844 44.113281 L 52.042969 33.980469 L 41.707031 33.980469 L 41.707031 27.699219 C 41.707031 25.464844 43.203125 23.644531 45.332031 23.644531 Z M 45.332031 23.644531 " fill-opacity="1" fill-rule="nonzero"/></g></svg>