<svg xmlns="http://www.w3.org/2000/svg" xmlns:xlink="http://www.w3.org/1999/xlink" width="100" zoomAndPan="magnify" viewBox="0 0 75 74.999997" height="100" preserveAspectRatio="xMidYMid meet" version="1.0"><defs><clipPath id="2fd6e8f062"><path d="M 37.5 0 C 16.789062 0 0 16.789062 0 37.5 C 0 58.210938 16.789062 75 37.5 75 C 58.210938 75 75 58.210938 75 37.5 C 75 16.789062 58.210938 0 37.5 0 Z M 37.5 0 " clip-rule="nonzero"/></clipPath><clipPath id="d40dc10b91"><path d="M 22.957031 13.441406 L 52.207031 13.441406 L 52.207031 74.941406 L 22.957031 74.941406 Z M 22.957031 13.441406 " clip-rule="nonzero"/></clipPath></defs><g clip-path="url(#2fd6e8f062)"><rect x="-7.5" width="90" fill="#0d5d56" y="-7.5" height="89.999996" fill-opacity="1"/></g><g clip-path="url(#d40dc10b91)"><path fill="#ffffff" d="M 45.457031 23.636719 L 52.207031 23.636719 L 52.207031 13.527344 L 43.589844 13.527344 L 43.589844 13.566406 C 32.261719 13.980469 29.925781 20.285156 29.730469 26.953125 L 29.703125 26.953125 L 29.703125 33.964844 L 22.957031 33.964844 L 22.957031 44.089844 L 29.703125 44.089844 L 29.703125 74.855469 L 41.8125 74.855469 L 41.8125 44.089844 L 50.492188 44.089844 L 52.207031 33.964844 L 41.8125 33.964844 L 41.8125 27.6875 C 41.8125 25.457031 43.316406 23.636719 45.457031 23.636719 Z M 45.457031 23.636719 " fill-opacity="1" fill-rule="nonzero"/></g></svg>