<svg xmlns="http://www.w3.org/2000/svg" xmlns:xlink="http://www.w3.org/1999/xlink" width="100" zoomAndPan="magnify" viewBox="0 0 75 74.999997" height="100" preserveAspectRatio="xMidYMid meet" version="1.0"><defs><clipPath id="6241d0cdc0"><path d="M 12.027344 12.027344 L 63.027344 12.027344 L 63.027344 63.027344 L 12.027344 63.027344 Z M 12.027344 12.027344 " clip-rule="nonzero"/></clipPath><clipPath id="cb138b5ed7"><path d="M 49.359375 18.9375 L 56.109375 18.9375 L 56.109375 25.6875 L 49.359375 25.6875 Z M 49.359375 18.9375 " clip-rule="nonzero"/></clipPath></defs><path fill="#8fd5a6" d="M 75 37.5 C 75 38.726562 74.941406 39.953125 74.820312 41.175781 C 74.699219 42.398438 74.519531 43.609375 74.28125 44.816406 C 74.039062 46.019531 73.742188 47.210938 73.386719 48.386719 C 73.027344 49.5625 72.617188 50.714844 72.144531 51.851562 C 71.675781 52.984375 71.152344 54.09375 70.570312 55.175781 C 69.992188 56.261719 69.363281 57.3125 68.679688 58.332031 C 67.996094 59.355469 67.265625 60.339844 66.488281 61.289062 C 65.707031 62.238281 64.886719 63.148438 64.015625 64.015625 C 63.148438 64.886719 62.238281 65.707031 61.289062 66.488281 C 60.339844 67.265625 59.355469 67.996094 58.332031 68.679688 C 57.3125 69.363281 56.261719 69.992188 55.175781 70.570312 C 54.09375 71.152344 52.984375 71.675781 51.851562 72.144531 C 50.714844 72.617188 49.5625 73.027344 48.386719 73.386719 C 47.210938 73.742188 46.019531 74.039062 44.816406 74.28125 C 43.609375 74.519531 42.398438 74.699219 41.175781 74.820312 C 39.953125 74.941406 38.726562 75 37.5 75 C 36.273438 75 35.046875 74.941406 33.824219 74.820312 C 32.601562 74.699219 31.390625 74.519531 30.183594 74.28125 C 28.980469 74.039062 27.789062 73.742188 26.613281 73.386719 C 25.4375 73.027344 24.285156 72.617188 23.148438 72.144531 C 22.015625 71.675781 20.90625 71.152344 19.824219 70.570312 C 18.738281 69.992188 17.6875 69.363281 16.667969 68.679688 C 15.644531 67.996094 14.660156 67.265625 13.710938 66.488281 C 12.761719 65.707031 11.851562 64.886719 10.984375 64.015625 C 10.113281 63.148438 9.292969 62.238281 8.511719 61.289062 C 7.734375 60.339844 7.003906 59.355469 6.320312 58.332031 C 5.636719 57.3125 5.007812 56.261719 4.429688 55.175781 C 3.847656 54.09375 3.324219 52.984375 2.855469 51.851562 C 2.382812 50.714844 1.972656 49.5625 1.613281 48.386719 C 1.257812 47.210938 0.960938 46.019531 0.71875 44.816406 C 0.480469 43.609375 0.300781 42.398438 0.179688 41.175781 C 0.0585938 39.953125 0 38.726562 0 37.5 C 0 36.273438 0.0585938 35.046875 0.179688 33.824219 C 0.300781 32.601562 0.480469 31.390625 0.71875 30.183594 C 0.960938 28.980469 1.257812 27.789062 1.613281 26.613281 C 1.972656 25.4375 2.382812 24.285156 2.855469 23.148438 C 3.324219 22.015625 3.847656 20.90625 4.429688 19.824219 C 5.007812 18.738281 5.636719 17.6875 6.320312 16.667969 C 7.003906 15.644531 7.734375 14.660156 8.511719 13.710938 C 9.292969 12.761719 10.113281 11.851562 10.984375 10.984375 C 11.851562 10.113281 12.761719 9.292969 13.710938 8.511719 C 14.660156 7.734375 15.644531 7.003906 16.667969 6.320312 C 17.6875 5.636719 18.738281 5.007812 19.824219 4.429688 C 20.90625 3.847656 22.015625 3.324219 23.148438 2.855469 C 24.285156 2.382812 25.4375 1.972656 26.613281 1.613281 C 27.789062 1.257812 28.980469 0.960938 30.183594 0.71875 C 31.390625 0.480469 32.601562 0.300781 33.824219 0.179688 C 35.046875 0.0585938 36.273438 0 37.5 0 C 38.726562 0 39.953125 0.0585938 41.175781 0.179688 C 42.398438 0.300781 43.609375 0.480469 44.816406 0.71875 C 46.019531 0.960938 47.210938 1.257812 48.386719 1.613281 C 49.5625 1.972656 50.714844 2.382812 51.851562 2.855469 C 52.984375 3.324219 54.09375 3.847656 55.175781 4.429688 C 56.261719 5.007812 57.3125 5.636719 58.332031 6.320312 C 59.355469 7.003906 60.339844 7.734375 61.289062 8.511719 C 62.238281 9.292969 63.148438 10.113281 64.015625 10.984375 C 64.886719 11.851562 65.707031 12.761719 66.488281 13.710938 C 67.265625 14.660156 67.996094 15.644531 68.679688 16.667969 C 69.363281 17.6875 69.992188 18.738281 70.570312 19.824219 C 71.152344 20.90625 71.675781 22.015625 72.144531 23.148438 C 72.617188 24.285156 73.027344 25.4375 73.386719 26.613281 C 73.742188 27.789062 74.039062 28.980469 74.28125 30.183594 C 74.519531 31.390625 74.699219 32.601562 74.820312 33.824219 C 74.941406 35.046875 75 36.273438 75 37.5 Z M 75 37.5 " fill-opacity="1" fill-rule="nonzero"/><g clip-path="url(#6241d0cdc0)"><path fill="#000000" d="M 55.445312 63.027344 L 19.609375 63.027344 C 15.429688 63.027344 12.027344 59.625 12.027344 55.445312 L 12.027344 19.609375 C 12.027344 15.429688 15.429688 12.027344 19.609375 12.027344 L 55.445312 12.027344 C 59.625 12.027344 63.027344 15.429688 63.027344 19.609375 L 63.027344 55.445312 C 63.027344 59.625 59.625 63.027344 55.445312 63.027344 Z M 19.609375 14.785156 C 16.949219 14.785156 14.785156 16.949219 14.785156 19.609375 L 14.785156 55.445312 C 14.785156 58.105469 16.949219 60.269531 19.609375 60.269531 L 55.445312 60.269531 C 58.105469 60.269531 60.269531 58.105469 60.269531 55.445312 L 60.269531 19.609375 C 60.269531 16.949219 58.105469 14.785156 55.445312 14.785156 Z M 19.609375 14.785156 " fill-opacity="1" fill-rule="nonzero"/></g><path fill="#000000" d="M 37.527344 52 C 29.546875 52 23.054688 45.507812 23.054688 37.527344 C 23.054688 29.546875 29.546875 23.054688 37.527344 23.054688 C 45.507812 23.054688 52 29.546875 52 37.527344 C 52 45.507812 45.507812 52 37.527344 52 Z M 37.527344 25.8125 C 31.066406 25.8125 25.8125 31.066406 25.8125 37.527344 C 25.8125 43.988281 31.066406 49.242188 37.527344 49.242188 C 43.988281 49.242188 49.242188 43.988281 49.242188 37.527344 C 49.242188 31.066406 43.988281 25.8125 37.527344 25.8125 Z M 37.527344 25.8125 " fill-opacity="1" fill-rule="nonzero"/><path fill="#000000" d="M 52.691406 27.191406 C 50.03125 27.191406 47.867188 25.027344 47.867188 22.367188 C 47.867188 19.707031 50.03125 17.542969 52.691406 17.542969 C 55.351562 17.542969 57.515625 19.707031 57.515625 22.367188 C 57.515625 25.027344 55.351562 27.191406 52.691406 27.191406 Z M 52.691406 20.296875 C 51.550781 20.296875 50.621094 21.226562 50.621094 22.367188 C 50.621094 23.503906 51.550781 24.433594 52.691406 24.433594 C 53.828125 24.433594 54.757812 23.503906 54.757812 22.367188 C 54.757812 21.226562 53.828125 20.296875 52.691406 20.296875 Z M 52.691406 20.296875 " fill-opacity="1" fill-rule="nonzero"/><g clip-path="url(#cb138b5ed7)"><path fill="#000000" d="M 56.027344 22.269531 C 56.027344 22.710938 55.941406 23.136719 55.773438 23.546875 C 55.601562 23.953125 55.363281 24.316406 55.050781 24.628906 C 54.734375 24.941406 54.375 25.179688 53.96875 25.351562 C 53.558594 25.519531 53.132812 25.605469 52.691406 25.605469 C 52.25 25.605469 51.824219 25.519531 51.414062 25.351562 C 51.007812 25.179688 50.648438 24.941406 50.332031 24.628906 C 50.019531 24.316406 49.78125 23.953125 49.609375 23.546875 C 49.441406 23.136719 49.359375 22.710938 49.359375 22.269531 C 49.359375 21.828125 49.441406 21.402344 49.609375 20.996094 C 49.78125 20.585938 50.019531 20.226562 50.332031 19.914062 C 50.648438 19.601562 51.007812 19.359375 51.414062 19.191406 C 51.824219 19.019531 52.25 18.9375 52.691406 18.9375 C 53.132812 18.9375 53.558594 19.019531 53.96875 19.191406 C 54.375 19.359375 54.734375 19.601562 55.050781 19.914062 C 55.363281 20.226562 55.601562 20.585938 55.773438 20.996094 C 55.941406 21.402344 56.027344 21.828125 56.027344 22.269531 Z M 56.027344 22.269531 " fill-opacity="1" fill-rule="nonzero"/></g></svg>