<svg xmlns="http://www.w3.org/2000/svg" xmlns:xlink="http://www.w3.org/1999/xlink" width="100" zoomAndPan="magnify" viewBox="0 0 75 74.999997" height="100" preserveAspectRatio="xMidYMid meet" version="1.0"><defs><clipPath id="cda83e66f7"><path d="M 12.027344 12.027344 L 63 12.027344 L 63 63 L 12.027344 63 Z M 12.027344 12.027344 " clip-rule="nonzero"/></clipPath><clipPath id="443150d48a"><path d="M 49.519531 19.261719 L 56.269531 19.261719 L 56.269531 26.011719 L 49.519531 26.011719 Z M 49.519531 19.261719 " clip-rule="nonzero"/></clipPath></defs><path fill="#0d5d56" d="M 75 37.5 C 75 38.726562 74.941406 39.953125 74.820312 41.175781 C 74.699219 42.398438 74.519531 43.609375 74.28125 44.816406 C 74.039062 46.019531 73.742188 47.210938 73.386719 48.386719 C 73.027344 49.5625 72.617188 50.714844 72.144531 51.851562 C 71.675781 52.984375 71.152344 54.09375 70.570312 55.175781 C 69.992188 56.261719 69.363281 57.3125 68.679688 58.332031 C 67.996094 59.355469 67.265625 60.339844 66.488281 61.289062 C 65.707031 62.238281 64.886719 63.148438 64.015625 64.015625 C 63.148438 64.886719 62.238281 65.707031 61.289062 66.488281 C 60.339844 67.265625 59.355469 67.996094 58.332031 68.679688 C 57.3125 69.363281 56.261719 69.992188 55.175781 70.570312 C 54.09375 71.152344 52.984375 71.675781 51.851562 72.144531 C 50.714844 72.617188 49.5625 73.027344 48.386719 73.386719 C 47.210938 73.742188 46.019531 74.039062 44.816406 74.28125 C 43.609375 74.519531 42.398438 74.699219 41.175781 74.820312 C 39.953125 74.941406 38.726562 75 37.5 75 C 36.273438 75 35.046875 74.941406 33.824219 74.820312 C 32.601562 74.699219 31.390625 74.519531 30.183594 74.28125 C 28.980469 74.039062 27.789062 73.742188 26.613281 73.386719 C 25.4375 73.027344 24.285156 72.617188 23.148438 72.144531 C 22.015625 71.675781 20.90625 71.152344 19.824219 70.570312 C 18.738281 69.992188 17.6875 69.363281 16.667969 68.679688 C 15.644531 67.996094 14.660156 67.265625 13.710938 66.488281 C 12.761719 65.707031 11.851562 64.886719 10.984375 64.015625 C 10.113281 63.148438 9.292969 62.238281 8.511719 61.289062 C 7.734375 60.339844 7.003906 59.355469 6.320312 58.332031 C 5.636719 57.3125 5.007812 56.261719 4.429688 55.175781 C 3.847656 54.09375 3.324219 52.984375 2.855469 51.851562 C 2.382812 50.714844 1.972656 49.5625 1.613281 48.386719 C 1.257812 47.210938 0.960938 46.019531 0.71875 44.816406 C 0.480469 43.609375 0.300781 42.398438 0.179688 41.175781 C 0.0585938 39.953125 0 38.726562 0 37.5 C 0 36.273438 0.0585938 35.046875 0.179688 33.824219 C 0.300781 32.601562 0.480469 31.390625 0.71875 30.183594 C 0.960938 28.980469 1.257812 27.789062 1.613281 26.613281 C 1.972656 25.4375 2.382812 24.285156 2.855469 23.148438 C 3.324219 22.015625 3.847656 20.90625 4.429688 19.824219 C 5.007812 18.738281 5.636719 17.6875 6.320312 16.667969 C 7.003906 15.644531 7.734375 14.660156 8.511719 13.710938 C 9.292969 12.761719 10.113281 11.851562 10.984375 10.984375 C 11.851562 10.113281 12.761719 9.292969 13.710938 8.511719 C 14.660156 7.734375 15.644531 7.003906 16.667969 6.320312 C 17.6875 5.636719 18.738281 5.007812 19.824219 4.429688 C 20.90625 3.847656 22.015625 3.324219 23.148438 2.855469 C 24.285156 2.382812 25.4375 1.972656 26.613281 1.613281 C 27.789062 1.257812 28.980469 0.960938 30.183594 0.71875 C 31.390625 0.480469 32.601562 0.300781 33.824219 0.179688 C 35.046875 0.0585938 36.273438 0 37.5 0 C 38.726562 0 39.953125 0.0585938 41.175781 0.179688 C 42.398438 0.300781 43.609375 0.480469 44.816406 0.71875 C 46.019531 0.960938 47.210938 1.257812 48.386719 1.613281 C 49.5625 1.972656 50.714844 2.382812 51.851562 2.855469 C 52.984375 3.324219 54.09375 3.847656 55.175781 4.429688 C 56.261719 5.007812 57.3125 5.636719 58.332031 6.320312 C 59.355469 7.003906 60.339844 7.734375 61.289062 8.511719 C 62.238281 9.292969 63.148438 10.113281 64.015625 10.984375 C 64.886719 11.851562 65.707031 12.761719 66.488281 13.710938 C 67.265625 14.660156 67.996094 15.644531 68.679688 16.667969 C 69.363281 17.6875 69.992188 18.738281 70.570312 19.824219 C 71.152344 20.90625 71.675781 22.015625 72.144531 23.148438 C 72.617188 24.285156 73.027344 25.4375 73.386719 26.613281 C 73.742188 27.789062 74.039062 28.980469 74.28125 30.183594 C 74.519531 31.390625 74.699219 32.601562 74.820312 33.824219 C 74.941406 35.046875 75 36.273438 75 37.5 Z M 75 37.5 " fill-opacity="1" fill-rule="nonzero"/><g clip-path="url(#cda83e66f7)"><path fill="#ffffff" d="M 55.398438 62.96875 L 19.601562 62.96875 C 15.425781 62.96875 12.027344 59.570312 12.027344 55.398438 L 12.027344 19.601562 C 12.027344 15.425781 15.425781 12.027344 19.601562 12.027344 L 55.398438 12.027344 C 59.570312 12.027344 62.96875 15.425781 62.96875 19.601562 L 62.96875 55.398438 C 62.96875 59.570312 59.570312 62.96875 55.398438 62.96875 Z M 19.601562 14.78125 C 16.941406 14.78125 14.78125 16.941406 14.78125 19.601562 L 14.78125 55.398438 C 14.78125 58.054688 16.941406 60.214844 19.601562 60.214844 L 55.398438 60.214844 C 58.054688 60.214844 60.214844 58.054688 60.214844 55.398438 L 60.214844 19.601562 C 60.214844 16.941406 58.054688 14.78125 55.398438 14.78125 Z M 19.601562 14.78125 " fill-opacity="1" fill-rule="nonzero"/></g><path fill="#ffffff" d="M 37.5 51.953125 C 29.527344 51.953125 23.042969 45.46875 23.042969 37.5 C 23.042969 29.527344 29.527344 23.042969 37.5 23.042969 C 45.46875 23.042969 51.953125 29.527344 51.953125 37.5 C 51.953125 45.46875 45.46875 51.953125 37.5 51.953125 Z M 37.5 25.796875 C 31.046875 25.796875 25.796875 31.046875 25.796875 37.5 C 25.796875 43.949219 31.046875 49.199219 37.5 49.199219 C 43.949219 49.199219 49.199219 43.949219 49.199219 37.5 C 49.199219 31.046875 43.949219 25.796875 37.5 25.796875 Z M 37.5 25.796875 " fill-opacity="1" fill-rule="nonzero"/><path fill="#ffffff" d="M 52.644531 27.171875 C 49.984375 27.171875 47.824219 25.011719 47.824219 22.351562 C 47.824219 19.695312 49.984375 17.535156 52.644531 17.535156 C 55.300781 17.535156 57.460938 19.695312 57.460938 22.351562 C 57.460938 25.011719 55.300781 27.171875 52.644531 27.171875 Z M 52.644531 20.289062 C 51.503906 20.289062 50.578125 21.214844 50.578125 22.351562 C 50.578125 23.492188 51.503906 24.417969 52.644531 24.417969 C 53.78125 24.417969 54.707031 23.492188 54.707031 22.351562 C 54.707031 21.214844 53.78125 20.289062 52.644531 20.289062 Z M 52.644531 20.289062 " fill-opacity="1" fill-rule="nonzero"/><g clip-path="url(#443150d48a)"><path fill="#ffffff" d="M 56.269531 22.636719 C 56.269531 23.082031 56.183594 23.511719 56.011719 23.925781 C 55.839844 24.339844 55.597656 24.707031 55.28125 25.023438 C 54.964844 25.339844 54.597656 25.582031 54.1875 25.753906 C 53.773438 25.925781 53.34375 26.011719 52.894531 26.011719 C 52.445312 26.011719 52.015625 25.925781 51.601562 25.753906 C 51.1875 25.582031 50.824219 25.339844 50.507812 25.023438 C 50.191406 24.707031 49.949219 24.339844 49.777344 23.925781 C 49.605469 23.511719 49.519531 23.082031 49.519531 22.636719 C 49.519531 22.1875 49.605469 21.757812 49.777344 21.34375 C 49.949219 20.929688 50.191406 20.566406 50.507812 20.25 C 50.824219 19.933594 51.1875 19.6875 51.601562 19.515625 C 52.015625 19.347656 52.445312 19.261719 52.894531 19.261719 C 53.34375 19.261719 53.773438 19.347656 54.1875 19.515625 C 54.597656 19.6875 54.964844 19.933594 55.28125 20.25 C 55.597656 20.566406 55.839844 20.929688 56.011719 21.34375 C 56.183594 21.757812 56.269531 22.1875 56.269531 22.636719 Z M 56.269531 22.636719 " fill-opacity="1" fill-rule="nonzero"/></g></svg>