<svg xmlns="http://www.w3.org/2000/svg" xmlns:xlink="http://www.w3.org/1999/xlink" width="100" zoomAndPan="magnify" viewBox="0 0 75 74.999997" height="100" preserveAspectRatio="xMidYMid meet" version="1.0"><defs><filter x="0%" y="0%" width="100%" height="100%" id="894dc399ee"><feColorMatrix values="0 0 0 0 1 0 0 0 0 1 0 0 0 0 1 0 0 0 1 0" color-interpolation-filters="sRGB"/></filter><clipPath id="ed81674120"><path d="M 0.78125 5.328125 L 74.28125 5.328125 L 74.28125 69.828125 L 0.78125 69.828125 Z M 0.78125 5.328125 " clip-rule="nonzero"/></clipPath><clipPath id="3e0da49ad3"><path d="M 0 5 L 75 5 L 75 74.765625 L 0 74.765625 Z M 0 5 " clip-rule="nonzero"/></clipPath><clipPath id="dd2eda9cca"><path d="M 11 0.515625 L 30 0.515625 L 30 12 L 11 12 Z M 11 0.515625 " clip-rule="nonzero"/></clipPath><clipPath id="6ab1d69741"><path d="M 29 0.515625 L 33 0.515625 L 33 4 L 29 4 Z M 29 0.515625 " clip-rule="nonzero"/></clipPath><clipPath id="3861c5f6cc"><path d="M 32 0.515625 L 36 0.515625 L 36 4 L 32 4 Z M 32 0.515625 " clip-rule="nonzero"/></clipPath><clipPath id="dec07cda60"><path d="M 35 0.515625 L 40 0.515625 L 40 4 L 35 4 Z M 35 0.515625 " clip-rule="nonzero"/></clipPath><clipPath id="84b3bf8cc8"><path d="M 23.085938 11.757812 L 51.585938 11.757812 L 51.585938 63.507812 L 23.085938 63.507812 Z M 23.085938 11.757812 " clip-rule="nonzero"/></clipPath><mask id="64d6b4842f"><g filter="url(#894dc399ee)"><rect x="-7.5" width="90" fill="#000000" y="-7.5" height="89.999996" fill-opacity="0.7"/></g></mask><clipPath id="e84dacfa43"><path d="M 0.238281 1 L 26.878906 1 L 26.878906 50 L 0.238281 50 Z M 0.238281 1 " clip-rule="nonzero"/></clipPath><clipPath id="9d09ccd134"><rect x="0" width="27" y="0" height="51"/></clipPath></defs><path fill="#0d5d56" d="M 55.074219 7.167969 L 20.148438 7.167969 L 2.457031 37.496094 L 20.148438 68.058594 L 55.074219 68.058594 L 72.535156 37.496094 Z M 55.074219 7.167969 " fill-opacity="1" fill-rule="nonzero"/><g clip-path="url(#ed81674120)"><path fill="#0d5d56" d="M 0.847656 37.496094 C 0.847656 37.265625 0.847656 36.808594 1.078125 36.578125 L 18.539062 6.25 C 19 5.558594 19.457031 5.328125 20.148438 5.328125 L 55.074219 5.328125 C 55.761719 5.328125 56.222656 5.558594 56.453125 6.25 L 73.914062 36.808594 C 74.144531 37.265625 74.144531 37.957031 73.914062 38.417969 L 56.453125 68.976562 C 56.222656 69.433594 55.761719 69.664062 55.074219 69.664062 L 19.917969 69.664062 C 19.226562 69.664062 18.769531 69.433594 18.539062 68.746094 L 1.078125 38.1875 C 0.847656 38.1875 0.847656 37.726562 0.847656 37.496094 Z M 21.066406 8.777344 L 4.523438 37.496094 L 21.066406 66.21875 L 54.152344 66.21875 L 70.695312 37.496094 L 54.152344 8.777344 Z M 21.066406 8.777344 " fill-opacity="1" fill-rule="nonzero"/></g><g clip-path="url(#3e0da49ad3)"><path fill="#8fd5a6" d="M 75 37.636719 L 56.25 5.160156 L 18.75 5.160156 L 0 37.636719 L 18.75 70.113281 L 34.867188 70.113281 L 37.390625 74.484375 L 58.773438 74.484375 L 69.460938 55.972656 L 66.9375 51.601562 Z M 3.085938 37.636719 L 9.394531 26.707031 L 10.917969 29.347656 L 21.816406 10.476562 L 43.695312 10.476562 L 43.695312 10.453125 L 42.183594 7.832031 L 54.707031 7.832031 L 71.914062 37.636719 L 54.707031 67.441406 L 20.292969 67.441406 Z M 3.085938 37.636719 " fill-opacity="1" fill-rule="nonzero"/></g><path fill="#8fd5a6" d="M 7.925781 19.964844 L 6.390625 17.304688 L 5.167969 19.417969 L 6.703125 22.074219 Z M 7.925781 19.964844 " fill-opacity="1" fill-rule="nonzero"/><path fill="#8fd5a6" d="M 9.378906 17.441406 L 7.84375 14.785156 L 6.851562 16.503906 L 8.386719 19.164062 Z M 9.378906 17.441406 " fill-opacity="1" fill-rule="nonzero"/><path fill="#8fd5a6" d="M 10.835938 14.921875 L 9.300781 12.261719 L 8.308594 13.980469 L 9.84375 16.640625 Z M 10.835938 14.921875 " fill-opacity="1" fill-rule="nonzero"/><path fill="#8fd5a6" d="M 12.289062 12.402344 L 10.753906 9.742188 L 9.761719 11.460938 L 11.296875 14.121094 Z M 12.289062 12.402344 " fill-opacity="1" fill-rule="nonzero"/><g clip-path="url(#dd2eda9cca)"><path fill="#8fd5a6" d="M 17.617188 3.175781 L 29.890625 3.175781 L 28.355469 0.515625 L 16.082031 0.515625 L 11.21875 8.941406 L 12.753906 11.597656 Z M 17.617188 3.175781 " fill-opacity="1" fill-rule="nonzero"/></g><g clip-path="url(#6ab1d69741)"><path fill="#8fd5a6" d="M 32.867188 3.175781 L 31.332031 0.515625 L 29.28125 0.515625 L 30.816406 3.175781 Z M 32.867188 3.175781 " fill-opacity="1" fill-rule="nonzero"/></g><g clip-path="url(#3861c5f6cc)"><path fill="#8fd5a6" d="M 35.847656 3.175781 L 34.3125 0.515625 L 32.257812 0.515625 L 33.792969 3.175781 Z M 35.847656 3.175781 " fill-opacity="1" fill-rule="nonzero"/></g><g clip-path="url(#dec07cda60)"><path fill="#8fd5a6" d="M 39.480469 3.175781 L 37.945312 0.515625 L 35.238281 0.515625 L 36.773438 3.175781 Z M 39.480469 3.175781 " fill-opacity="1" fill-rule="nonzero"/></g><g clip-path="url(#84b3bf8cc8)"><path fill="#0d5d56" d="M 26.273438 63.238281 L 23.101562 61.105469 L 23.519531 47.535156 L 28.941406 47.535156 L 29.417969 32.265625 L 26.949219 32.785156 L 23.648438 30.578125 L 24.007812 18.96875 L 36.425781 11.757812 L 44.152344 11.757812 L 47.328125 13.894531 L 46.289062 47.535156 L 48.695312 47.535156 L 51.898438 49.683594 L 50.816406 63.238281 Z M 26.273438 63.238281 " fill-opacity="1" fill-rule="nonzero"/></g><g mask="url(#64d6b4842f)"><g transform="matrix(1, 0, 0, 1, 24, 12)"><g clip-path="url(#9d09ccd134)"><g clip-path="url(#e84dacfa43)"><path fill="#ffffff" d="M 26.542969 38.332031 L 24.292969 36.832031 L 20.949219 36.832031 L 22 2.570312 L 19.765625 1.058594 L 12.769531 1.058594 L 1.292969 7.71875 L 0.976562 17.898438 L 3.210938 19.398438 L 6.757812 18.648438 L 6.195312 36.832031 L 0.773438 36.832031 L 0.425781 48.441406 L 2.664062 49.941406 L 25.621094 49.941406 Z M 26.542969 38.332031 " fill-opacity="1" fill-rule="nonzero"/></g></g></g></g><path fill="#0d5d56" d="M 26.835938 61.363281 L 25.003906 60.140625 L 25.335938 49.410156 L 30.757812 49.410156 L 31.363281 29.929688 L 27.324219 30.792969 L 25.550781 29.597656 L 25.855469 20.066406 L 36.929688 13.632812 L 43.59375 13.632812 L 45.421875 14.859375 L 44.355469 49.410156 L 48.121094 49.410156 L 49.9375 50.621094 L 49.085938 61.363281 Z M 26.835938 61.363281 " fill-opacity="1" fill-rule="nonzero"/><path fill="#8fd5a6" d="M 43.765625 13.058594 L 42.65625 48.832031 L 48.292969 48.832031 L 47.382812 60.441406 L 24.425781 60.441406 L 24.773438 48.832031 L 30.195312 48.832031 L 30.816406 28.644531 L 24.976562 29.898438 L 25.292969 19.71875 L 36.769531 13.058594 Z M 43.765625 13.058594 " fill-opacity="1" fill-rule="nonzero"/><path fill="#000000" d="M 47.601562 50.074219 L 47.6875 50.074219 C 47.671875 50.015625 47.671875 49.945312 47.660156 49.886719 L 47.585938 49.914062 C 47.527344 49.988281 47.558594 50.03125 47.601562 50.074219 Z M 47.601562 50.074219 " fill-opacity="1" fill-rule="nonzero"/><path fill="#000000" d="M 47.816406 49.441406 C 47.859375 49.46875 47.902344 49.453125 47.902344 49.382812 C 47.902344 49.308594 47.960938 49.265625 47.875 49.222656 L 47.6875 49.308594 C 47.71875 49.363281 47.761719 49.40625 47.816406 49.441406 Z M 47.816406 49.441406 " fill-opacity="1" fill-rule="nonzero"/><path fill="#000000" d="M 47.558594 49.785156 C 47.570312 49.714844 47.515625 49.714844 47.472656 49.699219 L 47.414062 49.726562 L 47.515625 49.84375 Z M 47.558594 49.785156 " fill-opacity="1" fill-rule="nonzero"/><path fill="#000000" d="M 47.355469 49.152344 C 47.382812 49.136719 47.414062 48.921875 47.382812 48.921875 C 47.320312 48.914062 47.257812 48.925781 47.195312 48.949219 C 47.140625 48.976562 47.125 49.035156 47.183594 49.09375 C 47.238281 49.152344 47.3125 49.195312 47.355469 49.152344 Z M 47.355469 49.152344 " fill-opacity="1" fill-rule="nonzero"/><path fill="#000000" d="M 47.285156 52.855469 C 47.285156 52.871094 47.285156 52.886719 47.296875 52.886719 L 47.355469 52.886719 C 47.347656 52.875 47.339844 52.859375 47.339844 52.84375 Z M 47.285156 52.855469 " fill-opacity="1" fill-rule="nonzero"/><path fill="#000000" d="M 47.398438 55.957031 L 47.441406 55.984375 L 47.472656 55.984375 L 47.425781 55.941406 C 47.414062 55.941406 47.398438 55.941406 47.398438 55.957031 Z M 47.398438 55.957031 " fill-opacity="1" fill-rule="nonzero"/><path fill="#000000" d="M 47.484375 50.695312 C 47.457031 50.765625 47.3125 50.78125 47.398438 50.894531 C 47.484375 51.011719 47.484375 50.96875 47.5 50.9375 C 47.515625 50.910156 47.671875 50.839844 47.601562 50.722656 C 47.527344 50.609375 47.5 50.664062 47.484375 50.695312 Z M 47.484375 50.695312 " fill-opacity="1" fill-rule="nonzero"/><path fill="#000000" d="M 47.800781 51.300781 C 47.789062 51.316406 47.785156 51.335938 47.789062 51.355469 L 47.816406 51.355469 C 47.832031 51.34375 47.832031 51.3125 47.847656 51.300781 Z M 47.800781 51.300781 " fill-opacity="1" fill-rule="nonzero"/><path fill="#000000" d="M 46.664062 49.929688 C 46.667969 49.964844 46.675781 50 46.691406 50.03125 C 46.707031 50.015625 46.734375 50 46.734375 49.972656 C 46.738281 49.933594 46.730469 49.894531 46.722656 49.859375 Z M 46.664062 49.929688 " fill-opacity="1" fill-rule="nonzero"/><path fill="#000000" d="M 40.492188 30.304688 C 40.535156 30.304688 40.550781 30.273438 40.550781 30.230469 C 40.550781 30.1875 40.519531 30.128906 40.449219 30.144531 C 40.375 30.160156 40.375 30.1875 40.390625 30.230469 C 40.40625 30.273438 40.40625 30.332031 40.492188 30.304688 Z M 40.492188 30.304688 " fill-opacity="1" fill-rule="nonzero"/><path fill="#000000" d="M 41.917969 31.976562 C 41.917969 31.949219 41.933594 31.890625 41.890625 31.875 C 41.847656 31.859375 41.832031 31.890625 41.832031 31.90625 C 41.832031 31.917969 41.816406 31.992188 41.863281 32.019531 Z M 41.917969 31.976562 " fill-opacity="1" fill-rule="nonzero"/><path fill="#000000" d="M 42.050781 50.636719 C 42.121094 50.621094 42.234375 50.707031 42.265625 50.578125 C 42.292969 50.449219 42.25 50.464844 42.222656 50.476562 C 42.191406 50.492188 42.050781 50.40625 42.003906 50.535156 C 41.960938 50.664062 42.019531 50.636719 42.050781 50.636719 Z M 42.050781 50.636719 " fill-opacity="1" fill-rule="nonzero"/><path fill="#000000" d="M 42.367188 49.441406 C 42.394531 49.441406 42.410156 49.410156 42.421875 49.394531 C 42.4375 49.382812 42.367188 49.28125 42.28125 49.28125 L 42.25 49.367188 C 42.25 49.425781 42.308594 49.441406 42.367188 49.441406 Z M 42.367188 49.441406 " fill-opacity="1" fill-rule="nonzero"/><path fill="#000000" d="M 41.960938 18.59375 C 41.957031 18.621094 41.96875 18.640625 41.992188 18.652344 C 42.050781 18.695312 42.121094 18.738281 42.191406 18.695312 L 42.265625 18.667969 C 42.25 18.636719 42.25 18.625 42.234375 18.609375 C 42.148438 18.535156 42.058594 18.53125 41.960938 18.59375 Z M 41.960938 18.59375 " fill-opacity="1" fill-rule="nonzero"/><path fill="#000000" d="M 42.105469 37.515625 C 42.105469 37.601562 42.164062 37.601562 42.222656 37.601562 C 42.28125 37.601562 42.367188 37.628906 42.367188 37.515625 C 42.367188 37.398438 42.324219 37.425781 42.265625 37.425781 C 42.207031 37.425781 42.121094 37.398438 42.105469 37.515625 Z M 42.105469 37.515625 " fill-opacity="1" fill-rule="nonzero"/><path fill="#000000" d="M 41.773438 33.128906 C 41.726562 33.175781 41.691406 33.230469 41.660156 33.289062 C 41.644531 33.304688 41.832031 33.390625 41.863281 33.375 C 41.890625 33.359375 41.90625 33.261719 41.890625 33.203125 C 41.898438 33.167969 41.886719 33.144531 41.859375 33.125 C 41.828125 33.105469 41.800781 33.109375 41.773438 33.128906 Z M 41.773438 33.128906 " fill-opacity="1" fill-rule="nonzero"/><path fill="#000000" d="M 42.078125 34.992188 C 42.078125 35.019531 42.09375 35.035156 42.09375 35.046875 L 42.136719 35.046875 L 42.136719 34.992188 Z M 42.078125 34.992188 " fill-opacity="1" fill-rule="nonzero"/><path fill="#000000" d="M 42.191406 28.542969 C 42.121094 28.472656 42.035156 28.515625 41.949219 28.515625 L 41.992188 28.617188 C 42.0625 28.660156 42.105469 28.730469 42.179688 28.660156 C 42.25 28.585938 42.222656 28.574219 42.191406 28.542969 Z M 42.191406 28.542969 " fill-opacity="1" fill-rule="nonzero"/><path fill="#000000" d="M 41.832031 14.859375 C 41.949219 14.832031 41.960938 14.976562 42.0625 14.976562 L 42.191406 14.976562 L 42.191406 14.746094 C 42.207031 14.65625 42.136719 14.699219 42.09375 14.6875 L 41.863281 14.6875 C 41.789062 14.6875 41.746094 14.699219 41.746094 14.757812 C 41.734375 14.828125 41.761719 14.859375 41.832031 14.859375 Z M 41.832031 14.859375 " fill-opacity="1" fill-rule="nonzero"/><path fill="#000000" d="M 41.816406 35.234375 C 41.6875 35.351562 41.644531 35.507812 41.730469 35.566406 C 41.824219 35.625 41.90625 35.609375 41.976562 35.523438 C 42.019531 35.484375 42.039062 35.433594 42.039062 35.375 C 42.035156 35.316406 42.007812 35.269531 41.960938 35.234375 C 41.90625 35.164062 41.863281 35.179688 41.816406 35.234375 Z M 41.816406 35.234375 " fill-opacity="1" fill-rule="nonzero"/><path fill="#000000" d="M 46.664062 49.527344 C 46.664062 49.554688 46.691406 49.570312 46.707031 49.527344 L 46.722656 49.527344 C 46.765625 49.496094 46.863281 49.453125 46.863281 49.425781 C 46.863281 49.394531 46.808594 49.339844 46.765625 49.308594 C 46.722656 49.28125 46.648438 49.296875 46.648438 49.351562 C 46.648438 49.410156 46.664062 49.425781 46.664062 49.46875 Z M 46.664062 49.527344 " fill-opacity="1" fill-rule="nonzero"/><path fill="#000000" d="M 40.59375 31.746094 C 40.648438 31.789062 40.691406 31.703125 40.738281 31.660156 L 40.808594 31.585938 C 40.84375 31.5625 40.863281 31.527344 40.867188 31.484375 C 40.878906 31.457031 40.851562 31.429688 40.835938 31.398438 C 40.820312 31.351562 40.8125 31.304688 40.808594 31.253906 C 40.785156 31.195312 40.742188 31.148438 40.679688 31.125 L 40.691406 31.125 C 40.75 31.109375 40.835938 31.125 40.808594 31.011719 C 40.78125 30.894531 40.824219 30.867188 40.722656 30.867188 C 40.621094 30.867188 40.5625 30.980469 40.5625 31.066406 C 40.5625 31.09375 40.574219 31.109375 40.59375 31.125 L 40.5625 31.125 C 40.449219 31.140625 40.433594 31.183594 40.433594 31.296875 C 40.433594 31.414062 40.375 31.414062 40.390625 31.484375 C 40.40625 31.558594 40.519531 31.671875 40.59375 31.746094 Z M 40.59375 31.746094 " fill-opacity="1" fill-rule="nonzero"/><path fill="#000000" d="M 41.53125 39.589844 C 41.558594 39.605469 41.628906 39.589844 41.628906 39.5625 C 41.628906 39.53125 41.71875 39.402344 41.601562 39.359375 C 41.488281 39.316406 41.5 39.359375 41.5 39.386719 C 41.5 39.417969 41.414062 39.53125 41.53125 39.589844 Z M 41.53125 39.589844 " fill-opacity="1" fill-rule="nonzero"/><path fill="#000000" d="M 40.433594 40.65625 C 40.40625 40.628906 40.375 40.65625 40.363281 40.6875 C 40.347656 40.714844 40.347656 40.757812 40.363281 40.757812 C 40.375 40.757812 40.417969 40.757812 40.433594 40.730469 C 40.449219 40.699219 40.449219 40.65625 40.433594 40.65625 Z M 40.433594 40.65625 " fill-opacity="1" fill-rule="nonzero"/><path fill="#000000" d="M 40.390625 41.046875 C 40.320312 41.003906 40.289062 41.046875 40.273438 41.089844 C 40.261719 41.132812 40.273438 41.148438 40.273438 41.175781 L 40.433594 41.105469 Z M 40.390625 41.046875 " fill-opacity="1" fill-rule="nonzero"/><path fill="#000000" d="M 41.386719 18.390625 C 41.488281 18.464844 41.574219 18.4375 41.6875 18.363281 C 41.804688 18.292969 41.890625 18.0625 42.105469 18.019531 C 42.226562 17.941406 42.265625 17.835938 42.222656 17.699219 C 42.234375 17.671875 42.191406 17.644531 42.148438 17.597656 C 42.105469 17.554688 41.398438 17.570312 41.3125 17.84375 C 41.304688 17.910156 41.285156 17.972656 41.253906 18.03125 C 41.183594 18.175781 41.226562 18.261719 41.386719 18.390625 Z M 41.386719 18.390625 " fill-opacity="1" fill-rule="nonzero"/><path fill="#000000" d="M 40.21875 49.238281 C 40.246094 49.28125 40.285156 49.296875 40.332031 49.28125 C 40.335938 49.253906 40.332031 49.230469 40.320312 49.207031 L 40.203125 49.164062 C 40.207031 49.191406 40.210938 49.214844 40.21875 49.238281 Z M 40.21875 49.238281 " fill-opacity="1" fill-rule="nonzero"/><path fill="#000000" d="M 40.953125 47.058594 C 40.910156 47.015625 40.867188 46.960938 40.808594 46.988281 C 40.75 47.015625 40.75 47.074219 40.75 47.148438 C 40.75 47.265625 40.765625 47.378906 40.792969 47.492188 C 40.824219 47.566406 40.9375 47.609375 41.023438 47.664062 L 41.023438 47.464844 C 41.023438 47.40625 40.996094 47.320312 41.023438 47.289062 C 41.054688 47.261719 41.023438 47.117188 40.953125 47.058594 Z M 40.953125 47.058594 " fill-opacity="1" fill-rule="nonzero"/><path fill="#000000" d="M 41.90625 17.035156 L 41.976562 17.125 C 41.976562 17.109375 42.003906 17.082031 41.992188 17.066406 C 41.976562 17.050781 41.960938 16.992188 41.933594 16.949219 C 41.921875 16.980469 41.910156 17.007812 41.90625 17.035156 Z M 41.90625 17.035156 " fill-opacity="1" fill-rule="nonzero"/><path fill="#000000" d="M 40.519531 37.140625 C 40.5625 37.125 40.59375 37.066406 40.5625 37.050781 C 40.535156 37.039062 40.492188 36.894531 40.390625 36.953125 C 40.289062 37.007812 40.320312 37.023438 40.347656 37.039062 C 40.375 37.050781 40.417969 37.210938 40.519531 37.140625 Z M 40.519531 37.140625 " fill-opacity="1" fill-rule="nonzero"/><path fill="#000000" d="M 45.914062 52.683594 C 45.871094 52.65625 45.828125 52.640625 45.796875 52.710938 L 45.796875 52.785156 L 45.957031 52.742188 Z M 45.914062 52.683594 " fill-opacity="1" fill-rule="nonzero"/><path fill="#000000" d="M 46.246094 55.4375 C 46.332031 55.453125 46.359375 55.351562 46.402344 55.292969 C 46.445312 55.238281 46.402344 55.207031 46.359375 55.191406 C 46.316406 55.179688 46.214844 55.265625 46.171875 55.324219 C 46.128906 55.378906 46.171875 55.394531 46.246094 55.4375 Z M 46.246094 55.4375 " fill-opacity="1" fill-rule="nonzero"/><path fill="#000000" d="M 45.8125 57.773438 L 45.8125 57.730469 L 45.753906 57.730469 C 45.753906 57.746094 45.742188 57.773438 45.753906 57.773438 Z M 45.8125 57.773438 " fill-opacity="1" fill-rule="nonzero"/><path fill="#000000" d="M 43.535156 15.695312 C 43.578125 15.652344 43.5625 15.625 43.519531 15.609375 C 43.476562 15.59375 43.449219 15.480469 43.375 15.539062 C 43.304688 15.59375 43.316406 15.609375 43.332031 15.625 C 43.347656 15.636719 43.460938 15.679688 43.535156 15.695312 Z M 43.535156 15.695312 " fill-opacity="1" fill-rule="nonzero"/><path fill="#000000" d="M 44.066406 51.214844 C 44.144531 51.28125 44.222656 51.289062 44.3125 51.242188 C 44.328125 51.226562 44.328125 51.199219 44.339844 51.183594 C 44.257812 51.117188 44.167969 51.101562 44.066406 51.140625 C 44.023438 51.167969 44.039062 51.183594 44.066406 51.214844 Z M 44.066406 51.214844 " fill-opacity="1" fill-rule="nonzero"/><path fill="#000000" d="M 46.578125 55.929688 C 46.621094 55.886719 46.621094 55.84375 46.589844 55.8125 C 46.5625 55.785156 46.503906 55.742188 46.445312 55.8125 C 46.390625 55.886719 46.417969 55.886719 46.445312 55.914062 C 46.476562 55.941406 46.519531 55.984375 46.578125 55.929688 Z M 46.578125 55.929688 " fill-opacity="1" fill-rule="nonzero"/><path fill="#000000" d="M 44.414062 60.210938 L 44.457031 60.253906 C 44.457031 60.242188 44.460938 60.234375 44.472656 60.226562 L 44.429688 60.183594 C 44.417969 60.191406 44.414062 60.199219 44.414062 60.210938 Z M 44.414062 60.210938 " fill-opacity="1" fill-rule="nonzero"/><path fill="#000000" d="M 44.023438 58.136719 L 44.066406 58.164062 L 44.109375 58.136719 L 44.054688 58.105469 C 44.035156 58.105469 44.023438 58.117188 44.023438 58.136719 Z M 44.023438 58.136719 " fill-opacity="1" fill-rule="nonzero"/><path fill="#000000" d="M 41.457031 44.25 L 41.371094 44.25 L 41.429688 44.277344 Z M 41.457031 44.25 " fill-opacity="1" fill-rule="nonzero"/><path fill="#000000" d="M 44.960938 60.125 C 44.917969 60.125 44.875 60.167969 44.890625 60.195312 C 44.902344 60.226562 44.859375 60.355469 44.992188 60.371094 C 45.121094 60.382812 45.078125 60.328125 45.0625 60.3125 C 45.046875 60.296875 45.089844 60.140625 44.960938 60.125 Z M 44.960938 60.125 " fill-opacity="1" fill-rule="nonzero"/><path fill="#000000" d="M 41.398438 46.28125 C 41.441406 46.253906 41.429688 46.222656 41.398438 46.195312 L 41.328125 46.167969 C 41.300781 46.195312 41.3125 46.222656 41.34375 46.253906 Z M 41.398438 46.28125 " fill-opacity="1" fill-rule="nonzero"/><path fill="#000000" d="M 41.949219 41.351562 C 42.109375 41.304688 42.203125 41.199219 42.222656 41.03125 C 42.253906 40.792969 42.15625 40.628906 41.933594 40.542969 C 41.839844 40.503906 41.746094 40.488281 41.644531 40.5 C 41.515625 40.554688 41.53125 40.671875 41.5 40.789062 L 41.441406 40.84375 C 41.3125 41.019531 41.5 41.132812 41.5 41.292969 C 41.5 41.449219 41.789062 41.40625 41.949219 41.351562 Z M 41.949219 41.351562 " fill-opacity="1" fill-rule="nonzero"/><path fill="#000000" d="M 41.488281 45.90625 L 41.542969 45.933594 C 41.617188 45.9375 41.671875 45.902344 41.703125 45.835938 L 41.644531 45.804688 C 41.570312 45.804688 41.515625 45.839844 41.488281 45.90625 Z M 41.488281 45.90625 " fill-opacity="1" fill-rule="nonzero"/><path fill="#000000" d="M 41.386719 27.9375 L 41.34375 27.894531 C 41.3125 27.867188 41.269531 27.867188 41.253906 27.910156 L 41.300781 27.96875 C 41.34375 27.980469 41.371094 27.996094 41.386719 27.9375 Z M 41.386719 27.9375 " fill-opacity="1" fill-rule="nonzero"/><path fill="#000000" d="M 42.410156 27.808594 C 42.398438 27.792969 42.394531 27.773438 42.394531 27.75 L 42.351562 27.75 L 42.351562 27.808594 Z M 42.410156 27.808594 " fill-opacity="1" fill-rule="nonzero"/><path fill="#000000" d="M 42.597656 23.296875 C 42.667969 23.324219 42.886719 23.296875 42.886719 23.253906 C 42.894531 23.171875 42.871094 23.105469 42.8125 23.050781 C 42.695312 23.023438 42.613281 23.070312 42.566406 23.179688 C 42.539062 23.222656 42.523438 23.265625 42.597656 23.296875 Z M 42.597656 23.296875 " fill-opacity="1" fill-rule="nonzero"/><path fill="#000000" d="M 42.769531 33.777344 C 42.769531 33.835938 42.785156 33.878906 42.855469 33.867188 C 42.929688 33.851562 42.929688 33.835938 42.929688 33.792969 C 42.929688 33.75 42.914062 33.691406 42.84375 33.707031 C 42.769531 33.722656 42.769531 33.734375 42.769531 33.777344 Z M 42.769531 33.777344 " fill-opacity="1" fill-rule="nonzero"/><path fill="#000000" d="M 42.480469 32.179688 C 42.566406 32.207031 42.566406 32.121094 42.597656 32.0625 L 42.640625 31.992188 L 42.667969 31.933594 C 42.683594 31.875 42.769531 31.816406 42.699219 31.761719 C 42.632812 31.722656 42.570312 31.730469 42.511719 31.773438 C 42.46875 31.789062 42.453125 31.847656 42.410156 31.859375 C 42.367188 31.875 42.292969 31.917969 42.308594 32.003906 C 42.328125 32.101562 42.382812 32.160156 42.480469 32.179688 Z M 42.480469 32.179688 " fill-opacity="1" fill-rule="nonzero"/><path fill="#000000" d="M 42.511719 44.855469 C 42.46875 44.898438 42.4375 44.941406 42.511719 44.996094 C 42.582031 45.054688 42.582031 45.027344 42.609375 44.996094 C 42.640625 44.96875 42.683594 44.910156 42.609375 44.867188 C 42.601562 44.847656 42.589844 44.832031 42.566406 44.832031 C 42.542969 44.828125 42.523438 44.835938 42.511719 44.855469 Z M 42.511719 44.855469 " fill-opacity="1" fill-rule="nonzero"/><path fill="#000000" d="M 40.996094 42.257812 C 41 42.199219 40.980469 42.152344 40.9375 42.113281 C 40.867188 42.085938 40.792969 42.128906 40.75 42.214844 C 40.707031 42.300781 40.691406 42.300781 40.75 42.34375 C 40.808594 42.386719 40.9375 42.34375 40.996094 42.257812 Z M 40.996094 42.257812 " fill-opacity="1" fill-rule="nonzero"/><path fill="#000000" d="M 41.414062 60.210938 C 41.414062 60.242188 41.386719 60.269531 41.398438 60.285156 C 41.414062 60.296875 41.457031 60.3125 41.488281 60.269531 C 41.503906 60.246094 41.511719 60.222656 41.515625 60.195312 C 41.472656 60.152344 41.441406 60.183594 41.414062 60.210938 Z M 41.414062 60.210938 " fill-opacity="1" fill-rule="nonzero"/><path fill="#000000" d="M 43.332031 60.195312 C 43.347656 60.183594 43.375 60.140625 43.359375 60.125 C 43.347656 60.109375 43.304688 60.109375 43.273438 60.140625 C 43.261719 60.160156 43.25 60.1875 43.246094 60.210938 C 43.273438 60.253906 43.316406 60.242188 43.332031 60.195312 Z M 43.332031 60.195312 " fill-opacity="1" fill-rule="nonzero"/><path fill="#000000" d="M 43.375 59.273438 C 43.394531 59.25 43.394531 59.226562 43.375 59.203125 L 43.535156 59.203125 C 43.722656 59.203125 43.910156 59.1875 44.011719 58.941406 C 44.109375 58.699219 44.039062 58.609375 43.851562 58.496094 C 43.664062 58.378906 43.722656 58.464844 43.707031 58.4375 C 43.691406 58.410156 43.492188 58.324219 43.375 58.367188 C 43.257812 58.417969 43.15625 58.496094 43.074219 58.597656 C 43.015625 58.691406 42.988281 58.789062 42.984375 58.898438 L 42.914062 58.898438 C 42.929688 58.933594 42.949219 58.96875 42.972656 59 C 42.984375 59.015625 42.984375 59.027344 43 59.027344 C 43.015625 59.027344 43.085938 59.117188 43.085938 59.144531 C 43.085938 59.171875 43.160156 59.273438 43.246094 59.289062 C 43.332031 59.304688 43.347656 59.332031 43.375 59.273438 Z M 43.375 59.273438 " fill-opacity="1" fill-rule="nonzero"/><path fill="#000000" d="M 39.367188 58.148438 C 39.265625 58.179688 39.179688 58.277344 39.195312 58.351562 C 39.207031 58.421875 39.335938 58.480469 39.4375 58.453125 C 39.539062 58.421875 39.539062 58.394531 39.511719 58.308594 C 39.480469 58.222656 39.523438 58.121094 39.367188 58.148438 Z M 39.367188 58.148438 " fill-opacity="1" fill-rule="nonzero"/><path fill="#000000" d="M 41.816406 59.519531 C 41.773438 59.546875 41.789062 59.589844 41.832031 59.664062 L 42.105469 59.589844 C 42.105469 59.578125 42.105469 59.535156 42.09375 59.519531 C 42 59.445312 41.910156 59.445312 41.816406 59.519531 Z M 41.816406 59.519531 " fill-opacity="1" fill-rule="nonzero"/><path fill="#000000" d="M 39.667969 58.769531 C 39.570312 58.8125 39.613281 58.914062 39.613281 59 C 39.613281 59.085938 39.667969 59.015625 39.699219 58.972656 C 39.726562 58.929688 39.828125 58.898438 39.769531 58.8125 C 39.710938 58.726562 39.683594 58.753906 39.667969 58.769531 Z M 39.667969 58.769531 " fill-opacity="1" fill-rule="nonzero"/><path fill="#000000" d="M 35.503906 59.980469 C 35.457031 59.867188 35.359375 59.851562 35.269531 59.808594 C 35.183594 59.765625 35.199219 59.878906 35.171875 59.921875 C 35.140625 59.964844 35.15625 60.167969 35.199219 60.269531 C 35.253906 60.367188 35.328125 60.390625 35.429688 60.339844 C 35.53125 60.296875 35.546875 60.253906 35.515625 60.152344 C 35.488281 60.054688 35.53125 60.054688 35.503906 59.980469 Z M 35.503906 59.980469 " fill-opacity="1" fill-rule="nonzero"/><path fill="#000000" d="M 36.902344 59.578125 C 36.859375 59.5625 36.824219 59.570312 36.800781 59.605469 C 36.800781 59.664062 36.726562 59.75 36.828125 59.792969 C 36.929688 59.835938 36.929688 59.792969 36.929688 59.765625 C 36.929688 59.734375 37.015625 59.621094 36.902344 59.578125 Z M 36.902344 59.578125 " fill-opacity="1" fill-rule="nonzero"/><path fill="#000000" d="M 35.632812 59.546875 C 35.617188 59.589844 35.589844 59.632812 35.632812 59.648438 C 35.675781 59.664062 35.691406 59.648438 35.691406 59.632812 C 35.691406 59.621094 35.71875 59.5625 35.675781 59.535156 Z M 35.632812 59.546875 " fill-opacity="1" fill-rule="nonzero"/><path fill="#000000" d="M 36.382812 59.460938 C 36.382812 59.476562 36.394531 59.492188 36.394531 59.503906 L 36.425781 59.503906 C 36.425781 59.492188 36.410156 59.460938 36.410156 59.445312 C 36.410156 59.433594 36.382812 59.445312 36.382812 59.460938 Z M 36.382812 59.460938 " fill-opacity="1" fill-rule="nonzero"/><path fill="#000000" d="M 35.269531 58.046875 C 35.269531 57.992188 35.242188 57.976562 35.199219 57.960938 C 35.15625 57.949219 35.097656 57.976562 35.097656 58.046875 C 35.097656 58.121094 35.128906 58.121094 35.171875 58.136719 C 35.214844 58.148438 35.269531 58.136719 35.269531 58.046875 Z M 35.269531 58.046875 " fill-opacity="1" fill-rule="nonzero"/><path fill="#000000" d="M 34.390625 57.992188 L 34.449219 57.917969 L 34.492188 57.859375 L 34.261719 57.859375 C 34.234375 57.890625 34.21875 57.933594 34.277344 57.976562 C 34.242188 58.003906 34.230469 58.035156 34.246094 58.078125 C 34.246094 58.136719 34.203125 58.234375 34.320312 58.222656 C 34.433594 58.207031 34.464844 58.265625 34.492188 58.164062 C 34.519531 58.0625 34.449219 58.035156 34.390625 57.992188 Z M 34.390625 57.992188 " fill-opacity="1" fill-rule="nonzero"/><path fill="#000000" d="M 45.136719 51.617188 L 45.035156 51.617188 C 45.046875 51.644531 45.046875 51.675781 45.078125 51.675781 L 45.164062 51.675781 C 45.164062 51.644531 45.148438 51.617188 45.136719 51.617188 Z M 45.136719 51.617188 " fill-opacity="1" fill-rule="nonzero"/><path fill="#000000" d="M 44.730469 51.644531 C 44.6875 51.632812 44.671875 51.644531 44.660156 51.675781 L 44.773438 51.675781 C 44.773438 51.660156 44.761719 51.644531 44.730469 51.644531 Z M 44.730469 51.644531 " fill-opacity="1" fill-rule="nonzero"/><path fill="#000000" d="M 45.496094 52.726562 C 45.582031 52.667969 45.582031 52.597656 45.566406 52.480469 C 45.554688 52.367188 45.367188 52.207031 45.394531 52.019531 C 45.378906 51.9375 45.332031 51.878906 45.25 51.847656 L 45.191406 52.769531 C 45.277344 52.828125 45.351562 52.8125 45.496094 52.726562 Z M 45.496094 52.726562 " fill-opacity="1" fill-rule="nonzero"/><path fill="#000000" d="M 40.03125 32.335938 C 40.074219 32.28125 40.1875 32.265625 40.132812 32.164062 C 40.074219 32.0625 40.058594 32.09375 40.03125 32.121094 L 39.972656 32.164062 L 39.972656 32.335938 C 39.992188 32.355469 40.011719 32.355469 40.03125 32.335938 Z M 40.03125 32.335938 " fill-opacity="1" fill-rule="nonzero"/><path fill="#000000" d="M 28.175781 26.265625 L 28.089844 26.265625 C 28.117188 26.28125 28.148438 26.28125 28.175781 26.265625 Z M 28.175781 26.265625 " fill-opacity="1" fill-rule="nonzero"/><path fill="#000000" d="M 32.804688 29.582031 C 32.804688 29.640625 32.835938 29.65625 32.863281 29.65625 L 32.878906 29.65625 L 32.878906 29.496094 C 32.816406 29.496094 32.792969 29.523438 32.804688 29.582031 Z M 32.804688 29.582031 " fill-opacity="1" fill-rule="nonzero"/><path fill="#000000" d="M 40.203125 31.53125 C 40.230469 31.441406 40.117188 31.429688 40.085938 31.371094 C 40.058594 31.3125 40.03125 31.34375 39.988281 31.371094 L 39.988281 31.542969 C 40.058594 31.574219 40.1875 31.574219 40.203125 31.53125 Z M 40.203125 31.53125 " fill-opacity="1" fill-rule="nonzero"/><path fill="#000000" d="M 29.042969 20.109375 C 29.042969 20.066406 29.042969 19.992188 28.96875 19.992188 C 28.898438 19.992188 28.8125 20.09375 28.796875 20.210938 C 28.78125 20.324219 28.8125 20.253906 28.8125 20.265625 L 29.042969 20.136719 Z M 29.042969 20.109375 " fill-opacity="1" fill-rule="nonzero"/><path fill="#000000" d="M 30.800781 46.683594 C 30.859375 46.628906 30.816406 46.585938 30.773438 46.554688 C 30.730469 46.527344 30.6875 46.425781 30.597656 46.511719 C 30.511719 46.597656 30.585938 46.613281 30.628906 46.65625 C 30.671875 46.699219 30.714844 46.773438 30.800781 46.683594 Z M 30.800781 46.683594 " fill-opacity="1" fill-rule="nonzero"/><path fill="#000000" d="M 29.5625 27.808594 C 29.488281 27.867188 29.53125 27.953125 29.519531 28.023438 L 29.617188 27.996094 C 29.660156 27.925781 29.734375 27.894531 29.660156 27.824219 C 29.589844 27.75 29.605469 27.78125 29.5625 27.808594 Z M 29.5625 27.808594 " fill-opacity="1" fill-rule="nonzero"/><path fill="#000000" d="M 31.824219 27.636719 C 31.765625 27.59375 31.722656 27.652344 31.695312 27.695312 C 31.667969 27.738281 31.710938 27.738281 31.710938 27.75 L 31.882812 27.75 C 31.871094 27.707031 31.851562 27.671875 31.824219 27.636719 Z M 31.824219 27.636719 " fill-opacity="1" fill-rule="nonzero"/><path fill="#000000" d="M 29.589844 26.726562 C 29.476562 26.769531 29.390625 26.84375 29.332031 26.945312 C 29.285156 27.03125 29.488281 27.101562 29.359375 27.203125 C 29.4375 27.273438 29.527344 27.304688 29.632812 27.304688 C 29.707031 27.175781 29.769531 27.039062 29.820312 26.902344 C 29.796875 26.773438 29.71875 26.714844 29.589844 26.726562 Z M 29.589844 26.726562 " fill-opacity="1" fill-rule="nonzero"/><path fill="#000000" d="M 32.042969 27 C 31.988281 26.960938 31.941406 26.96875 31.910156 27.03125 C 31.863281 27.125 31.875 27.203125 31.953125 27.277344 C 32 27.324219 32.039062 27.316406 32.070312 27.261719 C 32.125 27.167969 32.117188 27.082031 32.042969 27 Z M 32.042969 27 " fill-opacity="1" fill-rule="nonzero"/><path fill="#000000" d="M 32.097656 29.683594 C 32.230469 29.683594 32.273438 29.566406 32.34375 29.496094 C 32.417969 29.425781 32.316406 29.410156 32.273438 29.367188 C 32.230469 29.324219 32.042969 29.265625 31.925781 29.28125 C 31.875 29.28125 31.835938 29.304688 31.804688 29.347656 C 31.777344 29.386719 31.769531 29.433594 31.78125 29.480469 C 31.78125 29.582031 31.824219 29.613281 31.925781 29.613281 C 32.027344 29.613281 32.027344 29.667969 32.097656 29.683594 Z M 32.097656 29.683594 " fill-opacity="1" fill-rule="nonzero"/><path fill="#000000" d="M 26.386719 24.96875 L 26.460938 25.011719 L 26.5625 24.96875 L 26.503906 24.925781 C 26.457031 24.921875 26.421875 24.9375 26.386719 24.96875 Z M 26.386719 24.96875 " fill-opacity="1" fill-rule="nonzero"/><path fill="#000000" d="M 26.257812 28.820312 L 26.1875 28.820312 C 26.1875 28.84375 26.191406 28.867188 26.199219 28.890625 C 26.265625 28.984375 26.351562 29.015625 26.460938 28.992188 C 26.460938 28.976562 26.460938 28.933594 26.445312 28.917969 C 26.433594 28.90625 26.359375 28.789062 26.257812 28.820312 Z M 26.257812 28.820312 " fill-opacity="1" fill-rule="nonzero"/><path fill="#000000" d="M 32.042969 27.910156 L 32.097656 27.882812 L 32.070312 27.851562 L 32.011719 27.882812 Z M 32.042969 27.910156 " fill-opacity="1" fill-rule="nonzero"/><path fill="#000000" d="M 26.574219 27.03125 L 26.605469 27.074219 L 26.648438 27.074219 L 26.605469 27.03125 Z M 26.574219 27.03125 " fill-opacity="1" fill-rule="nonzero"/><path fill="#000000" d="M 27.136719 26.84375 C 27.109375 26.902344 27.039062 26.929688 27.039062 27.015625 C 27.039062 27.101562 27.167969 27.074219 27.226562 27.074219 C 27.28125 27.074219 27.296875 27.042969 27.28125 26.988281 C 27.261719 26.910156 27.214844 26.863281 27.136719 26.84375 Z M 27.136719 26.84375 " fill-opacity="1" fill-rule="nonzero"/><path fill="#000000" d="M 29.34375 27.910156 C 29.335938 27.917969 29.332031 27.925781 29.332031 27.9375 C 29.300781 28.039062 29.386719 28.070312 29.445312 28.113281 L 29.546875 28.113281 C 29.589844 28.070312 29.589844 28.125 29.574219 28.082031 C 29.5625 28.039062 29.445312 27.925781 29.34375 27.910156 Z M 29.34375 27.910156 " fill-opacity="1" fill-rule="nonzero"/><path fill="#000000" d="M 32.199219 38.898438 L 32.257812 38.898438 L 32.257812 38.871094 L 32.199219 38.839844 C 32.199219 38.871094 32.183594 38.898438 32.199219 38.898438 Z M 32.199219 38.898438 " fill-opacity="1" fill-rule="nonzero"/><path fill="#000000" d="M 32.371094 36.953125 C 32.386719 36.964844 32.402344 36.996094 32.429688 36.996094 L 32.53125 36.996094 L 32.488281 36.953125 C 32.449219 36.917969 32.410156 36.917969 32.371094 36.953125 Z M 32.371094 36.953125 " fill-opacity="1" fill-rule="nonzero"/><path fill="#000000" d="M 32.445312 34.066406 C 32.515625 34.054688 32.617188 34.097656 32.675781 34.007812 C 32.703125 33.960938 32.691406 33.921875 32.648438 33.894531 C 32.570312 33.839844 32.5 33.847656 32.429688 33.910156 C 32.402344 33.9375 32.429688 34.007812 32.445312 34.066406 Z M 32.445312 34.066406 " fill-opacity="1" fill-rule="nonzero"/><path fill="#000000" d="M 32.070312 43.585938 C 31.984375 43.628906 31.882812 43.613281 31.808594 43.699219 C 31.738281 43.785156 31.808594 43.714844 31.824219 43.730469 C 31.839844 43.742188 31.953125 43.742188 32.027344 43.714844 C 32.097656 43.6875 32.085938 43.65625 32.070312 43.628906 C 32.054688 43.597656 32.113281 43.597656 32.070312 43.585938 Z M 32.070312 43.585938 " fill-opacity="1" fill-rule="nonzero"/><path fill="#000000" d="M 32.546875 33.160156 C 32.503906 33.1875 32.488281 33.214844 32.503906 33.261719 C 32.53125 33.339844 32.589844 33.378906 32.675781 33.375 C 32.703125 33.359375 32.734375 33.289062 32.746094 33.246094 C 32.761719 33.203125 32.632812 33.128906 32.546875 33.160156 Z M 32.546875 33.160156 " fill-opacity="1" fill-rule="nonzero"/><path fill="#000000" d="M 31.117188 36.878906 C 31.171875 36.929688 31.222656 36.988281 31.261719 37.050781 C 31.390625 37.210938 31.535156 37.371094 31.796875 37.296875 C 31.898438 37.28125 31.980469 37.226562 32.039062 37.136719 C 32.097656 37.046875 32.109375 36.953125 32.085938 36.851562 C 32.070312 36.851562 32.070312 36.835938 32.070312 36.820312 C 32.070312 36.808594 32.140625 36.835938 32.183594 36.835938 L 32.402344 36.765625 C 32.460938 36.75 32.488281 36.710938 32.488281 36.648438 C 32.488281 36.613281 32.472656 36.589844 32.4375 36.582031 C 32.40625 36.570312 32.378906 36.578125 32.359375 36.605469 C 32.273438 36.664062 32.199219 36.519531 32.113281 36.5625 L 32.097656 36.5625 C 32.097656 36.460938 31.96875 36.417969 31.882812 36.375 C 31.753906 36.3125 31.621094 36.273438 31.480469 36.257812 C 31.335938 36.246094 31.191406 36.375 31.0625 36.445312 C 30.929688 36.519531 30.886719 36.75 31.117188 36.878906 Z M 31.117188 36.878906 " fill-opacity="1" fill-rule="nonzero"/><path fill="#000000" d="M 31.621094 34.757812 C 31.609375 34.703125 31.59375 34.660156 31.523438 34.671875 L 31.464844 34.714844 L 31.59375 34.832031 C 31.613281 34.8125 31.621094 34.785156 31.621094 34.757812 Z M 31.621094 34.757812 " fill-opacity="1" fill-rule="nonzero"/><path fill="#000000" d="M 32.445312 32.0625 C 32.488281 32.105469 32.53125 32.148438 32.589844 32.078125 C 32.648438 32.003906 32.605469 32.035156 32.617188 32.003906 L 32.417969 32.003906 C 32.429688 32.019531 32.429688 32.046875 32.445312 32.0625 Z M 32.445312 32.0625 " fill-opacity="1" fill-rule="nonzero"/><path fill="#000000" d="M 32.835938 27.664062 C 32.835938 27.621094 32.847656 27.5625 32.777344 27.5625 C 32.703125 27.5625 32.691406 27.621094 32.675781 27.679688 C 32.660156 27.738281 32.660156 27.78125 32.734375 27.792969 C 32.804688 27.808594 32.820312 27.722656 32.835938 27.664062 Z M 32.835938 27.664062 " fill-opacity="1" fill-rule="nonzero"/><path fill="#000000" d="M 40.449219 22.617188 C 40.550781 22.617188 40.679688 22.414062 40.648438 22.316406 C 40.621094 22.214844 40.605469 22.285156 40.59375 22.273438 C 40.578125 22.257812 40.449219 22.34375 40.363281 22.472656 C 40.273438 22.601562 40.332031 22.558594 40.347656 22.574219 C 40.363281 22.589844 40.417969 22.617188 40.449219 22.617188 Z M 40.449219 22.617188 " fill-opacity="1" fill-rule="nonzero"/><path fill="#000000" d="M 25.914062 27.074219 L 25.941406 27.074219 L 25.941406 27.015625 L 25.914062 27.015625 C 25.90625 27.035156 25.90625 27.054688 25.914062 27.074219 Z M 25.914062 27.074219 " fill-opacity="1" fill-rule="nonzero"/><path fill="#000000" d="M 40.765625 28.113281 L 40.824219 28.113281 C 40.851562 28.082031 40.878906 28.054688 40.835938 28.023438 C 40.792969 27.996094 40.792969 28.039062 40.765625 28.054688 C 40.738281 28.070312 40.722656 28.082031 40.765625 28.113281 Z M 40.765625 28.113281 " fill-opacity="1" fill-rule="nonzero"/><path fill="#000000" d="M 40.320312 32.335938 C 40.332031 32.308594 40.375 32.28125 40.347656 32.234375 L 40.289062 32.234375 C 40.273438 32.265625 40.230469 32.292969 40.261719 32.335938 C 40.289062 32.378906 40.320312 32.351562 40.320312 32.335938 Z M 40.320312 32.335938 " fill-opacity="1" fill-rule="nonzero"/><path fill="#000000" d="M 41.210938 40.628906 C 41.203125 40.566406 41.179688 40.507812 41.140625 40.457031 C 41.113281 40.414062 41.054688 40.414062 41.023438 40.484375 C 40.996094 40.554688 40.96875 40.613281 40.996094 40.644531 C 41.070312 40.660156 41.140625 40.65625 41.210938 40.628906 Z M 41.210938 40.628906 " fill-opacity="1" fill-rule="nonzero"/><path fill="#000000" d="M 40.835938 50.664062 C 40.925781 50.59375 40.910156 50.550781 40.867188 50.476562 C 40.824219 50.40625 40.851562 50.363281 40.808594 50.304688 C 40.765625 50.246094 40.621094 50.21875 40.519531 50.203125 C 40.417969 50.1875 40.460938 50.289062 40.460938 50.347656 C 40.460938 50.40625 40.507812 50.59375 40.59375 50.679688 C 40.679688 50.757812 40.761719 50.753906 40.835938 50.664062 Z M 40.835938 50.664062 " fill-opacity="1" fill-rule="nonzero"/><path fill="#000000" d="M 40.117188 41.8125 C 40.074219 41.839844 40.058594 41.882812 40.101562 41.941406 C 40.132812 41.96875 40.164062 41.976562 40.203125 41.957031 C 40.246094 41.910156 40.273438 41.867188 40.21875 41.824219 C 40.160156 41.78125 40.160156 41.78125 40.117188 41.8125 Z M 40.117188 41.8125 " fill-opacity="1" fill-rule="nonzero"/><path fill="#000000" d="M 41.113281 39.433594 L 41.054688 39.402344 L 41.054688 39.445312 L 41.113281 39.445312 C 41.113281 39.445312 41.125 39.433594 41.113281 39.433594 Z M 41.113281 39.433594 " fill-opacity="1" fill-rule="nonzero"/><path fill="#000000" d="M 40.433594 28.976562 C 40.40625 29.0625 40.347656 29.136719 40.375 29.238281 C 40.40625 29.335938 40.519531 29.367188 40.621094 29.394531 L 40.679688 29.453125 C 40.824219 29.582031 40.9375 29.425781 41.082031 29.425781 C 41.226562 29.425781 41.210938 29.179688 41.167969 29.035156 C 41.140625 28.886719 41.054688 28.796875 40.910156 28.761719 C 40.695312 28.710938 40.539062 28.785156 40.433594 28.976562 Z M 40.433594 28.976562 " fill-opacity="1" fill-rule="nonzero"/><path fill="#000000" d="M 40.605469 25.257812 L 40.664062 25.257812 C 40.738281 25.199219 40.792969 25.140625 40.765625 25.039062 L 40.765625 24.953125 C 40.730469 24.949219 40.703125 24.957031 40.679688 24.984375 C 40.589844 25.058594 40.566406 25.148438 40.605469 25.257812 Z M 40.605469 25.257812 " fill-opacity="1" fill-rule="nonzero"/><path fill="#000000" d="M 27.773438 19.734375 L 27.773438 19.691406 C 27.742188 19.660156 27.730469 19.605469 27.671875 19.632812 L 27.671875 19.675781 C 27.699219 19.703125 27.714844 19.75 27.773438 19.734375 Z M 27.773438 19.734375 " fill-opacity="1" fill-rule="nonzero"/><path fill="#000000" d="M 28.4375 20.109375 C 28.464844 20.050781 28.550781 19.992188 28.464844 19.90625 C 28.378906 19.820312 28.378906 19.878906 28.363281 19.90625 C 28.347656 19.933594 28.234375 20.023438 28.335938 20.09375 C 28.4375 20.167969 28.421875 20.136719 28.4375 20.109375 Z M 28.4375 20.109375 " fill-opacity="1" fill-rule="nonzero"/><path fill="#000000" d="M 25.363281 20.511719 L 25.394531 20.585938 C 25.421875 20.613281 25.449219 20.628906 25.480469 20.597656 L 25.449219 20.527344 C 25.421875 20.496094 25.394531 20.484375 25.363281 20.511719 Z M 25.363281 20.511719 " fill-opacity="1" fill-rule="nonzero"/><path fill="#000000" d="M 30.84375 18.855469 L 30.902344 18.824219 L 30.875 18.796875 L 30.816406 18.824219 Z M 30.84375 18.855469 " fill-opacity="1" fill-rule="nonzero"/><path fill="#000000" d="M 37.605469 13.964844 C 37.652344 13.964844 37.664062 13.9375 37.636719 13.90625 L 37.5625 13.863281 C 37.507812 13.863281 37.492188 13.878906 37.519531 13.90625 Z M 37.605469 13.964844 " fill-opacity="1" fill-rule="nonzero"/><path fill="#000000" d="M 37.996094 14.082031 L 38.113281 14.082031 C 38.097656 14.050781 38.082031 14.023438 38.070312 14.023438 L 37.953125 13.996094 C 37.980469 14.039062 37.980469 14.066406 37.996094 14.082031 Z M 37.996094 14.082031 " fill-opacity="1" fill-rule="nonzero"/><path fill="#000000" d="M 32.027344 48.359375 C 32.042969 48.285156 31.953125 48.199219 31.839844 48.183594 C 31.722656 48.171875 31.738281 48.214844 31.738281 48.269531 C 31.742188 48.347656 31.769531 48.417969 31.824219 48.472656 C 31.867188 48.386719 32.011719 48.488281 32.027344 48.359375 Z M 32.027344 48.359375 " fill-opacity="1" fill-rule="nonzero"/><path fill="#000000" d="M 31.507812 18.277344 C 31.527344 18.269531 31.542969 18.253906 31.550781 18.234375 C 31.554688 18.203125 31.546875 18.175781 31.535156 18.148438 C 31.523438 18.089844 31.523438 18.046875 31.507812 17.988281 L 31.449219 17.988281 C 31.40625 18.019531 31.464844 18.261719 31.507812 18.277344 Z M 31.507812 18.277344 " fill-opacity="1" fill-rule="nonzero"/><path fill="#000000" d="M 32.777344 17.296875 C 32.8125 17.269531 32.820312 17.238281 32.804688 17.195312 C 32.777344 17.125 32.589844 17.035156 32.546875 17.082031 C 32.503906 17.125 32.589844 17.210938 32.605469 17.28125 C 32.617188 17.355469 32.703125 17.3125 32.777344 17.296875 Z M 32.777344 17.296875 " fill-opacity="1" fill-rule="nonzero"/><path fill="#000000" d="M 33.816406 16.847656 C 33.859375 16.863281 33.914062 16.90625 33.960938 16.878906 C 34.003906 16.847656 33.972656 16.761719 33.960938 16.691406 C 33.945312 16.617188 33.902344 16.617188 33.859375 16.605469 C 33.816406 16.589844 33.757812 16.5625 33.726562 16.617188 C 33.699219 16.675781 33.640625 16.734375 33.714844 16.792969 Z M 33.816406 16.847656 " fill-opacity="1" fill-rule="nonzero"/><path fill="#000000" d="M 31.882812 60.007812 C 31.808594 59.953125 31.753906 59.910156 31.667969 60.007812 C 31.578125 60.109375 31.59375 60.125 31.695312 60.195312 C 31.796875 60.269531 31.796875 60.285156 31.882812 60.195312 C 31.96875 60.109375 31.953125 60.082031 31.882812 60.007812 Z M 31.882812 60.007812 " fill-opacity="1" fill-rule="nonzero"/><path fill="#000000" d="M 31.882812 58.582031 C 31.867188 58.566406 31.753906 58.742188 31.753906 58.769531 C 31.753906 58.796875 31.867188 58.828125 31.925781 58.839844 C 31.984375 58.855469 32.027344 58.796875 32.011719 58.742188 C 31.976562 58.679688 31.933594 58.628906 31.882812 58.582031 Z M 31.882812 58.582031 " fill-opacity="1" fill-rule="nonzero"/><path fill="#000000" d="M 33.109375 57.902344 L 33.253906 57.933594 L 33.324219 57.859375 L 33.09375 57.859375 C 33.097656 57.875 33.101562 57.890625 33.109375 57.902344 Z M 33.109375 57.902344 " fill-opacity="1" fill-rule="nonzero"/><path fill="#000000" d="M 32.472656 48.242188 C 32.503906 48.257812 32.515625 48.285156 32.546875 48.285156 L 32.605469 48.285156 L 32.605469 48.140625 Z M 32.472656 48.242188 " fill-opacity="1" fill-rule="nonzero"/><path fill="#000000" d="M 29.214844 60.007812 L 29.1875 60.054688 C 29.1875 60.097656 29.1875 60.140625 29.230469 60.140625 C 29.273438 60.140625 29.273438 60.125 29.273438 60.109375 C 29.273438 60.097656 29.273438 60.023438 29.214844 60.007812 Z M 29.214844 60.007812 " fill-opacity="1" fill-rule="nonzero"/><path fill="#000000" d="M 31.347656 59.820312 C 31.378906 59.75 31.320312 59.707031 31.277344 59.679688 C 31.234375 59.648438 31.191406 59.632812 31.160156 59.589844 C 31.132812 59.546875 31.074219 59.503906 31.003906 59.546875 C 30.910156 59.589844 30.871094 59.664062 30.886719 59.765625 C 30.886719 59.851562 30.972656 59.820312 31.03125 59.851562 L 31.148438 59.851562 C 31.121094 59.941406 31.144531 60.011719 31.21875 60.066406 C 31.28125 60.007812 31.328125 59.941406 31.363281 59.867188 C 31.378906 59.851562 31.378906 59.835938 31.347656 59.820312 Z M 31.347656 59.820312 " fill-opacity="1" fill-rule="nonzero"/><path fill="#000000" d="M 32.574219 47.824219 C 32.488281 47.808594 32.417969 47.882812 32.386719 47.996094 C 32.359375 48.113281 32.359375 48.097656 32.429688 48.113281 C 32.503906 48.128906 32.558594 48.070312 32.605469 48.011719 L 32.605469 47.851562 C 32.605469 47.839844 32.589844 47.839844 32.574219 47.824219 Z M 32.574219 47.824219 " fill-opacity="1" fill-rule="nonzero"/><path fill="#000000" d="M 26.707031 52.496094 C 26.617188 52.496094 26.5625 52.539062 26.546875 52.625 C 26.53125 52.683594 26.589844 52.710938 26.632812 52.710938 C 26.675781 52.710938 26.761719 52.757812 26.777344 52.65625 C 26.785156 52.589844 26.761719 52.535156 26.707031 52.496094 Z M 26.707031 52.496094 " fill-opacity="1" fill-rule="nonzero"/><path fill="#000000" d="M 30.210938 59.070312 C 30.210938 59.085938 30.222656 59.117188 30.222656 59.128906 L 30.253906 59.101562 C 30.253906 59.085938 30.238281 59.070312 30.238281 59.058594 Z M 30.210938 59.070312 " fill-opacity="1" fill-rule="nonzero"/><path fill="#000000" d="M 32.632812 38.496094 L 32.71875 38.652344 L 32.746094 38.652344 L 32.746094 38.480469 Z M 32.632812 38.496094 " fill-opacity="1" fill-rule="nonzero"/><path fill="#000000" d="M 32.847656 31.5 C 32.820312 31.484375 32.804688 31.515625 32.777344 31.53125 C 32.75 31.632812 32.769531 31.730469 32.835938 31.816406 L 32.847656 31.816406 L 32.847656 31.484375 Z M 32.847656 31.5 " fill-opacity="1" fill-rule="nonzero"/><path fill="#000000" d="M 26.460938 58.496094 C 26.445312 58.496094 26.460938 58.523438 26.460938 58.539062 L 26.519531 58.511719 L 26.519531 58.464844 Z M 26.460938 58.496094 " fill-opacity="1" fill-rule="nonzero"/><path fill="#000000" d="M 25.351562 51.027344 L 25.378906 51.082031 L 25.421875 51.082031 C 25.40625 51.054688 25.40625 51.039062 25.394531 51.027344 C 25.378906 51.011719 25.363281 51.027344 25.351562 51.027344 Z M 25.351562 51.027344 " fill-opacity="1" fill-rule="nonzero"/><path fill="#000000" d="M 31.550781 45.042969 L 31.507812 44.984375 C 31.476562 44.953125 31.445312 44.949219 31.40625 44.96875 L 31.433594 45.027344 Z M 31.550781 45.042969 " fill-opacity="1" fill-rule="nonzero"/><path fill="#000000" d="M 31.234375 43.339844 C 31.234375 43.355469 31.433594 43.222656 31.433594 43.152344 C 31.378906 43.019531 31.300781 42.898438 31.203125 42.792969 C 31.09375 42.761719 31.007812 42.792969 30.945312 42.894531 C 30.929688 43.007812 30.949219 43.121094 31.003906 43.222656 C 31.0625 43.296875 31.203125 43.167969 31.234375 43.339844 Z M 31.234375 43.339844 " fill-opacity="1" fill-rule="nonzero"/><path fill="#000000" d="M 30.382812 51.355469 C 30.382812 51.347656 30.378906 51.335938 30.367188 51.328125 L 30.324219 51.355469 L 30.324219 51.402344 Z M 30.382812 51.355469 " fill-opacity="1" fill-rule="nonzero"/><path fill="#000000" d="M 40.851562 46.253906 C 40.765625 46.265625 40.664062 46.121094 40.59375 46.28125 C 40.519531 46.441406 40.507812 46.355469 40.59375 46.398438 C 40.679688 46.433594 40.773438 46.464844 40.867188 46.484375 C 40.910156 46.496094 40.96875 46.453125 40.9375 46.367188 C 40.910156 46.28125 40.953125 46.238281 40.851562 46.253906 Z M 40.851562 46.253906 " fill-opacity="1" fill-rule="nonzero"/><path fill="#000000" d="M 31.089844 50.117188 L 31.105469 50.117188 L 31.0625 50.074219 L 31.03125 50.101562 Z M 31.089844 50.117188 " fill-opacity="1" fill-rule="nonzero"/><path fill="#000000" d="M 32.027344 40.65625 C 32.042969 40.65625 32.027344 40.613281 32.011719 40.613281 L 31.941406 40.613281 L 31.78125 40.585938 C 31.765625 40.585938 31.753906 40.628906 31.753906 40.628906 C 31.753906 40.628906 32.011719 40.699219 32.027344 40.65625 Z M 32.027344 40.65625 " fill-opacity="1" fill-rule="nonzero"/><path fill="#000000" d="M 31.695312 44.636719 L 31.695312 44.722656 C 31.722656 44.78125 31.738281 44.78125 31.753906 44.738281 C 31.765625 44.703125 31.765625 44.671875 31.753906 44.636719 C 31.738281 44.59375 31.710938 44.59375 31.695312 44.636719 Z M 31.695312 44.636719 " fill-opacity="1" fill-rule="nonzero"/><path fill="#000000" d="M 31.40625 46.988281 C 31.449219 47.015625 31.492188 47.058594 31.535156 47.015625 C 31.578125 46.972656 31.566406 46.929688 31.550781 46.871094 C 31.535156 46.816406 31.507812 46.65625 31.433594 46.585938 C 31.363281 46.511719 31.292969 46.527344 31.203125 46.496094 L 31.246094 46.671875 C 31.261719 46.714844 31.304688 46.773438 31.292969 46.800781 C 31.277344 46.828125 31.335938 46.960938 31.40625 46.988281 Z M 31.40625 46.988281 " fill-opacity="1" fill-rule="nonzero"/><path fill="#000000" d="M 31.636719 44.277344 C 31.652344 44.234375 31.679688 44.21875 31.679688 44.191406 C 31.671875 44.152344 31.65625 44.121094 31.636719 44.089844 L 31.59375 44.148438 C 31.59375 44.191406 31.621094 44.21875 31.636719 44.277344 Z M 31.636719 44.277344 " fill-opacity="1" fill-rule="nonzero"/><path fill="#000000" d="M 25.984375 52.710938 C 25.957031 52.699219 25.925781 52.710938 25.882812 52.726562 L 25.941406 52.769531 L 26.042969 52.769531 C 26.027344 52.742188 26.011719 52.710938 25.984375 52.710938 Z M 25.984375 52.710938 " fill-opacity="1" fill-rule="nonzero"/><path fill="#000000" d="M 25.753906 52.742188 C 25.683594 52.710938 25.652344 52.742188 25.652344 52.785156 C 25.632812 52.890625 25.675781 52.953125 25.78125 52.972656 C 25.824219 53 25.855469 52.972656 25.855469 52.929688 C 25.878906 52.835938 25.84375 52.773438 25.753906 52.742188 Z M 25.753906 52.742188 " fill-opacity="1" fill-rule="nonzero"/><path fill="#000000" d="M 31.867188 49.597656 L 31.96875 49.699219 C 31.996094 49.714844 31.996094 49.65625 32.011719 49.613281 C 32.027344 49.570312 32.027344 49.496094 31.941406 49.496094 C 31.855469 49.496094 31.867188 49.511719 31.867188 49.597656 Z M 31.867188 49.597656 " fill-opacity="1" fill-rule="nonzero"/><path fill="#000000" d="M 26.300781 50.160156 C 26.257812 50.175781 26.230469 50.1875 26.230469 50.234375 C 26.230469 50.277344 26.300781 50.320312 26.34375 50.320312 C 26.386719 50.320312 26.417969 50.304688 26.445312 50.304688 C 26.476562 50.304688 26.386719 50.160156 26.300781 50.160156 Z M 26.300781 50.160156 " fill-opacity="1" fill-rule="nonzero"/><path fill="#000000" d="M 29.15625 50.074219 C 29.15625 50.089844 29.1875 50.101562 29.214844 50.101562 C 29.242188 50.101562 29.273438 50.117188 29.273438 50.058594 L 29.230469 50.03125 C 29.1875 50.03125 29.15625 50.03125 29.15625 50.074219 Z M 29.15625 50.074219 " fill-opacity="1" fill-rule="nonzero"/><path fill="#000000" d="M 26.011719 56.78125 C 26.011719 56.792969 26.042969 56.824219 26.042969 56.851562 C 26.042969 56.878906 26.113281 56.894531 26.144531 56.851562 L 26.113281 56.78125 C 26.085938 56.75 26.042969 56.734375 26.011719 56.78125 Z M 26.011719 56.78125 " fill-opacity="1" fill-rule="nonzero"/><path fill="#000000" d="M 29.199219 49.46875 C 29.230469 49.425781 29.285156 49.394531 29.230469 49.324219 C 29.171875 49.253906 29.027344 49.28125 28.957031 49.351562 C 28.910156 49.410156 28.910156 49.46875 28.957031 49.527344 C 29.058594 49.59375 29.140625 49.574219 29.199219 49.46875 Z M 29.199219 49.46875 " fill-opacity="1" fill-rule="nonzero"/><path fill="#000000" d="M 28.304688 50.652344 C 28.449219 50.640625 28.539062 50.5625 28.566406 50.421875 C 28.550781 50.390625 28.523438 50.375 28.507812 50.363281 C 28.40625 50.375 28.324219 50.421875 28.261719 50.507812 C 28.234375 50.519531 28.207031 50.5625 28.21875 50.59375 C 28.234375 50.621094 28.277344 50.636719 28.304688 50.652344 Z M 28.304688 50.652344 " fill-opacity="1" fill-rule="nonzero"/><path fill="#000000" d="M 29.097656 51.214844 C 29.085938 51.242188 29.054688 51.269531 29.070312 51.285156 C 29.085938 51.300781 29.144531 51.300781 29.15625 51.269531 C 29.171875 51.242188 29.199219 51.214844 29.1875 51.199219 C 29.171875 51.183594 29.113281 51.183594 29.097656 51.214844 Z M 29.097656 51.214844 " fill-opacity="1" fill-rule="nonzero"/><path fill="#000000" d="M 28.582031 49.570312 C 28.636719 49.570312 28.679688 49.570312 28.679688 49.496094 C 28.679688 49.425781 28.667969 49.441406 28.636719 49.425781 C 28.609375 49.410156 28.550781 49.410156 28.535156 49.484375 C 28.523438 49.523438 28.539062 49.554688 28.582031 49.570312 Z M 28.582031 49.570312 " fill-opacity="1" fill-rule="nonzero"/><path fill="#000000" d="M 46.359375 51.976562 L 45.566406 51.386719 L 40.78125 51.386719 L 41.300781 16.011719 L 40.507812 15.40625 L 36.570312 15.40625 L 26.820312 21.089844 L 26.75 26.855469 L 27.542969 27.449219 L 32.632812 26.367188 L 32.273438 51.386719 L 26.777344 51.386719 L 26.691406 58.148438 L 27.484375 58.753906 L 45.941406 58.753906 Z M 46.359375 51.976562 " fill-opacity="1" fill-rule="nonzero"/><path fill="#ffffff" d="M 40.507812 15.40625 L 39.972656 51.386719 L 45.566406 51.386719 L 45.136719 58.148438 L 26.691406 58.148438 L 26.777344 51.386719 L 32.273438 51.386719 L 32.648438 25.589844 L 26.75 26.855469 L 26.820312 21.089844 L 36.570312 15.40625 Z M 40.507812 15.40625 " fill-opacity="1" fill-rule="nonzero"/></svg>