<svg xmlns="http://www.w3.org/2000/svg" xmlns:xlink="http://www.w3.org/1999/xlink" width="100" zoomAndPan="magnify" viewBox="0 0 75 74.999997" height="100" preserveAspectRatio="xMidYMid meet" version="1.0"><defs><filter x="0%" y="0%" width="100%" height="100%" id="372a0c5b40"><feColorMatrix values="0 0 0 0 1 0 0 0 0 1 0 0 0 0 1 0 0 0 1 0" color-interpolation-filters="sRGB"/></filter><clipPath id="d7e33b5f82"><path d="M 0.78125 5.328125 L 74.28125 5.328125 L 74.28125 69.828125 L 0.78125 69.828125 Z M 0.78125 5.328125 " clip-rule="nonzero"/></clipPath><clipPath id="d37ec1f4f5"><path d="M 0 5 L 75 5 L 75 74.765625 L 0 74.765625 Z M 0 5 " clip-rule="nonzero"/></clipPath><clipPath id="18cc647804"><path d="M 11 0.515625 L 30 0.515625 L 30 12 L 11 12 Z M 11 0.515625 " clip-rule="nonzero"/></clipPath><clipPath id="c225ad0a14"><path d="M 29 0.515625 L 33 0.515625 L 33 4 L 29 4 Z M 29 0.515625 " clip-rule="nonzero"/></clipPath><clipPath id="53320363aa"><path d="M 32 0.515625 L 36 0.515625 L 36 4 L 32 4 Z M 32 0.515625 " clip-rule="nonzero"/></clipPath><clipPath id="ead010d594"><path d="M 35 0.515625 L 40 0.515625 L 40 4 L 35 4 Z M 35 0.515625 " clip-rule="nonzero"/></clipPath><clipPath id="b7bd39f860"><path d="M 20.484375 12.101562 L 54.234375 12.101562 L 54.234375 63 L 20.484375 63 Z M 20.484375 12.101562 " clip-rule="nonzero"/></clipPath><mask id="fe8e7627ed"><g filter="url(#372a0c5b40)"><rect x="-7.5" width="90" fill="#000000" y="-7.5" height="89.999996" fill-opacity="0.7"/></g></mask><clipPath id="31ed41f556"><path d="M 0.839844 0.199219 L 32.28125 0.199219 L 32.28125 48.921875 L 0.839844 48.921875 Z M 0.839844 0.199219 " clip-rule="nonzero"/></clipPath><clipPath id="49064f5099"><rect x="0" width="33" y="0" height="49"/></clipPath></defs><path fill="#0d5d56" d="M 55.074219 7.167969 L 20.148438 7.167969 L 2.457031 37.496094 L 20.148438 68.058594 L 55.074219 68.058594 L 72.535156 37.496094 Z M 55.074219 7.167969 " fill-opacity="1" fill-rule="nonzero"/><g clip-path="url(#d7e33b5f82)"><path fill="#0d5d56" d="M 0.847656 37.496094 C 0.847656 37.265625 0.847656 36.808594 1.078125 36.578125 L 18.539062 6.25 C 19 5.558594 19.457031 5.328125 20.148438 5.328125 L 55.074219 5.328125 C 55.761719 5.328125 56.222656 5.558594 56.453125 6.25 L 73.914062 36.808594 C 74.144531 37.265625 74.144531 37.957031 73.914062 38.417969 L 56.453125 68.976562 C 56.222656 69.433594 55.761719 69.664062 55.074219 69.664062 L 19.917969 69.664062 C 19.226562 69.664062 18.769531 69.433594 18.539062 68.746094 L 1.078125 38.1875 C 0.847656 38.1875 0.847656 37.726562 0.847656 37.496094 Z M 21.066406 8.777344 L 4.523438 37.496094 L 21.066406 66.21875 L 54.152344 66.21875 L 70.695312 37.496094 L 54.152344 8.777344 Z M 21.066406 8.777344 " fill-opacity="1" fill-rule="nonzero"/></g><g clip-path="url(#d37ec1f4f5)"><path fill="#8fd5a6" d="M 75 37.636719 L 56.25 5.160156 L 18.75 5.160156 L 0 37.636719 L 18.75 70.113281 L 34.867188 70.113281 L 37.390625 74.484375 L 58.773438 74.484375 L 69.460938 55.972656 L 66.9375 51.601562 Z M 3.085938 37.636719 L 9.394531 26.707031 L 10.917969 29.347656 L 21.816406 10.476562 L 43.695312 10.476562 L 43.695312 10.453125 L 42.183594 7.832031 L 54.707031 7.832031 L 71.914062 37.636719 L 54.707031 67.441406 L 20.292969 67.441406 Z M 3.085938 37.636719 " fill-opacity="1" fill-rule="nonzero"/></g><path fill="#8fd5a6" d="M 7.925781 19.964844 L 6.390625 17.304688 L 5.167969 19.417969 L 6.703125 22.074219 Z M 7.925781 19.964844 " fill-opacity="1" fill-rule="nonzero"/><path fill="#8fd5a6" d="M 9.378906 17.441406 L 7.84375 14.785156 L 6.851562 16.503906 L 8.386719 19.164062 Z M 9.378906 17.441406 " fill-opacity="1" fill-rule="nonzero"/><path fill="#8fd5a6" d="M 10.835938 14.921875 L 9.300781 12.261719 L 8.308594 13.980469 L 9.84375 16.640625 Z M 10.835938 14.921875 " fill-opacity="1" fill-rule="nonzero"/><path fill="#8fd5a6" d="M 12.289062 12.402344 L 10.753906 9.742188 L 9.761719 11.460938 L 11.296875 14.121094 Z M 12.289062 12.402344 " fill-opacity="1" fill-rule="nonzero"/><g clip-path="url(#18cc647804)"><path fill="#8fd5a6" d="M 17.617188 3.175781 L 29.890625 3.175781 L 28.355469 0.515625 L 16.082031 0.515625 L 11.21875 8.941406 L 12.753906 11.597656 Z M 17.617188 3.175781 " fill-opacity="1" fill-rule="nonzero"/></g><g clip-path="url(#c225ad0a14)"><path fill="#8fd5a6" d="M 32.867188 3.175781 L 31.332031 0.515625 L 29.28125 0.515625 L 30.816406 3.175781 Z M 32.867188 3.175781 " fill-opacity="1" fill-rule="nonzero"/></g><g clip-path="url(#53320363aa)"><path fill="#8fd5a6" d="M 35.847656 3.175781 L 34.3125 0.515625 L 32.257812 0.515625 L 33.792969 3.175781 Z M 35.847656 3.175781 " fill-opacity="1" fill-rule="nonzero"/></g><g clip-path="url(#ead010d594)"><path fill="#8fd5a6" d="M 39.480469 3.175781 L 37.945312 0.515625 L 35.238281 0.515625 L 36.773438 3.175781 Z M 39.480469 3.175781 " fill-opacity="1" fill-rule="nonzero"/></g><g clip-path="url(#b7bd39f860)"><path fill="#0d5d56" d="M 23.917969 62.890625 L 20.847656 60.832031 L 21.15625 50.660156 L 21.914062 49.707031 C 22.9375 48.417969 24.601562 46.441406 26.886719 43.835938 L 26.902344 43.835938 C 29.296875 41.1875 31.242188 38.890625 32.703125 37.015625 C 33.316406 36.214844 33.890625 35.417969 34.425781 34.578125 L 23.523438 30.949219 L 20.484375 28.917969 L 21.128906 26.003906 C 21.660156 23.601562 22.609375 21.382812 23.988281 19.347656 C 25.433594 17.171875 27.289062 15.429688 29.550781 14.121094 C 31.859375 12.789062 34.480469 12.105469 37.324219 12.105469 C 40.167969 12.105469 42.800781 12.734375 45.058594 13.96875 C 45.449219 14.175781 45.828125 14.402344 46.191406 14.652344 L 48.378906 16.109375 C 50.191406 17.328125 51.617188 18.890625 52.664062 20.804688 C 53.925781 23.058594 54.515625 25.636719 54.429688 28.441406 C 54.292969 33.121094 52.582031 37.800781 49.359375 42.339844 C 48.125 44.074219 46.738281 45.855469 45.210938 47.632812 L 50.59375 47.632812 L 53.746094 49.75 L 52.0625 62.890625 Z M 23.917969 62.890625 " fill-opacity="1" fill-rule="nonzero"/></g><g mask="url(#fe8e7627ed)"><g transform="matrix(1, 0, 0, 1, 21, 13)"><g clip-path="url(#49064f5099)"><g clip-path="url(#31ed41f556)"><path fill="#ffffff" d="M 26.664062 4.160156 L 24.492188 2.691406 C 24.507812 2.703125 24.535156 2.71875 24.546875 2.746094 C 24.203125 2.511719 23.839844 2.289062 23.457031 2.074219 C 21.382812 0.9375 18.988281 0.363281 16.324219 0.363281 C 13.664062 0.363281 11.308594 0.980469 9.179688 2.214844 C 7.085938 3.425781 5.367188 5.035156 4.023438 7.046875 C 2.746094 8.957031 1.859375 11.027344 1.363281 13.269531 L 0.898438 15.34375 L 3.085938 16.8125 L 13.859375 20.386719 L 14.390625 17.722656 C 14.636719 16.347656 15.199219 15.113281 16.074219 14.023438 C 16.71875 13.226562 17.25 12.960938 17.667969 12.875 C 17.757812 13.164062 17.792969 13.457031 17.78125 13.757812 C 17.726562 15.453125 17.234375 17.234375 16.324219 19.039062 C 15.304688 21.070312 14.09375 22.980469 12.695312 24.769531 C 11.226562 26.664062 9.261719 28.988281 6.839844 31.679688 C 4.414062 34.367188 2.917969 36.203125 1.894531 37.492188 L 1.402344 38.121094 L 1.125 47.171875 L 3.308594 48.628906 L 29.957031 48.628906 L 31.386719 37.367188 L 29.214844 35.894531 L 21.410156 35.894531 C 23.535156 33.589844 25.503906 31.160156 27.324219 28.609375 C 30.40625 24.265625 32.03125 19.824219 32.171875 15.398438 C 32.253906 12.820312 31.707031 10.464844 30.574219 8.40625 C 29.613281 6.675781 28.3125 5.261719 26.664062 4.160156 Z M 26.664062 4.160156 " fill-opacity="1" fill-rule="nonzero"/></g></g></g></g><path fill="#0d5d56" d="M 24.476562 61.070312 L 22.699219 59.878906 L 22.964844 51.320312 L 23.34375 50.84375 C 24.335938 49.566406 26.003906 47.621094 28.261719 45.042969 C 30.515625 42.464844 32.660156 40.027344 34.144531 38.105469 C 35.558594 36.289062 36.789062 34.347656 37.828125 32.292969 C 38.78125 30.402344 39.285156 28.550781 39.34375 26.773438 C 39.355469 26.414062 39.316406 26.066406 39.214844 25.722656 L 39.0625 25.21875 L 38.558594 25.316406 C 37.886719 25.46875 37.253906 25.902344 36.636719 26.675781 C 35.699219 27.832031 35.101562 29.144531 34.84375 30.613281 L 34.4375 32.65625 L 24.335938 29.292969 L 22.53125 28.089844 L 22.90625 26.394531 C 23.390625 24.21875 24.257812 22.207031 25.5 20.355469 C 26.792969 18.421875 28.445312 16.871094 30.460938 15.703125 C 32.585938 14.492188 34.875 13.898438 37.324219 13.925781 C 39.886719 13.925781 42.199219 14.472656 44.191406 15.5625 C 44.554688 15.761719 44.902344 15.972656 45.242188 16.195312 L 47.355469 17.625 C 48.929688 18.675781 50.171875 20.03125 51.082031 21.6875 C 52.175781 23.648438 52.695312 25.902344 52.609375 28.382812 C 52.46875 32.699219 50.886719 37.042969 47.875 41.289062 C 46.066406 43.820312 44.105469 46.230469 41.988281 48.515625 L 41.136719 49.457031 L 50.046875 49.457031 L 51.796875 50.632812 L 50.464844 61.070312 Z M 24.476562 61.070312 " fill-opacity="1" fill-rule="nonzero"/><path fill="#8fd5a6" d="M 37.324219 13.363281 C 39.988281 13.363281 42.382812 13.9375 44.457031 15.074219 C 46.582031 16.210938 48.226562 17.835938 49.386719 19.949219 C 50.535156 22.007812 51.070312 24.363281 50.984375 26.941406 C 50.859375 31.355469 49.21875 35.808594 46.152344 40.152344 C 43.929688 43.238281 41.503906 46.152344 38.867188 48.894531 L 50.214844 48.894531 L 48.769531 60.171875 L 22.125 60.171875 L 22.402344 51.121094 L 22.894531 50.492188 C 23.917969 49.203125 25.582031 47.242188 27.839844 44.679688 C 30.09375 42.113281 32.226562 39.664062 33.695312 37.769531 C 35.09375 35.980469 36.304688 34.070312 37.324219 32.039062 C 38.234375 30.234375 38.726562 28.453125 38.78125 26.757812 C 38.796875 26.074219 38.605469 25.453125 38.207031 24.894531 C 38.082031 24.726562 37.828125 24.363281 36.890625 24.363281 C 36.441406 24.363281 35.753906 24.488281 34.886719 25.554688 C 34.023438 26.648438 33.460938 27.882812 33.207031 29.253906 L 32.671875 31.929688 L 21.898438 28.34375 L 22.363281 26.269531 C 22.859375 24.027344 23.746094 21.957031 25.023438 20.046875 C 26.367188 18.035156 28.085938 16.425781 30.179688 15.214844 C 32.308594 13.980469 34.703125 13.363281 37.324219 13.363281 Z M 37.324219 13.363281 " fill-opacity="1" fill-rule="nonzero"/><path fill="#000000" d="M 35.082031 59.011719 C 35.027344 59.011719 34.972656 58.953125 34.929688 59.050781 C 34.921875 59.117188 34.945312 59.167969 35 59.207031 C 35.078125 59.21875 35.128906 59.1875 35.152344 59.109375 C 35.179688 59.039062 35.140625 59.023438 35.082031 59.011719 Z M 35.082031 59.011719 " fill-opacity="1" fill-rule="nonzero"/><path fill="#000000" d="M 28.121094 28.75 C 28.089844 28.71875 28.0625 28.71875 28.023438 28.707031 C 27.980469 28.691406 27.980469 28.734375 28.007812 28.761719 L 28.089844 28.804688 C 28.148438 28.789062 28.160156 28.761719 28.121094 28.75 Z M 28.121094 28.75 " fill-opacity="1" fill-rule="nonzero"/><path fill="#000000" d="M 27.617188 28.648438 L 27.503906 28.648438 L 27.546875 28.707031 L 27.671875 28.707031 Z M 27.617188 28.648438 " fill-opacity="1" fill-rule="nonzero"/><path fill="#000000" d="M 28.386719 29.6875 L 28.386719 29.742188 L 28.429688 29.742188 L 28.429688 29.671875 Z M 28.386719 29.6875 " fill-opacity="1" fill-rule="nonzero"/><path fill="#000000" d="M 32.898438 27.347656 C 32.898438 27.367188 32.902344 27.386719 32.910156 27.402344 L 32.9375 27.402344 C 32.941406 27.382812 32.9375 27.363281 32.925781 27.347656 Z M 32.898438 27.347656 " fill-opacity="1" fill-rule="nonzero"/><path fill="#000000" d="M 30.5 28.902344 C 30.433594 28.96875 30.394531 29.046875 30.390625 29.140625 C 30.5 29.113281 30.53125 29.308594 30.640625 29.222656 C 30.753906 29.140625 30.710938 29.042969 30.65625 28.929688 C 30.601562 28.816406 30.558594 28.847656 30.5 28.902344 Z M 30.5 28.902344 " fill-opacity="1" fill-rule="nonzero"/><path fill="#000000" d="M 25.445312 29.054688 L 25.472656 29.097656 L 25.5 29.070312 L 25.457031 29.027344 Z M 25.445312 29.054688 " fill-opacity="1" fill-rule="nonzero"/><path fill="#000000" d="M 30.601562 16.515625 L 30.601562 16.476562 L 30.542969 16.476562 C 30.542969 16.488281 30.542969 16.515625 30.558594 16.515625 Z M 30.601562 16.515625 " fill-opacity="1" fill-rule="nonzero"/><path fill="#000000" d="M 25.175781 22.359375 C 25.191406 22.289062 25.246094 22.21875 25.148438 22.191406 C 25.105469 22.164062 25.074219 22.175781 25.050781 22.21875 C 25.007812 22.304688 25.078125 22.359375 25.109375 22.429688 Z M 25.175781 22.359375 " fill-opacity="1" fill-rule="nonzero"/><path fill="#000000" d="M 30.601562 27.613281 L 30.558594 27.613281 L 30.558594 27.683594 L 30.601562 27.683594 C 30.605469 27.660156 30.605469 27.636719 30.601562 27.613281 Z M 30.601562 27.613281 " fill-opacity="1" fill-rule="nonzero"/><path fill="#000000" d="M 26.957031 28.035156 C 26.941406 28.035156 26.957031 28.074219 26.972656 28.105469 C 26.984375 28.132812 27.011719 28.171875 27.054688 28.132812 C 27.097656 28.089844 27.039062 28.089844 27.039062 28.0625 C 27.039062 28.035156 26.984375 27.992188 26.957031 28.035156 Z M 26.957031 28.035156 " fill-opacity="1" fill-rule="nonzero"/><path fill="#000000" d="M 31.761719 24.476562 L 31.652344 24.601562 C 31.679688 24.601562 31.707031 24.628906 31.71875 24.613281 C 31.734375 24.601562 31.820312 24.601562 31.804688 24.53125 Z M 31.761719 24.476562 " fill-opacity="1" fill-rule="nonzero"/><path fill="#000000" d="M 32.433594 24.953125 C 32.398438 24.960938 32.378906 24.984375 32.378906 25.019531 C 32.378906 25.078125 32.40625 25.121094 32.476562 25.105469 C 32.546875 25.089844 32.53125 25.078125 32.53125 25.035156 C 32.53125 24.992188 32.503906 24.9375 32.433594 24.953125 Z M 32.433594 24.953125 " fill-opacity="1" fill-rule="nonzero"/><path fill="#000000" d="M 31.511719 30.988281 C 31.511719 31.003906 31.496094 31.019531 31.511719 31.03125 L 31.550781 31.03125 C 31.550781 31.019531 31.566406 31.003906 31.550781 31.003906 Z M 31.511719 30.988281 " fill-opacity="1" fill-rule="nonzero"/><path fill="#000000" d="M 31.117188 16.347656 C 31.105469 16.292969 31.074219 16.238281 31.007812 16.265625 L 30.949219 16.320312 L 31.105469 16.417969 C 31.105469 16.394531 31.113281 16.371094 31.117188 16.347656 Z M 31.117188 16.347656 " fill-opacity="1" fill-rule="nonzero"/><path fill="#000000" d="M 30.976562 27.402344 C 31.007812 27.332031 31.019531 27.277344 30.9375 27.222656 C 30.851562 27.15625 30.761719 27.152344 30.667969 27.207031 C 30.585938 27.261719 30.65625 27.332031 30.667969 27.402344 C 30.675781 27.425781 30.679688 27.449219 30.683594 27.472656 C 30.699219 27.5 30.699219 27.527344 30.710938 27.558594 C 30.726562 27.585938 30.726562 27.710938 30.824219 27.710938 C 30.921875 27.710938 30.9375 27.613281 30.964844 27.558594 C 30.992188 27.5 30.949219 27.445312 30.976562 27.402344 Z M 30.976562 27.402344 " fill-opacity="1" fill-rule="nonzero"/><path fill="#000000" d="M 32.660156 24.476562 L 32.6875 24.503906 L 32.730469 24.460938 C 32.730469 24.460938 32.714844 24.433594 32.703125 24.445312 Z M 32.660156 24.476562 " fill-opacity="1" fill-rule="nonzero"/><path fill="#000000" d="M 31.523438 29.070312 C 31.550781 29.015625 31.550781 28.957031 31.480469 28.945312 L 31.414062 28.945312 C 31.4375 29 31.457031 29.054688 31.46875 29.113281 C 31.496094 29.097656 31.523438 29.085938 31.523438 29.070312 Z M 31.523438 29.070312 " fill-opacity="1" fill-rule="nonzero"/><path fill="#000000" d="M 31.007812 28.578125 C 30.964844 28.59375 30.9375 28.636719 30.976562 28.691406 C 31.019531 28.75 31.035156 28.75 31.0625 28.71875 C 31.089844 28.691406 31.144531 28.664062 31.105469 28.59375 C 31.0625 28.523438 31.046875 28.550781 31.007812 28.578125 Z M 31.007812 28.578125 " fill-opacity="1" fill-rule="nonzero"/><path fill="#000000" d="M 30.921875 26.535156 C 30.90625 26.492188 30.90625 26.449219 30.851562 26.4375 C 30.796875 26.421875 30.808594 26.464844 30.824219 26.476562 C 30.835938 26.492188 30.824219 26.5625 30.878906 26.578125 Z M 30.921875 26.535156 " fill-opacity="1" fill-rule="nonzero"/><path fill="#000000" d="M 31.523438 29.292969 C 31.480469 29.210938 31.355469 29.195312 31.230469 29.253906 C 31.105469 29.308594 31.132812 29.308594 31.160156 29.378906 C 31.1875 29.449219 31.3125 29.460938 31.382812 29.460938 C 31.453125 29.460938 31.480469 29.40625 31.523438 29.378906 C 31.566406 29.351562 31.523438 29.324219 31.523438 29.292969 Z M 31.523438 29.292969 " fill-opacity="1" fill-rule="nonzero"/><path fill="#000000" d="M 29.449219 30.023438 C 29.429688 30.082031 29.425781 30.144531 29.4375 30.207031 C 29.4375 30.246094 29.507812 30.191406 29.535156 30.164062 C 29.5625 30.136719 29.660156 30.09375 29.589844 30.007812 C 29.519531 29.925781 29.519531 29.96875 29.449219 30.023438 Z M 29.449219 30.023438 " fill-opacity="1" fill-rule="nonzero"/><path fill="#000000" d="M 39.371094 15.285156 C 39.382812 15.257812 39.382812 15.226562 39.398438 15.214844 L 39.441406 15.058594 C 39.433594 15.039062 39.417969 15.027344 39.398438 15.019531 C 39.335938 15.101562 39.308594 15.195312 39.3125 15.296875 Z M 39.371094 15.285156 " fill-opacity="1" fill-rule="nonzero"/><path fill="#000000" d="M 39.691406 14.960938 L 39.761719 15.003906 C 39.832031 15.074219 39.902344 15.003906 39.988281 15.003906 C 40.070312 15.003906 39.988281 14.851562 39.902344 14.792969 C 39.820312 14.738281 39.859375 14.765625 39.820312 14.738281 C 39.777344 14.710938 39.707031 14.683594 39.648438 14.78125 C 39.59375 14.878906 39.621094 14.90625 39.691406 14.960938 Z M 39.691406 14.960938 " fill-opacity="1" fill-rule="nonzero"/><path fill="#000000" d="M 37.085938 15.15625 L 37.085938 15.101562 L 37.042969 15.101562 C 37.042969 15.121094 37.046875 15.140625 37.058594 15.15625 C 37.058594 15.15625 37.074219 15.15625 37.085938 15.15625 Z M 37.085938 15.15625 " fill-opacity="1" fill-rule="nonzero"/><path fill="#000000" d="M 37.96875 15.957031 C 38.066406 15.941406 38.09375 15.84375 38.109375 15.773438 C 38.113281 15.71875 38.097656 15.667969 38.066406 15.621094 C 38.066406 15.605469 38.023438 15.605469 37.996094 15.59375 C 37.886719 15.648438 37.84375 15.738281 37.871094 15.859375 C 37.886719 15.914062 37.898438 15.972656 37.96875 15.957031 Z M 37.96875 15.957031 " fill-opacity="1" fill-rule="nonzero"/><path fill="#000000" d="M 38.347656 14.121094 C 38.375 14.191406 38.417969 14.21875 38.515625 14.164062 C 38.613281 14.105469 38.585938 14.050781 38.53125 13.980469 C 38.472656 13.910156 38.5 13.9375 38.5 13.910156 C 38.5 13.882812 38.363281 13.855469 38.292969 13.828125 C 38.222656 13.800781 38.234375 13.96875 38.292969 14.039062 Z M 38.347656 14.121094 " fill-opacity="1" fill-rule="nonzero"/><path fill="#000000" d="M 43.027344 16.347656 C 43.042969 16.308594 43.039062 16.273438 43.011719 16.238281 L 42.957031 16.277344 C 42.957031 16.308594 42.972656 16.347656 42.972656 16.390625 C 42.980469 16.367188 43 16.351562 43.027344 16.347656 Z M 43.027344 16.347656 " fill-opacity="1" fill-rule="nonzero"/><path fill="#000000" d="M 43.011719 17.46875 C 43.070312 17.527344 43.195312 17.496094 43.277344 17.398438 C 43.363281 17.300781 43.347656 17.316406 43.292969 17.257812 C 43.238281 17.203125 43.109375 17.246094 43.027344 17.328125 C 42.941406 17.414062 42.957031 17.414062 43.011719 17.46875 Z M 43.011719 17.46875 " fill-opacity="1" fill-rule="nonzero"/><path fill="#000000" d="M 41.78125 16.195312 L 41.78125 16.152344 L 41.878906 16.125 C 41.921875 16.140625 41.988281 16.167969 42.019531 16.097656 C 42.046875 16.027344 41.976562 16.027344 41.960938 16 C 41.949219 15.972656 41.851562 15.832031 41.738281 15.914062 C 41.625 16 41.695312 16 41.695312 16.054688 L 41.683594 16.054688 C 41.675781 16.078125 41.683594 16.101562 41.695312 16.125 C 41.710938 16.152344 41.738281 16.167969 41.78125 16.195312 Z M 41.78125 16.195312 " fill-opacity="1" fill-rule="nonzero"/><path fill="#000000" d="M 42.328125 15.089844 C 42.328125 15.058594 42.339844 15.03125 42.339844 15.003906 L 42.269531 14.90625 C 42.257812 14.933594 42.25 14.960938 42.242188 14.988281 C 42.257812 15.03125 42.296875 15.046875 42.328125 15.089844 Z M 42.328125 15.089844 " fill-opacity="1" fill-rule="nonzero"/><path fill="#000000" d="M 31.777344 16.515625 C 31.777344 16.5 31.765625 16.488281 31.75 16.488281 C 31.691406 16.488281 31.636719 16.488281 31.652344 16.558594 C 31.664062 16.628906 31.679688 16.613281 31.691406 16.644531 Z M 31.777344 16.515625 " fill-opacity="1" fill-rule="nonzero"/><path fill="#000000" d="M 36.636719 14.808594 C 36.734375 14.808594 36.75 14.710938 36.792969 14.640625 C 36.835938 14.570312 36.734375 14.582031 36.707031 14.613281 C 36.679688 14.640625 36.554688 14.613281 36.566406 14.722656 C 36.582031 14.835938 36.609375 14.808594 36.636719 14.808594 Z M 36.636719 14.808594 " fill-opacity="1" fill-rule="nonzero"/><path fill="#000000" d="M 32.828125 16.320312 C 32.855469 16.335938 32.882812 16.363281 32.898438 16.347656 C 32.910156 16.335938 32.910156 16.277344 32.882812 16.265625 C 32.855469 16.25 32.8125 16.222656 32.8125 16.238281 C 32.8125 16.25 32.785156 16.308594 32.828125 16.320312 Z M 32.828125 16.320312 " fill-opacity="1" fill-rule="nonzero"/><path fill="#000000" d="M 31.1875 16.726562 L 31.144531 16.699219 C 31.144531 16.714844 31.132812 16.726562 31.132812 16.742188 L 31.1875 16.769531 C 31.1875 16.753906 31.203125 16.726562 31.1875 16.726562 Z M 31.1875 16.726562 " fill-opacity="1" fill-rule="nonzero"/><path fill="#000000" d="M 33.472656 14.246094 C 33.527344 14.234375 33.542969 14.207031 33.542969 14.164062 C 33.542969 14.121094 33.515625 14.078125 33.445312 14.09375 C 33.375 14.105469 33.375 14.121094 33.386719 14.164062 C 33.402344 14.207031 33.402344 14.261719 33.472656 14.246094 Z M 33.472656 14.246094 " fill-opacity="1" fill-rule="nonzero"/><path fill="#000000" d="M 33.121094 15.003906 C 33.136719 15.003906 33.136719 14.960938 33.136719 14.933594 C 33.136719 14.90625 33.121094 14.878906 33.078125 14.890625 C 33.039062 14.90625 33.066406 14.933594 33.066406 14.949219 C 33.066406 14.960938 33.078125 15.019531 33.121094 15.003906 Z M 33.121094 15.003906 " fill-opacity="1" fill-rule="nonzero"/><path fill="#000000" d="M 36.21875 15.773438 L 36.191406 15.773438 L 36.160156 15.832031 L 36.203125 15.832031 C 36.203125 15.816406 36.21875 15.800781 36.21875 15.773438 Z M 36.21875 15.773438 " fill-opacity="1" fill-rule="nonzero"/><path fill="#000000" d="M 35.867188 14.234375 C 35.855469 14.207031 35.855469 14.164062 35.839844 14.164062 C 35.804688 14.140625 35.769531 14.128906 35.726562 14.136719 C 35.742188 14.148438 35.742188 14.191406 35.753906 14.191406 C 35.769531 14.191406 35.824219 14.21875 35.867188 14.234375 Z M 35.867188 14.234375 " fill-opacity="1" fill-rule="nonzero"/><path fill="#000000" d="M 34.128906 15.074219 C 34.199219 15.046875 34.242188 15.003906 34.1875 14.933594 C 34.128906 14.863281 34.089844 14.90625 34.046875 14.933594 C 34.003906 14.960938 33.949219 15.019531 34.003906 15.089844 C 34.058594 15.15625 34.089844 15.101562 34.128906 15.074219 Z M 34.128906 15.074219 " fill-opacity="1" fill-rule="nonzero"/><path fill="#000000" d="M 33.90625 15.214844 C 33.921875 15.199219 33.949219 15.171875 33.933594 15.15625 C 33.921875 15.144531 33.890625 15.128906 33.851562 15.15625 C 33.808594 15.1875 33.808594 15.199219 33.820312 15.214844 C 33.835938 15.226562 33.863281 15.242188 33.90625 15.214844 Z M 33.90625 15.214844 " fill-opacity="1" fill-rule="nonzero"/><path fill="#000000" d="M 33.457031 23.632812 L 33.34375 23.691406 C 33.386719 23.703125 33.414062 23.734375 33.429688 23.71875 C 33.46875 23.703125 33.5 23.679688 33.527344 23.648438 C 33.5 23.648438 33.472656 23.621094 33.457031 23.632812 Z M 33.457031 23.632812 " fill-opacity="1" fill-rule="nonzero"/><path fill="#000000" d="M 34.914062 39.675781 C 34.914062 39.664062 34.914062 39.632812 34.902344 39.632812 L 34.84375 39.632812 L 34.84375 39.675781 Z M 34.914062 39.675781 " fill-opacity="1" fill-rule="nonzero"/><path fill="#000000" d="M 35.726562 36.242188 C 35.824219 36.1875 35.753906 36.144531 35.726562 36.089844 C 35.699219 36.035156 35.671875 36.003906 35.617188 36.046875 C 35.558594 36.089844 35.585938 36.144531 35.617188 36.203125 C 35.644531 36.257812 35.671875 36.285156 35.726562 36.242188 Z M 35.726562 36.242188 " fill-opacity="1" fill-rule="nonzero"/><path fill="#000000" d="M 34.703125 38.148438 L 34.703125 38.105469 L 34.664062 38.105469 L 34.664062 38.136719 Z M 34.703125 38.148438 " fill-opacity="1" fill-rule="nonzero"/><path fill="#000000" d="M 30.667969 43.796875 C 30.710938 43.765625 30.726562 43.699219 30.699219 43.683594 C 30.667969 43.667969 30.613281 43.515625 30.5 43.585938 C 30.390625 43.65625 30.429688 43.683594 30.460938 43.699219 C 30.488281 43.710938 30.558594 43.878906 30.667969 43.796875 Z M 30.667969 43.796875 " fill-opacity="1" fill-rule="nonzero"/><path fill="#000000" d="M 31.820312 41.945312 C 31.921875 41.988281 32.007812 41.96875 32.085938 41.890625 C 32.183594 41.765625 32.171875 41.652344 32.042969 41.554688 C 31.972656 41.484375 31.929688 41.511719 31.886719 41.582031 C 31.847656 41.652344 31.71875 41.902344 31.820312 41.945312 Z M 31.820312 41.945312 " fill-opacity="1" fill-rule="nonzero"/><path fill="#000000" d="M 36.078125 35.292969 C 36.132812 35.261719 36.21875 35.261719 36.191406 35.164062 C 36.160156 35.066406 36.007812 35.054688 35.992188 35.082031 L 35.921875 35.191406 C 35.992188 35.304688 36.035156 35.332031 36.078125 35.292969 Z M 36.078125 35.292969 " fill-opacity="1" fill-rule="nonzero"/><path fill="#000000" d="M 36.300781 35.09375 C 36.402344 35.070312 36.507812 35.050781 36.609375 35.039062 C 36.636719 35.039062 36.679688 34.996094 36.695312 34.96875 C 36.75 34.8125 36.730469 34.667969 36.636719 34.535156 C 36.582031 34.464844 36.496094 34.410156 36.429688 34.339844 C 36.359375 34.269531 36.316406 34.28125 36.261719 34.351562 L 36.078125 34.5625 C 35.964844 34.703125 35.992188 34.84375 36.175781 34.996094 C 36.359375 35.152344 36.261719 35.109375 36.300781 35.09375 Z M 36.300781 35.09375 " fill-opacity="1" fill-rule="nonzero"/><path fill="#000000" d="M 37.03125 33.386719 L 37.003906 33.386719 C 36.984375 33.398438 36.972656 33.417969 36.972656 33.441406 L 37.003906 33.441406 Z M 37.03125 33.386719 " fill-opacity="1" fill-rule="nonzero"/><path fill="#000000" d="M 36.484375 35.765625 C 36.359375 35.65625 36.316406 35.765625 36.246094 35.835938 C 36.175781 35.90625 36.148438 35.921875 36.191406 35.976562 C 36.230469 36.035156 36.273438 36.046875 36.328125 36.035156 C 36.449219 36.039062 36.566406 36.03125 36.679688 36.003906 C 36.765625 35.964844 36.804688 35.851562 36.863281 35.765625 L 36.652344 35.765625 C 36.597656 35.765625 36.511719 35.796875 36.484375 35.765625 Z M 36.484375 35.765625 " fill-opacity="1" fill-rule="nonzero"/><path fill="#000000" d="M 29.675781 45.460938 C 29.730469 45.449219 29.757812 45.421875 29.730469 45.363281 C 29.722656 45.308594 29.695312 45.292969 29.648438 45.324219 C 29.605469 45.335938 29.5625 45.363281 29.605469 45.421875 C 29.597656 45.441406 29.605469 45.457031 29.625 45.46875 C 29.640625 45.480469 29.660156 45.476562 29.675781 45.460938 Z M 29.675781 45.460938 " fill-opacity="1" fill-rule="nonzero"/><path fill="#000000" d="M 28.230469 46.386719 C 28.273438 46.402344 28.289062 46.375 28.300781 46.332031 C 28.308594 46.242188 28.277344 46.171875 28.203125 46.121094 C 28.191406 46.105469 28.160156 46.121094 28.148438 46.121094 C 28.128906 46.222656 28.160156 46.3125 28.230469 46.386719 Z M 28.230469 46.386719 " fill-opacity="1" fill-rule="nonzero"/><path fill="#000000" d="M 26.691406 46.582031 C 26.691406 46.527344 26.664062 46.484375 26.605469 46.5 L 26.535156 46.527344 L 26.664062 46.640625 C 26.675781 46.625 26.6875 46.605469 26.691406 46.582031 Z M 26.691406 46.582031 " fill-opacity="1" fill-rule="nonzero"/><path fill="#000000" d="M 25.667969 49.988281 L 25.597656 49.988281 C 25.585938 50.046875 25.582031 50.109375 25.582031 50.171875 L 25.667969 50.140625 C 25.703125 50.128906 25.71875 50.101562 25.71875 50.066406 C 25.71875 50.027344 25.703125 50.003906 25.667969 49.988281 Z M 25.667969 49.988281 " fill-opacity="1" fill-rule="nonzero"/><path fill="#000000" d="M 26.199219 48.515625 C 26.25 48.570312 26.289062 48.625 26.328125 48.683594 C 26.4375 48.824219 26.566406 48.980469 26.816406 48.910156 C 27.070312 48.839844 27.097656 48.742188 27.070312 48.515625 C 27.039062 48.292969 27.027344 48.390625 27.054688 48.363281 C 27.082031 48.335938 27.011719 48.125 26.902344 48.054688 C 26.78125 47.992188 26.65625 47.960938 26.523438 47.957031 C 26.410156 47.941406 26.269531 48.054688 26.144531 48.125 C 26.019531 48.195312 25.988281 48.40625 26.199219 48.515625 Z M 26.199219 48.515625 " fill-opacity="1" fill-rule="nonzero"/><path fill="#000000" d="M 25.039062 51.640625 C 25.050781 51.628906 25.050781 51.597656 25.066406 51.585938 C 25.078125 51.570312 25.023438 51.570312 25.023438 51.585938 C 25.023438 51.597656 25.007812 51.628906 24.996094 51.640625 C 24.980469 51.65625 25.039062 51.65625 25.039062 51.640625 Z M 25.039062 51.640625 " fill-opacity="1" fill-rule="nonzero"/><path fill="#000000" d="M 27.601562 47.1875 C 27.628906 47.171875 27.644531 47.128906 27.65625 47.101562 L 27.503906 47.074219 L 27.503906 47.117188 C 27.503906 47.15625 27.53125 47.214844 27.601562 47.1875 Z M 27.601562 47.1875 " fill-opacity="1" fill-rule="nonzero"/><path fill="#000000" d="M 27.921875 47.046875 L 27.867188 47.003906 C 27.847656 47.046875 27.828125 47.089844 27.796875 47.128906 L 27.867188 47.128906 C 27.910156 47.128906 27.953125 47.101562 27.921875 47.046875 Z M 27.921875 47.046875 " fill-opacity="1" fill-rule="nonzero"/><path fill="#000000" d="M 27.683594 45.308594 C 27.714844 45.308594 27.726562 45.238281 27.753906 45.195312 C 27.785156 45.15625 27.65625 45.085938 27.558594 45.125 C 27.460938 45.167969 27.503906 45.167969 27.53125 45.210938 C 27.554688 45.289062 27.605469 45.320312 27.683594 45.308594 Z M 27.683594 45.308594 " fill-opacity="1" fill-rule="nonzero"/><path fill="#000000" d="M 27.558594 47.902344 C 27.574219 47.902344 27.601562 47.859375 27.585938 47.84375 C 27.574219 47.832031 27.558594 47.789062 27.546875 47.761719 L 27.449219 47.621094 L 27.390625 47.621094 C 27.363281 47.691406 27.515625 47.902344 27.558594 47.902344 Z M 27.558594 47.902344 " fill-opacity="1" fill-rule="nonzero"/><path fill="#000000" d="M 37.226562 33.792969 L 37.226562 33.734375 L 37.183594 33.734375 L 37.183594 33.792969 Z M 37.226562 33.792969 " fill-opacity="1" fill-rule="nonzero"/><path fill="#000000" d="M 37.394531 32.601562 C 37.421875 32.558594 37.546875 32.558594 37.492188 32.460938 C 37.4375 32.363281 37.546875 32.207031 37.367188 32.195312 C 37.183594 32.179688 37.242188 32.140625 37.242188 32.238281 C 37.238281 32.34375 37.242188 32.453125 37.253906 32.558594 C 37.261719 32.589844 37.28125 32.613281 37.3125 32.621094 C 37.34375 32.628906 37.371094 32.625 37.394531 32.601562 Z M 37.394531 32.601562 " fill-opacity="1" fill-rule="nonzero"/><path fill="#000000" d="M 36.539062 22.738281 C 36.449219 22.75 36.359375 22.773438 36.273438 22.808594 C 36.160156 22.859375 36.128906 22.945312 36.175781 23.058594 C 36.203125 23.144531 36.230469 23.15625 36.316406 23.15625 C 36.398438 23.164062 36.476562 23.183594 36.554688 23.214844 L 36.511719 23.214844 C 36.441406 23.320312 36.453125 23.414062 36.554688 23.496094 C 36.597656 23.535156 36.636719 23.648438 36.734375 23.578125 C 36.789062 23.480469 36.808594 23.378906 36.792969 23.269531 C 36.773438 23.238281 36.746094 23.21875 36.707031 23.214844 C 36.792969 23.1875 36.847656 23.089844 36.917969 23.03125 C 36.988281 22.976562 36.933594 22.835938 36.890625 22.765625 C 36.847656 22.695312 36.652344 22.695312 36.539062 22.738281 Z M 36.539062 22.738281 " fill-opacity="1" fill-rule="nonzero"/><path fill="#000000" d="M 34.3125 25.121094 L 34.394531 25.089844 C 34.414062 25.050781 34.429688 25.015625 34.453125 24.980469 L 34.355469 25.007812 Z M 34.3125 25.121094 " fill-opacity="1" fill-rule="nonzero"/><path fill="#000000" d="M 37.871094 23.914062 C 37.816406 23.957031 37.84375 24 37.871094 24.039062 C 37.898438 24.082031 37.941406 24.152344 38.023438 24.082031 C 38.109375 24.011719 38.054688 24 38.011719 23.96875 C 37.96875 23.941406 37.941406 23.84375 37.871094 23.914062 Z M 37.871094 23.914062 " fill-opacity="1" fill-rule="nonzero"/><path fill="#000000" d="M 33.066406 28.171875 C 33.023438 28.171875 32.980469 28.1875 32.980469 28.230469 C 32.957031 28.316406 32.984375 28.375 33.066406 28.410156 C 33.109375 28.410156 33.148438 28.371094 33.207031 28.34375 C 33.261719 28.3125 33.164062 28.1875 33.066406 28.171875 Z M 33.066406 28.171875 " fill-opacity="1" fill-rule="nonzero"/><path fill="#000000" d="M 38.53125 23.578125 C 38.542969 23.578125 38.570312 23.578125 38.570312 23.5625 L 38.570312 23.507812 L 38.542969 23.507812 C 38.53125 23.535156 38.53125 23.550781 38.53125 23.578125 Z M 38.53125 23.578125 " fill-opacity="1" fill-rule="nonzero"/><path fill="#000000" d="M 33.808594 25.441406 C 33.777344 25.519531 33.78125 25.59375 33.820312 25.664062 C 33.9375 25.730469 34.03125 25.707031 34.101562 25.597656 C 34.128906 25.554688 34.160156 25.511719 34.117188 25.457031 C 34.074219 25.398438 33.851562 25.371094 33.808594 25.441406 Z M 33.808594 25.441406 " fill-opacity="1" fill-rule="nonzero"/><path fill="#000000" d="M 33.191406 25.75 C 33.109375 25.734375 32.9375 25.890625 32.96875 25.945312 C 32.996094 26.003906 33.09375 25.972656 33.164062 25.988281 C 33.234375 26.003906 33.246094 25.890625 33.277344 25.835938 C 33.304688 25.777344 33.234375 25.75 33.191406 25.75 Z M 33.191406 25.75 " fill-opacity="1" fill-rule="nonzero"/><path fill="#000000" d="M 33.359375 27.613281 C 33.289062 27.585938 33.261719 27.640625 33.246094 27.683594 C 33.234375 27.726562 33.261719 27.710938 33.261719 27.726562 L 33.414062 27.726562 C 33.40625 27.683594 33.390625 27.644531 33.359375 27.613281 Z M 33.359375 27.613281 " fill-opacity="1" fill-rule="nonzero"/><path fill="#000000" d="M 43.742188 17.300781 C 43.773438 17.269531 43.78125 17.234375 43.769531 17.191406 C 43.734375 17.097656 43.691406 17.007812 43.644531 16.921875 C 43.617188 16.894531 43.582031 16.886719 43.546875 16.894531 C 43.507812 16.917969 43.488281 16.949219 43.488281 16.992188 C 43.523438 17.105469 43.574219 17.207031 43.644531 17.300781 C 43.65625 17.34375 43.714844 17.328125 43.742188 17.300781 Z M 43.742188 17.300781 " fill-opacity="1" fill-rule="nonzero"/><path fill="#000000" d="M 37.84375 22.21875 C 37.785156 22.261719 37.84375 22.304688 37.898438 22.34375 C 37.957031 22.386719 37.984375 22.429688 38.054688 22.34375 C 38.109375 22.269531 38.125 22.183594 38.09375 22.09375 C 38.007812 22.125 37.921875 22.167969 37.84375 22.21875 Z M 37.84375 22.21875 " fill-opacity="1" fill-rule="nonzero"/><path fill="#000000" d="M 37.589844 32.980469 C 37.632812 32.964844 37.675781 32.964844 37.675781 32.910156 L 37.617188 32.882812 C 37.589844 32.894531 37.535156 32.910156 37.546875 32.964844 Z M 37.589844 32.980469 " fill-opacity="1" fill-rule="nonzero"/><path fill="#000000" d="M 37.800781 32.363281 C 37.800781 32.390625 37.871094 32.40625 37.898438 32.40625 C 37.9375 32.382812 37.957031 32.351562 37.957031 32.308594 C 37.9375 32.1875 37.902344 32.074219 37.84375 31.96875 C 37.828125 31.929688 37.785156 31.941406 37.746094 31.957031 C 37.703125 31.984375 37.6875 32.019531 37.703125 32.070312 C 37.730469 32.167969 37.761719 32.265625 37.800781 32.363281 Z M 37.800781 32.363281 " fill-opacity="1" fill-rule="nonzero"/><path fill="#000000" d="M 37.296875 34.535156 C 37.351562 34.589844 37.410156 34.648438 37.492188 34.632812 C 37.609375 34.566406 37.640625 34.476562 37.589844 34.351562 C 37.578125 34.28125 37.546875 34.242188 37.480469 34.269531 C 37.410156 34.296875 37.253906 34.507812 37.296875 34.535156 Z M 37.296875 34.535156 " fill-opacity="1" fill-rule="nonzero"/><path fill="#000000" d="M 37.96875 35.277344 C 37.941406 35.292969 37.914062 35.320312 37.957031 35.347656 L 38.011719 35.347656 C 38.054688 35.332031 38.082031 35.304688 38.039062 35.261719 C 37.996094 35.222656 37.996094 35.261719 37.96875 35.277344 Z M 37.96875 35.277344 " fill-opacity="1" fill-rule="nonzero"/><path fill="#000000" d="M 38.53125 30.679688 L 38.597656 30.679688 C 38.628906 30.667969 38.65625 30.640625 38.628906 30.597656 L 38.558594 30.597656 C 38.515625 30.613281 38.5 30.640625 38.53125 30.679688 Z M 38.53125 30.679688 " fill-opacity="1" fill-rule="nonzero"/><path fill="#000000" d="M 37.941406 34.085938 C 37.984375 34.101562 38.011719 34.085938 38.039062 34.042969 C 38.066406 34.003906 38.011719 33.933594 37.96875 33.902344 L 37.855469 33.875 C 37.886719 33.945312 37.855469 34.042969 37.941406 34.085938 Z M 37.941406 34.085938 " fill-opacity="1" fill-rule="nonzero"/><path fill="#000000" d="M 38.191406 32.070312 C 38.234375 32.125 38.363281 32.109375 38.460938 32.027344 C 38.558594 31.941406 38.542969 31.957031 38.5 31.902344 C 38.460938 31.84375 38.320312 31.84375 38.222656 31.929688 C 38.125 32.011719 38.136719 32 38.191406 32.070312 Z M 38.191406 32.070312 " fill-opacity="1" fill-rule="nonzero"/><path fill="#000000" d="M 38.542969 29.898438 C 38.613281 29.867188 38.597656 29.8125 38.585938 29.757812 C 38.570312 29.699219 38.570312 29.601562 38.460938 29.644531 C 38.347656 29.6875 38.390625 29.714844 38.402344 29.769531 C 38.417969 29.828125 38.429688 29.925781 38.542969 29.898438 Z M 38.542969 29.898438 " fill-opacity="1" fill-rule="nonzero"/><path fill="#000000" d="M 38.179688 31.339844 C 38.191406 31.304688 38.195312 31.265625 38.191406 31.226562 L 38.125 31.285156 C 38.121094 31.320312 38.125 31.359375 38.136719 31.394531 C 38.152344 31.367188 38.179688 31.367188 38.179688 31.339844 Z M 38.179688 31.339844 " fill-opacity="1" fill-rule="nonzero"/><path fill="#000000" d="M 43.726562 18.003906 C 43.753906 18.03125 43.796875 18.03125 43.824219 18.042969 C 43.828125 18.019531 43.824219 17.996094 43.8125 17.972656 C 43.785156 17.945312 43.742188 17.945312 43.699219 17.917969 C 43.65625 17.890625 43.714844 17.988281 43.726562 18.003906 Z M 43.726562 18.003906 " fill-opacity="1" fill-rule="nonzero"/><path fill="#000000" d="M 24.882812 50.003906 C 24.882812 49.988281 24.898438 49.960938 24.898438 49.945312 L 24.769531 49.863281 C 24.769531 49.890625 24.742188 49.933594 24.757812 49.960938 C 24.769531 49.988281 24.828125 50.015625 24.882812 50.003906 Z M 24.882812 50.003906 " fill-opacity="1" fill-rule="nonzero"/><path fill="#000000" d="M 49.136719 49.960938 C 49.191406 50.003906 49.21875 50.070312 49.304688 50.003906 C 49.386719 49.933594 49.316406 49.902344 49.277344 49.863281 C 49.234375 49.820312 49.191406 49.75 49.121094 49.832031 C 49.050781 49.917969 49.09375 49.933594 49.136719 49.960938 Z M 49.136719 49.960938 " fill-opacity="1" fill-rule="nonzero"/><path fill="#000000" d="M 49.835938 50.070312 C 49.835938 50.058594 49.851562 50.03125 49.851562 50.015625 C 49.851562 50.003906 49.792969 49.945312 49.738281 49.960938 C 49.683594 49.972656 49.722656 50.015625 49.722656 50.03125 C 49.722656 50.042969 49.78125 50.101562 49.835938 50.070312 Z M 49.835938 50.070312 " fill-opacity="1" fill-rule="nonzero"/><path fill="#000000" d="M 49.429688 22.917969 C 49.484375 22.960938 49.527344 22.90625 49.554688 22.863281 C 49.582031 22.820312 49.542969 22.820312 49.542969 22.820312 L 49.386719 22.820312 Z M 49.429688 22.917969 " fill-opacity="1" fill-rule="nonzero"/><path fill="#000000" d="M 49.359375 23.746094 L 49.414062 23.773438 C 49.414062 23.761719 49.429688 23.746094 49.414062 23.734375 L 49.375 23.703125 C 49.375 23.71875 49.359375 23.734375 49.359375 23.746094 Z M 49.359375 23.746094 " fill-opacity="1" fill-rule="nonzero"/><path fill="#000000" d="M 46.011719 18.96875 L 45.96875 18.925781 C 45.953125 18.941406 45.941406 18.953125 45.953125 18.953125 C 45.953125 18.976562 45.964844 18.996094 45.984375 19.011719 Z M 46.011719 18.96875 " fill-opacity="1" fill-rule="nonzero"/><path fill="#000000" d="M 48.96875 21.601562 L 48.925781 21.800781 L 49.023438 21.839844 C 49.105469 21.8125 49.09375 21.730469 49.09375 21.660156 C 49.097656 21.597656 49.074219 21.550781 49.023438 21.519531 L 48.910156 21.519531 C 48.925781 21.546875 48.925781 21.589844 48.953125 21.617188 Z M 48.96875 21.601562 " fill-opacity="1" fill-rule="nonzero"/><path fill="#000000" d="M 46.613281 19.261719 C 46.667969 19.25 46.710938 19.234375 46.699219 19.152344 C 46.683594 19.066406 46.65625 19.09375 46.597656 19.09375 C 46.542969 19.09375 46.515625 19.125 46.53125 19.207031 C 46.542969 19.292969 46.570312 19.277344 46.613281 19.261719 Z M 46.613281 19.261719 " fill-opacity="1" fill-rule="nonzero"/><path fill="#000000" d="M 45.589844 16.039062 C 45.617188 16.070312 45.660156 16.070312 45.703125 16.082031 C 45.746094 16.097656 45.730469 15.914062 45.648438 15.859375 C 45.5625 15.800781 45.578125 15.84375 45.546875 15.886719 C 45.519531 15.929688 45.546875 16 45.589844 16.039062 Z M 45.589844 16.039062 " fill-opacity="1" fill-rule="nonzero"/><path fill="#000000" d="M 46.234375 20.019531 C 46.222656 19.964844 46.207031 19.90625 46.136719 19.9375 L 46.066406 19.976562 L 46.222656 20.089844 C 46.222656 20.066406 46.230469 20.042969 46.234375 20.019531 Z M 46.234375 20.019531 " fill-opacity="1" fill-rule="nonzero"/><path fill="#000000" d="M 48.617188 19.292969 C 48.632812 19.261719 48.617188 19.222656 48.617188 19.179688 C 48.617188 19.136719 48.5625 19.222656 48.5625 19.234375 C 48.554688 19.273438 48.554688 19.308594 48.5625 19.347656 C 48.574219 19.332031 48.617188 19.320312 48.617188 19.292969 Z M 48.617188 19.292969 " fill-opacity="1" fill-rule="nonzero"/><path fill="#000000" d="M 47.46875 23.074219 C 47.453125 23.074219 47.453125 23.117188 47.453125 23.144531 C 47.453125 23.171875 47.480469 23.214844 47.539062 23.199219 L 47.539062 23.117188 C 47.523438 23.074219 47.511719 23.046875 47.46875 23.074219 Z M 47.46875 23.074219 " fill-opacity="1" fill-rule="nonzero"/><path fill="#000000" d="M 47.734375 20.230469 C 47.902344 20.230469 48.042969 20.074219 48.253906 20.144531 C 48.375 20.132812 48.460938 20.066406 48.503906 19.949219 C 48.519531 19.921875 48.503906 19.878906 48.492188 19.824219 C 48.421875 19.515625 47.875 19.445312 47.679688 19.628906 L 47.523438 19.753906 C 47.410156 19.835938 47.398438 19.921875 47.480469 20.117188 C 47.566406 20.3125 47.609375 20.242188 47.734375 20.230469 Z M 47.734375 20.230469 " fill-opacity="1" fill-rule="nonzero"/><path fill="#000000" d="M 48.125 20.523438 L 48.195312 20.523438 L 48.195312 20.496094 L 48.140625 20.496094 C 48.140625 20.507812 48.132812 20.515625 48.125 20.523438 Z M 48.125 20.523438 " fill-opacity="1" fill-rule="nonzero"/><path fill="#000000" d="M 32.015625 24.40625 C 32.042969 24.445312 32.097656 24.375 32.140625 24.347656 C 32.183594 24.320312 32.253906 24.140625 32.238281 24.011719 C 32.234375 23.949219 32.203125 23.90625 32.140625 23.886719 C 32.042969 24 31.957031 24.125 31.875 24.238281 C 31.789062 24.347656 31.957031 24.347656 32.015625 24.40625 Z M 32.015625 24.40625 " fill-opacity="1" fill-rule="nonzero"/><path fill="#000000" d="M 40.730469 28.214844 C 40.714844 28.230469 40.699219 28.242188 40.714844 28.257812 C 40.730469 28.273438 40.730469 28.285156 40.742188 28.300781 L 40.742188 28.214844 Z M 40.730469 28.214844 " fill-opacity="1" fill-rule="nonzero"/><path fill="#000000" d="M 39.34375 22.90625 C 39.273438 23.074219 39.3125 23.226562 39.414062 23.226562 C 39.496094 23.238281 39.554688 23.203125 39.59375 23.128906 C 39.523438 23.03125 39.441406 22.9375 39.355469 22.851562 C 39.34375 22.863281 39.34375 22.878906 39.34375 22.90625 Z M 39.34375 22.90625 " fill-opacity="1" fill-rule="nonzero"/><path fill="#000000" d="M 31.257812 25.359375 C 31.289062 25.40625 31.328125 25.433594 31.382812 25.441406 C 31.441406 25.457031 31.496094 25.46875 31.511719 25.386719 C 31.523438 25.300781 31.582031 25.273438 31.496094 25.21875 L 31.382812 25.175781 C 31.34375 25.175781 31.300781 25.148438 31.273438 25.160156 L 31.214844 25.246094 Z M 31.257812 25.359375 " fill-opacity="1" fill-rule="nonzero"/><path fill="#000000" d="M 30.136719 28.003906 C 30.132812 28.042969 30.125 28.082031 30.109375 28.117188 C 30.171875 28.09375 30.183594 28.054688 30.136719 28.003906 Z M 30.136719 28.003906 " fill-opacity="1" fill-rule="nonzero"/><path fill="#000000" d="M 39.480469 57.664062 L 39.441406 57.664062 C 39.453125 57.664062 39.46875 57.679688 39.480469 57.664062 Z M 39.480469 57.664062 " fill-opacity="1" fill-rule="nonzero"/><path fill="#000000" d="M 46.640625 57.566406 C 46.683594 57.554688 46.726562 57.511719 46.710938 57.484375 C 46.699219 57.457031 46.699219 57.300781 46.570312 57.328125 L 46.515625 57.355469 L 46.515625 57.425781 C 46.542969 57.496094 46.542969 57.582031 46.640625 57.566406 Z M 46.640625 57.566406 " fill-opacity="1" fill-rule="nonzero"/><path fill="#000000" d="M 27 49.21875 C 26.9375 49.265625 26.917969 49.324219 26.941406 49.398438 L 27.195312 49.089844 C 27.121094 49.117188 27.054688 49.160156 27 49.21875 Z M 27 49.21875 " fill-opacity="1" fill-rule="nonzero"/><path fill="#000000" d="M 30.753906 44.972656 C 30.726562 44.929688 30.683594 44.902344 30.640625 44.945312 C 30.601562 44.984375 30.601562 45.015625 30.613281 45.042969 L 30.667969 45.085938 Z M 30.753906 44.972656 " fill-opacity="1" fill-rule="nonzero"/><path fill="#000000" d="M 47.820312 24.894531 L 47.761719 24.851562 C 47.777344 24.925781 47.789062 25 47.789062 25.078125 C 47.847656 25.019531 47.917969 24.992188 47.820312 24.894531 Z M 47.820312 24.894531 " fill-opacity="1" fill-rule="nonzero"/><path fill="#000000" d="M 23.007812 53.769531 C 22.992188 53.785156 22.980469 53.804688 22.976562 53.828125 C 22.992188 53.855469 23.007812 53.898438 23.046875 53.898438 C 23.089844 53.898438 23.089844 53.855469 23.074219 53.839844 C 23.0625 53.828125 23.0625 53.769531 23.007812 53.769531 Z M 23.007812 53.769531 " fill-opacity="1" fill-rule="nonzero"/><path fill="#000000" d="M 46.261719 20.371094 C 46.347656 20.214844 46.222656 20.132812 46.136719 20.0625 C 46.070312 19.996094 46 19.9375 45.925781 19.878906 C 45.832031 19.820312 45.746094 19.835938 45.675781 19.921875 C 45.660156 19.9375 45.660156 19.9375 45.660156 19.949219 C 45.660156 19.964844 45.953125 20.34375 46.09375 20.550781 C 46.234375 20.761719 46.234375 20.441406 46.261719 20.371094 Z M 46.261719 20.371094 " fill-opacity="1" fill-rule="nonzero"/><path fill="#000000" d="M 35.714844 15.914062 C 35.695312 15.839844 35.652344 15.785156 35.585938 15.746094 C 35.6875 15.75 35.773438 15.71875 35.855469 15.664062 C 35.9375 15.59375 35.992188 15.496094 36.0625 15.425781 C 36.132812 15.355469 36.132812 15.3125 36.0625 15.242188 L 35.824219 15.046875 C 35.671875 14.949219 35.515625 14.976562 35.347656 15.15625 C 35.179688 15.339844 35.238281 15.257812 35.25 15.3125 C 35.265625 15.367188 35.292969 15.453125 35.308594 15.523438 L 35.25 15.496094 C 35.152344 15.4375 35.167969 15.535156 35.140625 15.5625 L 35.027344 15.789062 C 34.992188 15.84375 34.996094 15.894531 35.039062 15.941406 C 35.109375 15.980469 35.15625 15.960938 35.179688 15.886719 C 35.210938 15.773438 35.363281 15.832031 35.40625 15.734375 L 35.53125 15.734375 C 35.488281 15.800781 35.445312 15.859375 35.476562 15.941406 L 35.699219 15.941406 C 35.707031 15.933594 35.710938 15.925781 35.714844 15.914062 Z M 35.714844 15.914062 " fill-opacity="1" fill-rule="nonzero"/><path fill="#000000" d="M 41.078125 16.65625 C 41.175781 16.613281 41.269531 16.5625 41.359375 16.503906 C 41.394531 16.421875 41.414062 16.339844 41.414062 16.25 L 41.246094 16.308594 C 41.191406 16.335938 41.136719 16.390625 41.105469 16.378906 C 41.078125 16.363281 40.96875 16.445312 40.9375 16.515625 C 40.910156 16.585938 40.898438 16.601562 40.910156 16.628906 L 41.039062 16.683594 Z M 41.078125 16.65625 " fill-opacity="1" fill-rule="nonzero"/><path fill="#000000" d="M 35.039062 15.972656 L 34.789062 15.972656 L 34.789062 16.027344 C 34.789062 16.035156 34.792969 16.039062 34.804688 16.039062 L 35.054688 16.011719 C 35.054688 15.996094 35.050781 15.984375 35.039062 15.972656 Z M 35.039062 15.972656 " fill-opacity="1" fill-rule="nonzero"/><path fill="#000000" d="M 33.007812 16.390625 C 32.996094 16.40625 32.996094 16.40625 32.996094 16.417969 L 33.148438 16.378906 C 33.128906 16.351562 33.105469 16.34375 33.074219 16.347656 C 33.046875 16.347656 33.023438 16.363281 33.007812 16.390625 Z M 33.007812 16.390625 " fill-opacity="1" fill-rule="nonzero"/><path fill="#000000" d="M 25.007812 23.664062 C 25.003906 23.6875 25.007812 23.710938 25.023438 23.734375 C 25.050781 23.773438 25.078125 23.800781 25.136719 23.761719 L 25.164062 23.691406 Z M 25.007812 23.664062 " fill-opacity="1" fill-rule="nonzero"/><path fill="#000000" d="M 47.019531 53.140625 C 47.035156 53.140625 47.035156 53.15625 47.046875 53.167969 C 47.0625 53.183594 47.1875 53.253906 47.257812 53.28125 C 47.328125 53.308594 47.371094 53.140625 47.371094 53.054688 C 47.363281 52.980469 47.328125 52.929688 47.257812 52.902344 L 47.089844 52.859375 L 47.019531 52.859375 L 46.992188 53.097656 Z M 47.019531 53.140625 " fill-opacity="1" fill-rule="nonzero"/><path fill="#000000" d="M 47.945312 25.890625 C 47.917969 25.835938 47.957031 25.734375 47.859375 25.707031 C 47.871094 25.792969 47.875 25.875 47.875 25.960938 C 47.917969 25.960938 47.957031 25.917969 47.945312 25.890625 Z M 47.945312 25.890625 " fill-opacity="1" fill-rule="nonzero"/><path fill="#000000" d="M 46.65625 50.058594 C 46.726562 50.015625 46.726562 49.890625 46.65625 49.804688 C 46.585938 49.722656 46.585938 49.652344 46.488281 49.707031 C 46.390625 49.765625 46.390625 49.945312 46.402344 49.972656 C 46.464844 50.070312 46.546875 50.097656 46.65625 50.058594 Z M 46.65625 50.058594 " fill-opacity="1" fill-rule="nonzero"/><path fill="#000000" d="M 47.777344 59.011719 C 47.804688 59.050781 47.859375 59.109375 47.847656 59.152344 C 47.832031 59.191406 47.902344 59.277344 47.988281 59.304688 C 48.070312 59.332031 48.085938 59.359375 48.125 59.304688 C 48.167969 59.25 48.140625 59.222656 48.113281 59.164062 C 48.085938 59.109375 48.027344 58.96875 47.957031 58.914062 C 47.886719 58.855469 47.789062 58.871094 47.707031 58.855469 C 47.730469 58.90625 47.753906 58.957031 47.777344 59.011719 Z M 47.777344 59.011719 " fill-opacity="1" fill-rule="nonzero"/><path fill="#000000" d="M 46.460938 49.21875 C 46.542969 49.289062 46.570312 49.203125 46.613281 49.160156 C 46.65625 49.121094 46.683594 49.078125 46.667969 49.0625 C 46.65625 49.050781 46.515625 49.050781 46.472656 49.089844 C 46.429688 49.132812 46.402344 49.175781 46.460938 49.21875 Z M 46.460938 49.21875 " fill-opacity="1" fill-rule="nonzero"/><path fill="#000000" d="M 47.707031 57.355469 C 47.734375 57.371094 47.777344 57.355469 47.804688 57.355469 L 47.761719 57.300781 C 47.726562 57.28125 47.695312 57.285156 47.664062 57.316406 C 47.679688 57.328125 47.691406 57.355469 47.707031 57.355469 Z M 47.707031 57.355469 " fill-opacity="1" fill-rule="nonzero"/><path fill="#000000" d="M 46.976562 59.050781 C 46.914062 59.109375 46.902344 59.171875 46.9375 59.25 C 46.964844 59.304688 47.019531 59.289062 47.0625 59.261719 C 47.105469 59.234375 47.1875 59.207031 47.132812 59.121094 C 47.097656 59.058594 47.046875 59.035156 46.976562 59.050781 Z M 46.976562 59.050781 " fill-opacity="1" fill-rule="nonzero"/><path fill="#000000" d="M 47.917969 57.203125 C 47.917969 57.203125 47.917969 57.175781 47.902344 57.175781 L 47.847656 57.175781 L 47.847656 57.203125 Z M 47.917969 57.203125 " fill-opacity="1" fill-rule="nonzero"/><path fill="#000000" d="M 43.054688 58.378906 C 43.015625 58.441406 42.992188 58.503906 42.984375 58.578125 C 42.984375 58.605469 43.195312 58.605469 43.222656 58.578125 C 43.25 58.546875 43.207031 58.449219 43.179688 58.394531 C 43.171875 58.367188 43.152344 58.351562 43.121094 58.347656 C 43.09375 58.34375 43.070312 58.355469 43.054688 58.378906 Z M 43.054688 58.378906 " fill-opacity="1" fill-rule="nonzero"/><path fill="#000000" d="M 46.402344 59.851562 C 46.332031 59.867188 46.332031 59.90625 46.347656 59.949219 C 46.402344 60.035156 46.476562 60.058594 46.570312 60.019531 C 46.613281 59.992188 46.628906 59.949219 46.597656 59.921875 C 46.554688 59.839844 46.488281 59.816406 46.402344 59.851562 Z M 46.402344 59.851562 " fill-opacity="1" fill-rule="nonzero"/><path fill="#000000" d="M 47.019531 58.953125 C 47.035156 58.984375 47.035156 59.023438 47.074219 59.023438 C 47.117188 59.023438 47.117188 58.996094 47.105469 58.984375 C 47.089844 58.96875 47.089844 58.914062 47.046875 58.914062 C 47.003906 58.914062 47.019531 58.941406 47.019531 58.953125 Z M 47.019531 58.953125 " fill-opacity="1" fill-rule="nonzero"/><path fill="#000000" d="M 41.960938 51.542969 C 41.949219 51.472656 41.933594 51.417969 41.851562 51.417969 C 41.734375 51.394531 41.65625 51.433594 41.613281 51.542969 C 41.582031 51.597656 41.625 51.628906 41.667969 51.65625 L 42.003906 51.65625 C 41.988281 51.613281 41.960938 51.585938 41.960938 51.542969 Z M 41.960938 51.542969 " fill-opacity="1" fill-rule="nonzero"/><path fill="#000000" d="M 42.523438 59.164062 C 42.480469 59.191406 42.480469 59.222656 42.507812 59.25 C 42.535156 59.277344 42.550781 59.390625 42.632812 59.347656 C 42.71875 59.304688 42.703125 59.289062 42.703125 59.277344 C 42.703125 59.261719 42.59375 59.191406 42.523438 59.164062 Z M 42.523438 59.164062 " fill-opacity="1" fill-rule="nonzero"/><path fill="#000000" d="M 41.078125 50.183594 C 41.132812 50.199219 41.171875 50.1875 41.207031 50.140625 C 41.214844 50.128906 41.222656 50.117188 41.21875 50.101562 L 40.980469 50.015625 C 40.96875 50.070312 40.9375 50.085938 40.9375 50.101562 C 40.9375 50.113281 41.023438 50.183594 41.078125 50.183594 Z M 41.078125 50.183594 " fill-opacity="1" fill-rule="nonzero"/><path fill="#000000" d="M 43.082031 49.359375 C 43.167969 49.34375 43.109375 49.246094 43.097656 49.175781 C 43.066406 49.144531 43.027344 49.132812 42.984375 49.148438 C 42.914062 49.1875 42.84375 49.386719 42.886719 49.425781 C 42.929688 49.46875 43.011719 49.371094 43.082031 49.359375 Z M 43.082031 49.359375 " fill-opacity="1" fill-rule="nonzero"/><path fill="#000000" d="M 46.179688 51.585938 L 46.234375 51.558594 C 46.273438 51.535156 46.277344 51.507812 46.25 51.472656 L 46.179688 51.5 C 46.152344 51.527344 46.136719 51.570312 46.179688 51.585938 Z M 46.179688 51.585938 " fill-opacity="1" fill-rule="nonzero"/><path fill="#000000" d="M 38.78125 47.800781 C 38.847656 47.699219 38.828125 47.617188 38.726562 47.550781 C 38.683594 47.523438 38.640625 47.464844 38.585938 47.523438 C 38.523438 47.617188 38.527344 47.710938 38.597656 47.800781 C 38.65625 47.84375 38.769531 47.832031 38.78125 47.800781 Z M 38.78125 47.800781 " fill-opacity="1" fill-rule="nonzero"/><path fill="#000000" d="M 38.753906 48.488281 C 38.683594 48.515625 38.613281 48.515625 38.585938 48.613281 C 38.558594 48.714844 38.558594 48.699219 38.585938 48.742188 C 38.613281 48.78125 38.667969 48.769531 38.699219 48.753906 C 38.726562 48.742188 38.808594 48.726562 38.835938 48.683594 C 38.863281 48.640625 38.878906 48.59375 38.878906 48.542969 C 38.84375 48.511719 38.800781 48.492188 38.753906 48.488281 Z M 38.753906 48.488281 " fill-opacity="1" fill-rule="nonzero"/><path fill="#000000" d="M 44.257812 51.460938 C 44.316406 51.445312 44.359375 51.402344 44.316406 51.332031 C 44.273438 51.261719 44.257812 51.289062 44.21875 51.289062 C 44.175781 51.289062 44.132812 51.347656 44.175781 51.417969 C 44.183594 51.472656 44.210938 51.488281 44.257812 51.460938 Z M 44.257812 51.460938 " fill-opacity="1" fill-rule="nonzero"/><path fill="#000000" d="M 38.867188 45.96875 C 38.78125 45.925781 38.683594 45.996094 38.640625 46.105469 C 38.597656 46.21875 38.597656 46.207031 38.667969 46.21875 C 38.738281 46.234375 38.808594 46.207031 38.867188 46.148438 C 38.898438 46.109375 38.910156 46.0625 38.90625 46.007812 Z M 38.867188 45.96875 " fill-opacity="1" fill-rule="nonzero"/><path fill="#000000" d="M 45.269531 50.660156 C 45.28125 50.675781 45.308594 50.644531 45.308594 50.632812 C 45.308594 50.617188 45.171875 50.449219 45.101562 50.449219 C 45.03125 50.449219 45.058594 50.492188 45.074219 50.535156 C 45.085938 50.578125 45.183594 50.644531 45.269531 50.660156 Z M 45.269531 50.660156 " fill-opacity="1" fill-rule="nonzero"/><path fill="#000000" d="M 43.644531 51.289062 L 43.585938 51.25 C 43.585938 51.261719 43.582031 51.277344 43.574219 51.289062 L 43.628906 51.332031 C 43.628906 51.316406 43.632812 51.304688 43.644531 51.289062 Z M 43.644531 51.289062 " fill-opacity="1" fill-rule="nonzero"/><path fill="#000000" d="M 43.054688 50.941406 C 43.097656 51.011719 43.140625 50.996094 43.195312 50.953125 C 43.246094 50.917969 43.246094 50.878906 43.195312 50.84375 C 43.167969 50.773438 43.109375 50.800781 43.070312 50.828125 C 43.011719 50.859375 43.007812 50.898438 43.054688 50.941406 Z M 43.054688 50.941406 " fill-opacity="1" fill-rule="nonzero"/><path fill="#000000" d="M 42.074219 58.871094 L 41.933594 59.050781 C 41.960938 59.082031 41.976562 59.109375 42.003906 59.109375 C 42.03125 59.109375 42.089844 59.066406 42.117188 59.011719 C 42.132812 58.964844 42.128906 58.925781 42.101562 58.882812 Z M 42.074219 58.871094 " fill-opacity="1" fill-rule="nonzero"/><path fill="#000000" d="M 32.910156 59.753906 C 32.871094 59.738281 32.8125 59.683594 32.785156 59.738281 C 32.757812 59.796875 32.800781 59.808594 32.800781 59.835938 C 32.800781 59.867188 32.839844 60.003906 32.96875 59.976562 C 33.09375 59.949219 33.023438 59.90625 33.039062 59.851562 C 33.050781 59.796875 32.953125 59.78125 32.910156 59.753906 Z M 32.910156 59.753906 " fill-opacity="1" fill-rule="nonzero"/><path fill="#000000" d="M 32.617188 57.945312 L 32.53125 58.03125 L 32.617188 58.03125 L 32.6875 57.945312 Z M 32.617188 57.945312 " fill-opacity="1" fill-rule="nonzero"/><path fill="#000000" d="M 35.699219 57.972656 C 35.65625 57.972656 35.601562 57.933594 35.558594 58.015625 C 35.527344 58.109375 35.542969 58.191406 35.601562 58.269531 C 35.664062 58.207031 35.726562 58.140625 35.785156 58.070312 C 35.824219 58.015625 35.753906 58 35.699219 57.972656 Z M 35.699219 57.972656 " fill-opacity="1" fill-rule="nonzero"/><path fill="#000000" d="M 34.4375 58.925781 C 34.367188 58.953125 34.242188 58.871094 34.226562 59.011719 C 34.214844 59.089844 34.246094 59.152344 34.3125 59.191406 C 34.4375 59.25 34.410156 59.121094 34.453125 59.066406 C 34.496094 59.011719 34.523438 58.914062 34.4375 58.925781 Z M 34.4375 58.925781 " fill-opacity="1" fill-rule="nonzero"/><path fill="#000000" d="M 24.394531 50.101562 C 24.308594 50.140625 24.253906 50.199219 24.265625 50.296875 C 24.28125 50.394531 24.308594 50.367188 24.378906 50.339844 C 24.457031 50.292969 24.488281 50.230469 24.476562 50.140625 C 24.464844 50.101562 24.433594 50.070312 24.394531 50.101562 Z M 24.394531 50.101562 " fill-opacity="1" fill-rule="nonzero"/><path fill="#000000" d="M 24.660156 50.714844 L 24.730469 50.632812 C 24.703125 50.632812 24.671875 50.617188 24.660156 50.632812 C 24.644531 50.644531 24.617188 50.6875 24.589844 50.714844 Z M 24.660156 50.714844 " fill-opacity="1" fill-rule="nonzero"/><path fill="#000000" d="M 25.457031 58.421875 L 25.457031 58.492188 L 25.5 58.492188 L 25.5 58.4375 Z M 25.457031 58.421875 " fill-opacity="1" fill-rule="nonzero"/><path fill="#000000" d="M 27.585938 58.535156 C 27.484375 58.582031 27.445312 58.660156 27.460938 58.773438 C 27.488281 58.855469 27.617188 58.882812 27.726562 58.816406 C 27.839844 58.746094 27.894531 58.785156 27.855469 58.675781 C 27.78125 58.597656 27.691406 58.550781 27.585938 58.535156 Z M 27.585938 58.535156 " fill-opacity="1" fill-rule="nonzero"/><path fill="#000000" d="M 36.191406 59.964844 C 36.078125 59.953125 35.964844 59.957031 35.855469 59.976562 C 35.8125 59.976562 35.796875 60.035156 35.8125 60.0625 C 35.820312 60.109375 35.847656 60.132812 35.894531 60.132812 L 36.191406 60.132812 C 36.21875 60.132812 36.261719 60.074219 36.261719 60.046875 C 36.253906 60.003906 36.230469 59.976562 36.191406 59.964844 Z M 36.191406 59.964844 " fill-opacity="1" fill-rule="nonzero"/><path fill="#000000" d="M 36.023438 59.683594 C 36.089844 59.65625 36.121094 59.527344 36.0625 59.429688 C 36.007812 59.332031 36.023438 59.332031 35.953125 59.359375 C 35.882812 59.390625 35.855469 59.515625 35.910156 59.613281 C 35.964844 59.710938 35.953125 59.710938 36.023438 59.683594 Z M 36.023438 59.683594 " fill-opacity="1" fill-rule="nonzero"/><path fill="#000000" d="M 40.5625 58.914062 L 40.617188 58.914062 L 40.617188 58.871094 L 40.5625 58.871094 Z M 40.5625 58.914062 " fill-opacity="1" fill-rule="nonzero"/><path fill="#000000" d="M 40.96875 58.40625 L 40.96875 58.464844 L 40.996094 58.464844 C 41.007812 58.449219 40.996094 58.421875 40.996094 58.40625 Z M 40.96875 58.40625 " fill-opacity="1" fill-rule="nonzero"/><path fill="#000000" d="M 41.472656 58.617188 C 41.429688 58.605469 41.375 58.605469 41.375 58.632812 C 41.375 58.660156 41.277344 58.773438 41.375 58.828125 C 41.472656 58.882812 41.472656 58.84375 41.472656 58.816406 C 41.472656 58.785156 41.582031 58.6875 41.472656 58.617188 Z M 41.472656 58.617188 " fill-opacity="1" fill-rule="nonzero"/><path fill="#000000" d="M 40.183594 59.628906 C 40.183594 59.667969 40.183594 59.710938 40.195312 59.726562 C 40.210938 59.738281 40.253906 59.765625 40.28125 59.796875 C 40.308594 59.824219 40.292969 59.726562 40.28125 59.710938 C 40.265625 59.695312 40.226562 59.667969 40.183594 59.628906 Z M 40.183594 59.628906 " fill-opacity="1" fill-rule="nonzero"/><path fill="#000000" d="M 38.390625 58.589844 L 38.429688 58.617188 C 38.445312 58.617188 38.445312 58.605469 38.445312 58.589844 L 38.402344 58.5625 Z M 38.390625 58.589844 " fill-opacity="1" fill-rule="nonzero"/><path fill="#000000" d="M 39.285156 59.867188 C 39.285156 59.875 39.28125 59.886719 39.273438 59.894531 L 39.328125 59.894531 C 39.34375 59.878906 39.34375 59.878906 39.34375 59.867188 Z M 39.285156 59.867188 " fill-opacity="1" fill-rule="nonzero"/><path fill="#000000" d="M 37.085938 58.269531 C 37.074219 58.351562 37.070312 58.4375 37.074219 58.519531 C 37.085938 58.578125 37.140625 58.5625 37.199219 58.535156 C 37.253906 58.507812 37.296875 58.507812 37.269531 58.421875 C 37.242188 58.339844 37.171875 58.296875 37.085938 58.269531 Z M 37.085938 58.269531 " fill-opacity="1" fill-rule="nonzero"/><path fill="#000000" d="M 39.300781 59.613281 L 39.242188 59.613281 C 39.234375 59.625 39.230469 59.640625 39.230469 59.65625 L 39.285156 59.65625 Z M 39.300781 59.613281 " fill-opacity="1" fill-rule="nonzero"/><path fill="#000000" d="M 47.019531 56.601562 C 47.117188 56.5 47.132812 56.386719 47.0625 56.265625 L 46.992188 56.265625 C 46.960938 56.292969 46.9375 56.324219 46.921875 56.363281 L 46.90625 56.363281 C 46.878906 56.390625 46.867188 56.417969 46.894531 56.445312 C 46.886719 56.46875 46.882812 56.492188 46.878906 56.515625 C 46.878906 56.550781 46.886719 56.585938 46.90625 56.613281 C 46.945312 56.625 46.984375 56.621094 47.019531 56.601562 Z M 47.019531 56.601562 " fill-opacity="1" fill-rule="nonzero"/><path fill="#000000" d="M 46.726562 38.246094 C 46.699219 38.273438 46.640625 38.273438 46.640625 38.332031 L 46.699219 38.359375 C 46.738281 38.34375 46.78125 38.332031 46.78125 38.273438 Z M 46.726562 38.246094 " fill-opacity="1" fill-rule="nonzero"/><path fill="#000000" d="M 46.753906 36.972656 C 46.644531 36.96875 46.5625 37.015625 46.515625 37.113281 C 46.519531 37.132812 46.527344 37.152344 46.542969 37.167969 C 46.597656 37.210938 46.796875 37.113281 46.824219 37.027344 C 46.851562 36.945312 46.808594 36.972656 46.753906 36.972656 Z M 46.753906 36.972656 " fill-opacity="1" fill-rule="nonzero"/><path fill="#000000" d="M 46.949219 34.800781 L 46.867188 34.800781 C 46.769531 34.816406 46.769531 34.925781 46.726562 34.984375 C 46.683594 35.039062 46.851562 35.09375 46.9375 35.054688 L 47.046875 35.023438 C 47.117188 35.011719 47.160156 34.984375 47.132812 34.855469 C 47.105469 34.730469 47.035156 34.757812 46.949219 34.800781 Z M 46.949219 34.800781 " fill-opacity="1" fill-rule="nonzero"/><path fill="#000000" d="M 46.640625 36.285156 C 46.574219 36.207031 46.5 36.199219 46.417969 36.257812 C 46.375 36.285156 46.375 36.328125 46.402344 36.382812 L 46.65625 36.355469 C 46.640625 36.34375 46.65625 36.300781 46.640625 36.285156 Z M 46.640625 36.285156 " fill-opacity="1" fill-rule="nonzero"/><path fill="#000000" d="M 45.378906 36.144531 C 45.378906 36.117188 45.378906 36.074219 45.367188 36.074219 L 45.324219 36.046875 C 45.308594 36.0625 45.300781 36.082031 45.296875 36.105469 Z M 45.378906 36.144531 " fill-opacity="1" fill-rule="nonzero"/><path fill="#000000" d="M 46.191406 35.933594 C 46.125 35.976562 46.054688 36.003906 46.054688 36.105469 C 46.046875 36.125 46.042969 36.148438 46.039062 36.171875 L 46.109375 36.171875 C 46.210938 36.132812 46.257812 36.058594 46.25 35.949219 C 46.25 35.949219 46.207031 35.921875 46.191406 35.933594 Z M 46.191406 35.933594 " fill-opacity="1" fill-rule="nonzero"/><path fill="#000000" d="M 45.464844 36.46875 C 45.480469 36.46875 45.492188 36.425781 45.492188 36.425781 C 45.492188 36.425781 45.480469 36.34375 45.421875 36.34375 C 45.367188 36.34375 45.378906 36.371094 45.394531 36.382812 C 45.410156 36.398438 45.410156 36.46875 45.464844 36.46875 Z M 45.464844 36.46875 " fill-opacity="1" fill-rule="nonzero"/><path fill="#000000" d="M 45.828125 37.292969 L 45.898438 37.324219 L 45.898438 37.140625 L 45.84375 37.140625 C 45.773438 37.195312 45.800781 37.238281 45.828125 37.292969 Z M 45.828125 37.292969 " fill-opacity="1" fill-rule="nonzero"/><path fill="#000000" d="M 45.996094 36.832031 C 45.984375 36.847656 45.953125 36.875 45.96875 36.886719 C 45.984375 36.902344 46.023438 36.917969 46.039062 36.886719 C 46.054688 36.859375 46.082031 36.832031 46.066406 36.832031 C 46.054688 36.832031 46.011719 36.804688 45.996094 36.832031 Z M 45.996094 36.832031 " fill-opacity="1" fill-rule="nonzero"/><path fill="#000000" d="M 36.527344 47.355469 C 36.511719 47.382812 36.484375 47.394531 36.46875 47.410156 C 36.507812 47.410156 36.527344 47.390625 36.527344 47.355469 Z M 36.527344 47.355469 " fill-opacity="1" fill-rule="nonzero"/><path fill="#000000" d="M 43.601562 38.917969 C 43.601562 38.878906 43.617188 38.835938 43.617188 38.792969 L 43.515625 38.917969 Z M 43.601562 38.917969 " fill-opacity="1" fill-rule="nonzero"/><path fill="#000000" d="M 35.980469 51.628906 L 35.714844 51.597656 C 35.679688 51.605469 35.65625 51.625 35.644531 51.65625 L 36.023438 51.65625 C 36.023438 51.640625 36.007812 51.640625 35.980469 51.628906 Z M 35.980469 51.628906 " fill-opacity="1" fill-rule="nonzero"/><path fill="#000000" d="M 38.136719 51.585938 C 38.109375 51.542969 38.066406 51.558594 38.039062 51.585938 C 38.007812 51.597656 37.996094 51.621094 37.996094 51.65625 L 38.179688 51.65625 C 38.179688 51.628906 38.164062 51.613281 38.136719 51.585938 Z M 38.136719 51.585938 " fill-opacity="1" fill-rule="nonzero"/><path fill="#000000" d="M 34.367188 49.863281 C 34.449219 49.835938 34.53125 49.800781 34.605469 49.765625 C 34.675781 49.734375 34.691406 49.707031 34.664062 49.625 C 34.632812 49.539062 34.59375 49.46875 34.550781 49.398438 L 34.101562 49.832031 C 34.1875 49.878906 34.277344 49.890625 34.367188 49.863281 Z M 34.367188 49.863281 " fill-opacity="1" fill-rule="nonzero"/><path fill="#000000" d="M 37.800781 51.65625 C 37.773438 51.515625 37.617188 51.527344 37.535156 51.472656 C 37.449219 51.417969 37.378906 51.542969 37.339844 51.597656 C 37.296875 51.65625 37.3125 51.640625 37.3125 51.65625 Z M 37.800781 51.65625 " fill-opacity="1" fill-rule="nonzero"/><path fill="#000000" d="M 39.105469 44.566406 C 39.144531 44.566406 39.1875 44.523438 39.160156 44.453125 L 39.0625 44.566406 Z M 39.105469 44.566406 " fill-opacity="1" fill-rule="nonzero"/><path fill="#000000" d="M 45.449219 36.832031 C 45.410156 36.847656 45.394531 36.875 45.410156 36.929688 C 45.421875 36.984375 45.480469 37 45.535156 36.984375 C 45.585938 36.964844 45.601562 36.925781 45.578125 36.875 C 45.554688 36.804688 45.511719 36.792969 45.449219 36.832031 Z M 45.449219 36.832031 " fill-opacity="1" fill-rule="nonzero"/><path fill="#000000" d="M 41.066406 42.171875 C 41.066406 42.210938 41.074219 42.246094 41.09375 42.28125 L 41.09375 42.324219 C 41.097656 42.363281 41.117188 42.398438 41.148438 42.421875 C 41.136719 42.421875 41.136719 42.4375 41.136719 42.449219 C 41.136719 42.464844 41.066406 42.421875 41.050781 42.449219 C 40.964844 42.523438 40.960938 42.605469 41.039062 42.6875 C 41.078125 42.730469 41.121094 42.730469 41.148438 42.703125 C 41.175781 42.679688 41.1875 42.652344 41.191406 42.617188 C 41.21875 42.648438 41.246094 42.6875 41.316406 42.648438 C 41.371094 42.601562 41.40625 42.546875 41.414062 42.476562 L 41.5 42.519531 L 41.515625 42.519531 C 41.527344 42.542969 41.527344 42.566406 41.515625 42.589844 C 41.472656 42.648438 41.554688 42.632812 41.570312 42.617188 C 41.582031 42.605469 41.625 42.578125 41.652344 42.546875 L 41.78125 42.546875 L 41.78125 42.589844 L 41.835938 42.589844 C 41.921875 42.589844 41.996094 42.621094 42.058594 42.675781 C 42.191406 42.726562 42.304688 42.699219 42.394531 42.589844 C 42.425781 42.578125 42.4375 42.519531 42.4375 42.464844 C 42.507812 42.128906 41.976562 41.804688 41.695312 41.917969 L 41.5 41.972656 C 41.390625 41.988281 41.332031 42.046875 41.316406 42.15625 L 41.246094 42.113281 C 41.207031 42.101562 41.175781 42.085938 41.148438 42.101562 L 41.066406 42.199219 Z M 41.066406 42.171875 " fill-opacity="1" fill-rule="nonzero"/><path fill="#000000" d="M 36.652344 47.3125 C 36.695312 47.285156 36.695312 47.242188 36.695312 47.1875 C 36.644531 47.230469 36.597656 47.277344 36.554688 47.324219 C 36.597656 47.339844 36.636719 47.339844 36.652344 47.3125 Z M 36.652344 47.3125 " fill-opacity="1" fill-rule="nonzero"/><path fill="#000000" d="M 44.023438 40.796875 C 43.9375 40.8125 43.910156 40.851562 43.964844 40.953125 C 44.023438 41.050781 44.035156 41.0625 44.105469 41.019531 C 44.175781 40.980469 44.246094 40.9375 44.191406 40.839844 C 44.132812 40.742188 44.105469 40.726562 44.023438 40.796875 Z M 44.023438 40.796875 " fill-opacity="1" fill-rule="nonzero"/><path fill="#000000" d="M 41.332031 43.5 L 41.402344 43.5 L 41.472656 43.417969 L 41.402344 43.417969 C 41.359375 43.429688 41.34375 43.460938 41.332031 43.5 Z M 41.332031 43.5 " fill-opacity="1" fill-rule="nonzero"/><path fill="#000000" d="M 41.21875 43.683594 L 41.21875 43.867188 L 41.289062 43.835938 C 41.375 43.808594 41.332031 43.753906 41.304688 43.710938 Z M 41.21875 43.683594 " fill-opacity="1" fill-rule="nonzero"/><path fill="#000000" d="M 41.078125 44.46875 C 41.023438 44.511719 41.050781 44.550781 41.09375 44.59375 C 41.136719 44.636719 41.148438 44.707031 41.234375 44.636719 C 41.316406 44.566406 41.289062 44.496094 41.261719 44.480469 C 41.207031 44.414062 41.144531 44.410156 41.078125 44.46875 Z M 41.078125 44.46875 " fill-opacity="1" fill-rule="nonzero"/><path fill="#000000" d="M 41.5 42.730469 C 41.394531 42.78125 41.289062 42.792969 41.175781 42.757812 L 41.175781 42.828125 L 41.234375 42.871094 C 41.332031 42.925781 41.429688 42.828125 41.527344 42.84375 C 41.625 42.855469 41.554688 42.800781 41.542969 42.785156 Z M 41.5 42.730469 " fill-opacity="1" fill-rule="nonzero"/><path fill="#000000" d="M 41.640625 44.886719 C 41.625 44.929688 41.5 44.972656 41.582031 45 C 41.667969 45.027344 41.710938 45.15625 41.808594 45.054688 C 41.859375 44.996094 41.863281 44.929688 41.820312 44.859375 C 41.75 44.75 41.695312 44.859375 41.640625 44.886719 Z M 41.640625 44.886719 " fill-opacity="1" fill-rule="nonzero"/><path fill="#000000" d="M 40.027344 45.125 C 40.070312 45.15625 40.085938 45.222656 40.167969 45.167969 C 40.246094 45.113281 40.277344 45.039062 40.265625 44.945312 C 40.179688 44.949219 40.09375 44.964844 40.015625 45 C 39.945312 45.027344 39.988281 45.085938 40.027344 45.125 Z M 40.027344 45.125 " fill-opacity="1" fill-rule="nonzero"/><path fill="#000000" d="M 39.300781 46.261719 L 39.230469 46.234375 C 39.179688 46.1875 39.140625 46.199219 39.117188 46.261719 C 39.089844 46.304688 39.117188 46.332031 39.132812 46.359375 C 39.144531 46.386719 39.160156 46.457031 39.230469 46.441406 L 39.328125 46.402344 C 39.355469 46.375 39.425781 46.375 39.425781 46.316406 C 39.425781 46.261719 39.34375 46.273438 39.300781 46.261719 Z M 39.300781 46.261719 " fill-opacity="1" fill-rule="nonzero"/><path fill="#000000" d="M 40.324219 46.402344 L 40.363281 46.402344 C 40.375 46.382812 40.382812 46.367188 40.378906 46.34375 L 40.351562 46.34375 C 40.335938 46.359375 40.335938 46.375 40.324219 46.402344 Z M 40.324219 46.402344 " fill-opacity="1" fill-rule="nonzero"/><path fill="#000000" d="M 40.503906 45.617188 C 40.421875 45.644531 40.492188 45.714844 40.503906 45.769531 C 40.519531 45.828125 40.574219 45.839844 40.632812 45.8125 C 40.671875 45.796875 40.683594 45.769531 40.671875 45.730469 C 40.644531 45.648438 40.589844 45.613281 40.503906 45.617188 Z M 40.503906 45.617188 " fill-opacity="1" fill-rule="nonzero"/><path fill="#000000" d="M 44.566406 37.460938 C 44.566406 37.492188 44.582031 37.503906 44.582031 37.519531 L 44.625 37.519531 C 44.609375 37.503906 44.609375 37.492188 44.597656 37.460938 Z M 44.566406 37.460938 " fill-opacity="1" fill-rule="nonzero"/><path fill="#000000" d="M 43.839844 41.050781 L 43.839844 41.089844 L 43.882812 41.089844 C 43.882812 41.078125 43.894531 41.0625 43.882812 41.0625 Z M 43.839844 41.050781 " fill-opacity="1" fill-rule="nonzero"/><path fill="#000000" d="M 41.808594 43.613281 C 41.785156 43.675781 41.773438 43.742188 41.78125 43.808594 C 41.78125 43.84375 41.796875 43.863281 41.828125 43.875 C 41.859375 43.886719 41.886719 43.878906 41.90625 43.851562 C 41.960938 43.808594 42.046875 43.796875 42.019531 43.699219 C 41.988281 43.597656 41.808594 43.585938 41.808594 43.613281 Z M 41.808594 43.613281 " fill-opacity="1" fill-rule="nonzero"/><path fill="#000000" d="M 39.328125 47.632812 L 39.328125 47.675781 L 39.371094 47.675781 C 39.371094 47.648438 39.371094 47.632812 39.355469 47.621094 Z M 39.328125 47.632812 " fill-opacity="1" fill-rule="nonzero"/><path fill="#000000" d="M 44.050781 38.90625 L 43.769531 38.988281 C 43.683594 39.003906 43.65625 39.046875 43.683594 39.128906 C 43.703125 39.226562 43.734375 39.320312 43.769531 39.410156 C 43.839844 39.578125 43.964844 39.632812 44.203125 39.5625 C 44.230469 39.5625 44.359375 39.550781 44.371094 39.507812 C 44.394531 39.402344 44.429688 39.300781 44.46875 39.199219 C 44.488281 39.160156 44.480469 39.121094 44.457031 39.085938 C 44.351562 38.957031 44.214844 38.898438 44.050781 38.90625 Z M 44.050781 38.90625 " fill-opacity="1" fill-rule="nonzero"/><path fill="#000000" d="M 43.980469 39.914062 C 43.964844 39.859375 43.921875 39.816406 43.910156 39.832031 C 43.894531 39.84375 43.839844 39.96875 43.851562 40.027344 C 43.867188 40.082031 43.910156 40.109375 43.980469 40.082031 C 44.050781 40.054688 44.007812 39.96875 43.980469 39.914062 Z M 43.980469 39.914062 " fill-opacity="1" fill-rule="nonzero"/><path fill="#000000" d="M 42.339844 43.207031 C 42.328125 43.277344 42.257812 43.320312 42.285156 43.402344 C 42.3125 43.488281 42.410156 43.429688 42.480469 43.417969 C 42.539062 43.410156 42.550781 43.382812 42.523438 43.332031 C 42.496094 43.25 42.425781 43.234375 42.339844 43.207031 Z M 42.339844 43.207031 " fill-opacity="1" fill-rule="nonzero"/><path fill="#000000" d="M 41.921875 42.828125 C 41.878906 42.882812 41.90625 42.914062 41.949219 42.953125 C 41.988281 42.996094 42.03125 43.066406 42.101562 42.984375 C 42.152344 42.925781 42.15625 42.863281 42.117188 42.800781 C 42.074219 42.757812 41.988281 42.773438 41.921875 42.828125 Z M 41.921875 42.828125 " fill-opacity="1" fill-rule="nonzero"/><path fill="#000000" d="M 42.71875 41.988281 L 42.800781 41.960938 L 42.84375 41.847656 L 42.761719 41.875 Z M 42.71875 41.988281 " fill-opacity="1" fill-rule="nonzero"/><path fill="#000000" d="M 43.25 41.960938 C 43.207031 41.988281 43.140625 41.863281 43.097656 41.972656 C 43.0625 42.070312 43.035156 42.167969 43.011719 42.269531 C 43.011719 42.351562 43.097656 42.367188 43.152344 42.410156 C 43.195312 42.4375 43.230469 42.433594 43.265625 42.394531 C 43.363281 42.296875 43.347656 42.15625 43.378906 42.03125 C 43.40625 41.902344 43.308594 41.945312 43.25 41.960938 Z M 43.25 41.960938 " fill-opacity="1" fill-rule="nonzero"/><path fill="#000000" d="M 48.226562 33.804688 C 48.203125 33.859375 48.191406 33.914062 48.195312 33.972656 C 48.242188 34.085938 48.320312 34.109375 48.421875 34.042969 C 48.492188 34.015625 48.460938 33.960938 48.433594 33.917969 C 48.40625 33.875 48.292969 33.820312 48.226562 33.804688 Z M 48.226562 33.804688 " fill-opacity="1" fill-rule="nonzero"/><path fill="#000000" d="M 48.363281 25.230469 C 48.351562 25.246094 48.335938 25.273438 48.351562 25.273438 L 48.394531 25.316406 L 48.394531 25.289062 Z M 48.363281 25.230469 " fill-opacity="1" fill-rule="nonzero"/><path fill="#000000" d="M 48.519531 32.265625 C 48.546875 32.308594 48.574219 32.347656 48.632812 32.292969 C 48.644531 32.277344 48.65625 32.257812 48.660156 32.238281 L 48.503906 32.207031 C 48.503906 32.230469 48.507812 32.246094 48.519531 32.265625 Z M 48.519531 32.265625 " fill-opacity="1" fill-rule="nonzero"/><path fill="#000000" d="M 48.730469 24.824219 L 48.714844 24.824219 C 48.613281 24.765625 48.527344 24.777344 48.449219 24.867188 C 48.40625 24.894531 48.363281 24.9375 48.40625 24.992188 C 48.449219 25.050781 48.660156 25.121094 48.714844 25.050781 C 48.738281 25.011719 48.746094 24.96875 48.742188 24.921875 L 48.785156 24.921875 C 48.800781 24.851562 48.769531 24.824219 48.730469 24.824219 Z M 48.730469 24.824219 " fill-opacity="1" fill-rule="nonzero"/><path fill="#000000" d="M 47.929688 21.476562 L 47.988281 21.476562 C 48 21.476562 48 21.449219 48.015625 21.433594 L 47.945312 21.433594 C 47.945312 21.449219 47.929688 21.460938 47.929688 21.476562 Z M 47.929688 21.476562 " fill-opacity="1" fill-rule="nonzero"/><path fill="#000000" d="M 48.433594 24.097656 C 48.574219 24.125 48.632812 24.011719 48.699219 23.929688 L 48.785156 23.902344 C 48.980469 23.832031 48.882812 23.632812 48.953125 23.507812 C 49.023438 23.382812 48.785156 23.257812 48.617188 23.226562 C 48.457031 23.179688 48.328125 23.222656 48.226562 23.355469 C 48.078125 23.539062 48.074219 23.722656 48.210938 23.914062 C 48.28125 23.984375 48.335938 24.082031 48.433594 24.097656 Z M 48.433594 24.097656 " fill-opacity="1" fill-rule="nonzero"/><path fill="#000000" d="M 48.183594 22.105469 C 48.175781 22.085938 48.171875 22.0625 48.167969 22.039062 C 48.15625 22.007812 48.125 21.980469 48.085938 22.007812 C 48.042969 22.039062 48.085938 22.066406 48.097656 22.078125 C 48.113281 22.09375 48.140625 22.136719 48.183594 22.105469 Z M 48.183594 22.105469 " fill-opacity="1" fill-rule="nonzero"/><path fill="#000000" d="M 50.046875 28.75 L 50.15625 28.707031 C 50.15625 28.664062 50.171875 28.636719 50.171875 28.609375 L 50.058594 28.664062 C 50.046875 28.679688 50.058594 28.71875 50.046875 28.75 Z M 50.046875 28.75 " fill-opacity="1" fill-rule="nonzero"/><path fill="#000000" d="M 50.578125 26.714844 C 50.496094 26.6875 50.464844 26.785156 50.425781 26.84375 C 50.382812 26.898438 50.425781 26.914062 50.464844 26.941406 C 50.507812 26.96875 50.59375 26.871094 50.648438 26.828125 C 50.703125 26.785156 50.632812 26.757812 50.578125 26.714844 Z M 50.578125 26.714844 " fill-opacity="1" fill-rule="nonzero"/><path fill="#000000" d="M 50.15625 22.792969 L 50.214844 22.835938 C 50.285156 22.863281 50.296875 22.808594 50.328125 22.765625 C 50.355469 22.722656 50.3125 22.710938 50.296875 22.695312 Z M 50.15625 22.792969 " fill-opacity="1" fill-rule="nonzero"/><path fill="#000000" d="M 49.375 22.484375 L 49.445312 22.445312 C 49.582031 22.332031 49.457031 22.191406 49.5 22.066406 C 49.542969 21.9375 49.289062 21.882812 49.136719 21.898438 C 48.984375 21.886719 48.882812 21.953125 48.828125 22.09375 C 48.734375 22.285156 48.773438 22.449219 48.9375 22.582031 C 49.007812 22.644531 49.085938 22.679688 49.175781 22.695312 C 49.304688 22.683594 49.316406 22.570312 49.375 22.484375 Z M 49.375 22.484375 " fill-opacity="1" fill-rule="nonzero"/><path fill="#000000" d="M 49.359375 31.089844 C 49.402344 31.03125 49.527344 31.003906 49.457031 30.890625 C 49.386719 30.78125 49.375 30.835938 49.34375 30.863281 C 49.316406 30.890625 49.191406 30.949219 49.261719 31.046875 C 49.332031 31.144531 49.34375 31.117188 49.359375 31.089844 Z M 49.359375 31.089844 " fill-opacity="1" fill-rule="nonzero"/><path fill="#000000" d="M 49.050781 30.472656 C 49.050781 30.492188 49.046875 30.511719 49.039062 30.527344 L 49.078125 30.527344 C 49.089844 30.503906 49.09375 30.480469 49.09375 30.457031 Z M 49.050781 30.472656 " fill-opacity="1" fill-rule="nonzero"/><path fill="#000000" d="M 49.960938 25.917969 C 49.949219 25.972656 49.878906 26.015625 49.890625 26.085938 L 49.976562 26.085938 C 50.046875 26.058594 50.046875 26.003906 50.019531 25.945312 Z M 49.960938 25.917969 " fill-opacity="1" fill-rule="nonzero"/><path fill="#000000" d="M 48.671875 28.957031 C 48.65625 29.007812 48.644531 29.058594 48.644531 29.113281 C 48.636719 29.148438 48.640625 29.179688 48.660156 29.210938 C 48.617188 29.265625 48.660156 29.308594 48.714844 29.335938 C 48.769531 29.363281 48.757812 29.324219 48.769531 29.324219 C 48.769531 29.300781 48.761719 29.277344 48.757812 29.253906 L 48.785156 29.253906 L 48.882812 29.195312 L 48.910156 29.195312 C 49.007812 29.15625 48.996094 29.070312 49.023438 29 C 49.050781 28.929688 48.898438 28.902344 48.828125 28.886719 C 48.765625 28.890625 48.714844 28.914062 48.671875 28.957031 Z M 48.671875 28.957031 " fill-opacity="1" fill-rule="nonzero"/><path fill="#000000" d="M 49.5 32.488281 L 49.375 32.53125 C 49.316406 32.546875 49.246094 32.546875 49.246094 32.613281 C 49.246094 32.683594 49.316406 32.726562 49.375 32.753906 C 49.429688 32.78125 49.484375 32.769531 49.542969 32.753906 C 49.597656 32.742188 49.640625 32.714844 49.613281 32.628906 C 49.582031 32.546875 49.597656 32.476562 49.5 32.488281 Z M 49.5 32.488281 " fill-opacity="1" fill-rule="nonzero"/><path fill="#000000" d="M 40.125 27.25 C 40.15625 27.332031 40.226562 27.304688 40.292969 27.304688 C 40.363281 27.304688 40.394531 27.277344 40.40625 27.222656 C 40.421875 27.164062 40.40625 27.179688 40.40625 27.179688 L 40.140625 27.152344 C 40.140625 27.207031 40.113281 27.234375 40.125 27.25 Z M 40.125 27.25 " fill-opacity="1" fill-rule="nonzero"/><path fill="#000000" d="M 39.777344 29.730469 C 39.832031 29.769531 39.875 29.714844 39.902344 29.671875 C 39.929688 29.628906 39.988281 29.574219 39.917969 29.519531 C 39.847656 29.460938 39.820312 29.519531 39.789062 29.5625 C 39.761719 29.601562 39.691406 29.671875 39.777344 29.730469 Z M 39.777344 29.730469 " fill-opacity="1" fill-rule="nonzero"/><path fill="#000000" d="M 39.847656 29.292969 C 39.917969 29.335938 39.945312 29.476562 40.054688 29.394531 C 40.101562 29.363281 40.109375 29.328125 40.085938 29.28125 C 40.027344 29.238281 39.988281 29.125 39.875 29.195312 C 39.761719 29.265625 39.820312 29.28125 39.847656 29.292969 Z M 39.847656 29.292969 " fill-opacity="1" fill-rule="nonzero"/><path fill="#000000" d="M 39.957031 26.632812 L 39.902344 26.632812 L 39.875 26.675781 L 39.945312 26.675781 C 39.945312 26.660156 39.949219 26.644531 39.957031 26.632812 Z M 39.957031 26.632812 " fill-opacity="1" fill-rule="nonzero"/><path fill="#000000" d="M 39.636719 28.480469 C 39.550781 28.34375 39.496094 28.410156 39.441406 28.441406 C 39.382812 28.46875 39.355469 28.496094 39.398438 28.566406 C 39.441406 28.636719 39.511719 28.578125 39.566406 28.550781 C 39.621094 28.523438 39.648438 28.496094 39.636719 28.480469 Z M 39.636719 28.480469 " fill-opacity="1" fill-rule="nonzero"/><path fill="#000000" d="M 39.496094 31.789062 L 39.59375 31.832031 C 39.582031 31.789062 39.582031 31.761719 39.566406 31.746094 L 39.453125 31.71875 C 39.46875 31.746094 39.46875 31.773438 39.496094 31.789062 Z M 39.496094 31.789062 " fill-opacity="1" fill-rule="nonzero"/><path fill="#000000" d="M 40.503906 28.957031 L 40.449219 28.957031 L 40.449219 29 L 40.519531 29 C 40.503906 28.988281 40.519531 28.957031 40.503906 28.957031 Z M 40.503906 28.957031 " fill-opacity="1" fill-rule="nonzero"/><path fill="#000000" d="M 39.761719 28.410156 C 39.777344 28.453125 39.75 28.539062 39.847656 28.539062 C 39.945312 28.539062 40 28.410156 39.988281 28.398438 C 39.972656 28.382812 39.917969 28.300781 39.902344 28.300781 C 39.886719 28.300781 39.734375 28.34375 39.761719 28.410156 Z M 39.761719 28.410156 " fill-opacity="1" fill-rule="nonzero"/><path fill="#000000" d="M 40.378906 25.078125 C 40.421875 25.035156 40.449219 25.007812 40.40625 24.953125 C 40.363281 24.894531 40.292969 24.953125 40.253906 24.980469 C 40.210938 25.007812 40.183594 25.050781 40.195312 25.0625 C 40.210938 25.078125 40.335938 25.105469 40.378906 25.078125 Z M 40.378906 25.078125 " fill-opacity="1" fill-rule="nonzero"/><path fill="#000000" d="M 47.410156 37.113281 C 47.355469 37.15625 47.3125 37.195312 47.382812 37.265625 C 47.453125 37.335938 47.46875 37.265625 47.511719 37.222656 C 47.550781 37.183594 47.609375 37.140625 47.539062 37.085938 C 47.46875 37.027344 47.453125 37.085938 47.410156 37.113281 Z M 47.410156 37.113281 " fill-opacity="1" fill-rule="nonzero"/><path fill="#000000" d="M 47.648438 36.664062 L 47.707031 36.664062 C 47.71875 36.664062 47.71875 36.636719 47.734375 36.636719 L 47.664062 36.636719 C 47.664062 36.648438 47.648438 36.648438 47.648438 36.664062 Z M 47.648438 36.664062 " fill-opacity="1" fill-rule="nonzero"/><path fill="#000000" d="M 47.609375 36.945312 L 47.582031 37 C 47.609375 37.042969 47.636719 37.027344 47.664062 37 L 47.691406 36.945312 C 47.664062 36.902344 47.636719 36.917969 47.609375 36.945312 Z M 47.609375 36.945312 " fill-opacity="1" fill-rule="nonzero"/><path fill="#000000" d="M 47.734375 30.457031 C 47.59375 30.511719 47.59375 30.652344 47.582031 30.78125 C 47.582031 30.890625 47.636719 30.949219 47.75 30.949219 C 47.847656 30.976562 47.886719 30.933594 47.902344 30.851562 C 47.917969 30.765625 47.988281 30.75 48 30.679688 C 48.015625 30.613281 47.929688 30.5 47.875 30.414062 C 47.820312 30.332031 47.789062 30.429688 47.734375 30.457031 Z M 47.734375 30.457031 " fill-opacity="1" fill-rule="nonzero"/><path fill="#000000" d="M 39.003906 27.765625 C 39.019531 27.867188 39.089844 27.808594 39.144531 27.808594 C 39.203125 27.808594 39.242188 27.796875 39.230469 27.710938 C 39.214844 27.628906 39.132812 27.65625 39.074219 27.667969 C 39.019531 27.683594 38.976562 27.683594 39.003906 27.765625 Z M 39.003906 27.765625 " fill-opacity="1" fill-rule="nonzero"/><path fill="#000000" d="M 39.105469 25.089844 C 39.035156 25.078125 38.964844 24.980469 38.894531 25.078125 C 38.824219 25.175781 38.878906 25.191406 38.90625 25.191406 C 38.9375 25.191406 39.046875 25.300781 39.117188 25.191406 C 39.1875 25.078125 39.132812 25.089844 39.105469 25.089844 Z M 39.105469 25.089844 " fill-opacity="1" fill-rule="nonzero"/><path fill="#000000" d="M 38.011719 46.5 C 38.066406 46.414062 38.191406 46.542969 38.222656 46.414062 C 38.25 46.289062 38.164062 46.246094 38.066406 46.207031 C 37.96875 46.164062 37.957031 46.21875 37.941406 46.273438 C 37.925781 46.332031 37.996094 46.511719 38.011719 46.5 Z M 38.011719 46.5 " fill-opacity="1" fill-rule="nonzero"/><path fill="#000000" d="M 37.617188 49.300781 L 37.617188 49.273438 C 37.605469 49.253906 37.585938 49.246094 37.5625 49.246094 L 37.5625 49.273438 Z M 37.617188 49.300781 " fill-opacity="1" fill-rule="nonzero"/><path fill="#000000" d="M 38.164062 49.246094 C 38.207031 49.246094 38.25 49.1875 38.222656 49.160156 C 38.191406 49.132812 38.191406 48.992188 38.082031 49.035156 C 37.96875 49.078125 37.996094 49.089844 38.023438 49.121094 C 38.054688 49.148438 38.054688 49.289062 38.164062 49.246094 Z M 38.164062 49.246094 " fill-opacity="1" fill-rule="nonzero"/><path fill="#000000" d="M 37.253906 50.914062 L 37.324219 50.882812 L 37.253906 50.828125 L 37.171875 50.828125 Z M 37.253906 50.914062 " fill-opacity="1" fill-rule="nonzero"/><path fill="#000000" d="M 36.988281 48.070312 L 37.015625 48.070312 L 36.988281 48.027344 L 36.945312 48.027344 Z M 36.988281 48.070312 " fill-opacity="1" fill-rule="nonzero"/><path fill="#000000" d="M 37.871094 47.648438 C 37.890625 47.699219 37.921875 47.742188 37.96875 47.773438 C 37.996094 47.800781 37.996094 47.730469 38.011719 47.691406 C 38.023438 47.648438 38.054688 47.578125 37.957031 47.550781 C 37.855469 47.523438 37.886719 47.5625 37.871094 47.648438 Z M 37.871094 47.648438 " fill-opacity="1" fill-rule="nonzero"/><path fill="#000000" d="M 47.089844 32.265625 C 47.066406 32.226562 47.035156 32.207031 46.992188 32.207031 L 46.867188 32.574219 L 46.894531 32.628906 C 46.949219 32.585938 47.046875 32.628906 47.105469 32.585938 C 47.160156 32.542969 47.179688 32.488281 47.160156 32.417969 C 47.140625 32.363281 47.117188 32.3125 47.089844 32.265625 Z M 47.089844 32.265625 " fill-opacity="1" fill-rule="nonzero"/><path fill="#000000" d="M 33.863281 50.226562 C 33.851562 50.226562 33.820312 50.210938 33.808594 50.226562 C 33.792969 50.238281 33.792969 50.238281 33.792969 50.253906 L 33.851562 50.253906 C 33.851562 50.242188 33.855469 50.234375 33.863281 50.226562 Z M 33.863281 50.226562 " fill-opacity="1" fill-rule="nonzero"/><path fill="#000000" d="M 33.835938 50.96875 C 33.921875 51.011719 33.976562 51.109375 34.046875 51.179688 C 34.117188 51.25 34.257812 51.191406 34.367188 51.179688 C 34.480469 51.164062 34.464844 51.039062 34.464844 50.953125 C 34.464844 50.871094 34.328125 50.773438 34.226562 50.757812 C 34.128906 50.746094 34.171875 50.660156 34.089844 50.703125 L 33.976562 50.703125 C 33.863281 50.683594 33.796875 50.730469 33.78125 50.84375 C 33.765625 50.898438 33.765625 50.925781 33.835938 50.96875 Z M 33.835938 50.96875 " fill-opacity="1" fill-rule="nonzero"/><path fill="#000000" d="M 34.984375 50.171875 L 34.914062 50.140625 C 34.929688 50.171875 34.9375 50.207031 34.941406 50.238281 L 35.027344 50.269531 Z M 34.984375 50.171875 " fill-opacity="1" fill-rule="nonzero"/><path fill="#000000" d="M 35.195312 50.578125 C 35.179688 50.464844 35.378906 50.476562 35.308594 50.351562 C 35.238281 50.226562 35.140625 50.269531 35.027344 50.308594 C 34.914062 50.351562 34.941406 50.394531 34.984375 50.449219 C 35.039062 50.519531 35.109375 50.5625 35.195312 50.578125 Z M 35.195312 50.578125 " fill-opacity="1" fill-rule="nonzero"/><path fill="#000000" d="M 36.414062 49.890625 C 36.359375 49.960938 36.386719 50.003906 36.441406 50.03125 C 36.457031 50.046875 36.472656 50.054688 36.496094 50.050781 C 36.515625 50.050781 36.53125 50.039062 36.539062 50.015625 C 36.609375 49.960938 36.566406 49.917969 36.527344 49.875 C 36.480469 49.828125 36.445312 49.835938 36.414062 49.890625 Z M 36.414062 49.890625 " fill-opacity="1" fill-rule="nonzero"/><path fill="#000000" d="M 35.824219 48.445312 L 35.785156 48.445312 C 35.78125 48.46875 35.785156 48.484375 35.796875 48.503906 C 35.796875 48.515625 35.824219 48.515625 35.839844 48.515625 C 35.855469 48.515625 35.824219 48.460938 35.824219 48.445312 Z M 35.824219 48.445312 " fill-opacity="1" fill-rule="nonzero"/><path fill="#000000" d="M 35.855469 49.765625 L 35.953125 49.765625 C 35.925781 49.71875 35.902344 49.671875 35.882812 49.625 L 35.824219 49.652344 C 35.8125 49.695312 35.785156 49.75 35.855469 49.765625 Z M 35.855469 49.765625 " fill-opacity="1" fill-rule="nonzero"/><path fill="#000000" d="M 35.390625 49.804688 C 35.417969 49.863281 35.433594 49.917969 35.503906 49.890625 C 35.578125 49.847656 35.613281 49.78125 35.601562 49.695312 C 35.589844 49.640625 35.566406 49.59375 35.53125 49.554688 C 35.53125 49.539062 35.488281 49.539062 35.460938 49.539062 C 35.359375 49.609375 35.335938 49.695312 35.390625 49.804688 Z M 35.390625 49.804688 " fill-opacity="1" fill-rule="nonzero"/><path fill="#000000" d="M 36.089844 51.585938 C 36.121094 51.585938 36.078125 51.515625 36.0625 51.488281 C 36.050781 51.460938 36.007812 51.359375 35.921875 51.417969 C 35.839844 51.472656 35.867188 51.472656 35.921875 51.542969 C 35.976562 51.570312 36.03125 51.582031 36.089844 51.585938 Z M 36.089844 51.585938 " fill-opacity="1" fill-rule="nonzero"/><path fill="#000000" d="M 44.695312 39.425781 C 47.46875 35.460938 48.898438 31.425781 48.953125 27.460938 L 48.953125 26.941406 C 48.953125 26.84375 48.9375 26.757812 48.9375 26.675781 C 48.941406 26.621094 48.9375 26.570312 48.925781 26.519531 C 48.925781 26.441406 48.921875 26.363281 48.910156 26.28125 C 48.914062 26.226562 48.910156 26.167969 48.898438 26.113281 C 48.898438 26.042969 48.882812 25.972656 48.882812 25.902344 C 48.878906 25.847656 48.871094 25.789062 48.855469 25.734375 C 48.855469 25.664062 48.839844 25.597656 48.839844 25.527344 C 48.824219 25.472656 48.816406 25.414062 48.8125 25.359375 L 48.769531 25.148438 C 48.769531 25.089844 48.757812 25.035156 48.742188 24.980469 L 48.699219 24.785156 C 48.699219 24.726562 48.6875 24.671875 48.671875 24.613281 L 48.632812 24.417969 L 48.589844 24.25 C 48.5625 24.1875 48.546875 24.121094 48.53125 24.054688 C 48.519531 23.996094 48.5 23.941406 48.476562 23.886719 C 48.464844 23.824219 48.445312 23.761719 48.421875 23.703125 L 48.378906 23.535156 C 48.351562 23.480469 48.335938 23.425781 48.308594 23.355469 C 48.28125 23.285156 48.265625 23.242188 48.253906 23.199219 C 48.238281 23.15625 48.210938 23.074219 48.183594 23.019531 C 48.164062 22.960938 48.140625 22.902344 48.113281 22.851562 C 48.09375 22.792969 48.070312 22.734375 48.042969 22.683594 L 47.972656 22.511719 L 47.886719 22.34375 C 47.871094 22.292969 47.847656 22.238281 47.820312 22.191406 L 47.734375 22.023438 L 47.648438 21.867188 C 47.628906 21.828125 47.605469 21.792969 47.582031 21.757812 C 47.570312 21.71875 47.550781 21.6875 47.523438 21.660156 C 47.273438 21.203125 46.980469 20.773438 46.65625 20.371094 C 46.445312 20.101562 46.222656 19.84375 45.984375 19.597656 L 45.605469 19.234375 C 45.351562 18.996094 45.085938 18.785156 44.820312 18.578125 L 44.035156 17.988281 L 44.089844 18.03125 C 43.625 17.675781 43.136719 17.359375 42.621094 17.078125 C 40.855469 16.125 38.796875 15.648438 36.496094 15.648438 C 34.199219 15.648438 32.253906 16.167969 30.488281 17.191406 C 28.714844 18.214844 27.269531 19.582031 26.144531 21.292969 C 25.050781 22.964844 24.296875 24.777344 23.886719 26.730469 L 24.671875 27.320312 L 31.035156 29.394531 C 31.335938 27.621094 32.039062 26.027344 33.148438 24.613281 C 33.21875 24.539062 33.285156 24.460938 33.34375 24.375 C 33.375 24.359375 33.398438 24.335938 33.414062 24.308594 L 33.554688 24.152344 L 33.640625 24.082031 L 33.851562 23.871094 L 33.976562 23.761719 L 34.058594 23.675781 L 34.199219 23.5625 L 34.269531 23.507812 L 34.425781 23.394531 L 34.496094 23.339844 L 34.71875 23.199219 L 34.972656 23.046875 L 35.039062 23.019531 L 35.238281 22.917969 L 35.335938 22.878906 L 35.503906 22.808594 L 35.601562 22.765625 L 35.769531 22.722656 L 35.882812 22.683594 L 36.050781 22.640625 L 36.160156 22.640625 L 36.328125 22.597656 L 37.015625 22.597656 C 37.601562 22.585938 38.167969 22.6875 38.710938 22.90625 C 38.855469 22.960938 38.996094 23.027344 39.132812 23.101562 C 39.273438 23.238281 39.398438 23.386719 39.511719 23.550781 C 40.234375 24.527344 40.589844 25.625 40.574219 26.84375 C 40.546875 28.886719 40 31.019531 38.949219 33.160156 C 37.875 35.339844 36.601562 37.394531 35.125 39.324219 C 33.625 41.273438 31.652344 43.640625 29.210938 46.375 C 26.984375 48.9375 25.359375 50.882812 24.394531 52.132812 L 24.308594 58.015625 L 25.078125 58.605469 L 47.511719 58.605469 L 48.253906 52.035156 L 47.46875 51.445312 L 34.285156 51.445312 C 38.488281 47.324219 41.988281 43.304688 44.695312 39.425781 Z M 44.695312 39.425781 " fill-opacity="1" fill-rule="nonzero"/><path fill="#ffffff" d="M 36.496094 15.648438 C 38.796875 15.648438 40.855469 16.125 42.621094 17.078125 C 44.382812 18.007812 45.761719 19.339844 46.753906 21.070312 C 47.734375 22.765625 48.210938 24.726562 48.183594 26.886719 C 48.113281 30.851562 46.683594 34.871094 43.921875 38.835938 C 41.164062 42.800781 37.519531 46.960938 33.164062 51.136719 L 32.910156 51.375 L 47.46875 51.375 L 46.738281 57.945312 L 24.308594 57.945312 L 24.394531 52.0625 C 25.359375 50.816406 26.984375 48.867188 29.210938 46.304688 C 31.652344 43.570312 33.625 41.203125 35.125 39.257812 C 36.601562 37.324219 37.875 35.269531 38.949219 33.089844 C 40 30.949219 40.546875 28.816406 40.574219 26.773438 C 40.589844 25.554688 40.234375 24.457031 39.511719 23.480469 C 38.78125 22.457031 37.675781 21.953125 36.230469 21.953125 C 34.789062 21.953125 33.5 22.652344 32.378906 24.027344 C 31.257812 25.398438 30.585938 26.96875 30.25 28.816406 L 23.886719 26.730469 C 24.296875 24.777344 25.050781 22.964844 26.144531 21.292969 C 27.269531 19.582031 28.714844 18.214844 30.488281 17.191406 C 32.253906 16.167969 34.269531 15.648438 36.496094 15.648438 Z M 36.496094 15.648438 " fill-opacity="1" fill-rule="nonzero"/></svg>