<svg xmlns="http://www.w3.org/2000/svg" xmlns:xlink="http://www.w3.org/1999/xlink" width="100" zoomAndPan="magnify" viewBox="0 0 75 74.999997" height="100" preserveAspectRatio="xMidYMid meet" version="1.0"><defs><filter x="0%" y="0%" width="100%" height="100%" id="28693bffdd"><feColorMatrix values="0 0 0 0 1 0 0 0 0 1 0 0 0 0 1 0 0 0 1 0" color-interpolation-filters="sRGB"/></filter><mask id="b9ee7b09bc"><g filter="url(#28693bffdd)"><rect x="-7.5" width="90" fill="#000000" y="-7.5" height="89.999996" fill-opacity="0.6"/></g></mask><clipPath id="5d1243b0d6"><path d="M 1 1.179688 L 63.953125 1.179688 L 63.953125 73.921875 L 1 73.921875 Z M 1 1.179688 " clip-rule="nonzero"/></clipPath><clipPath id="12440bc9a4"><rect x="0" width="65" y="0" height="74"/></clipPath><clipPath id="aebf1a6c49"><path d="M 6.039062 1.179688 L 69 1.179688 L 69 73.929688 L 6.039062 73.929688 Z M 6.039062 1.179688 " clip-rule="nonzero"/></clipPath><clipPath id="6372a5c847"><path d="M 14.238281 18.308594 L 52 18.308594 L 52 54 L 14.238281 54 Z M 14.238281 18.308594 " clip-rule="nonzero"/></clipPath><clipPath id="fbc0c814c0"><path d="M 45 30 L 60.738281 30 L 60.738281 56.558594 L 45 56.558594 Z M 45 30 " clip-rule="nonzero"/></clipPath></defs><g mask="url(#b9ee7b09bc)"><g transform="matrix(1, 0, 0, 1, 5, -0.000000000000001887)"><g clip-path="url(#12440bc9a4)"><g clip-path="url(#5d1243b0d6)"><path fill="#8fd5a6" d="M 32.492188 73.8125 L 1.039062 55.65625 L 1.039062 19.339844 L 32.492188 1.179688 L 63.941406 19.339844 L 63.941406 55.65625 Z M 32.492188 73.8125 " fill-opacity="1" fill-rule="nonzero"/></g></g></g></g><g clip-path="url(#aebf1a6c49)"><path fill="#0d5d56" d="M 6.839844 55.199219 L 37.496094 72.898438 L 68.152344 55.199219 L 68.152344 19.800781 L 37.496094 2.101562 L 6.839844 19.800781 Z M 37.496094 73.816406 L 6.042969 55.660156 L 6.042969 19.339844 L 37.496094 1.179688 L 68.949219 19.339844 L 68.949219 55.660156 L 37.496094 73.816406 " fill-opacity="1" fill-rule="nonzero"/></g><g clip-path="url(#6372a5c847)"><path fill="#0d5d56" d="M 51.273438 21.269531 L 49.742188 21.269531 L 49.742188 20.519531 C 49.742188 20.089844 49.390625 19.738281 48.960938 19.738281 L 16.839844 19.738281 C 16.402344 19.738281 16.058594 20.089844 16.058594 20.519531 L 16.058594 39.640625 L 34.433594 39.640625 L 34.433594 41.171875 L 16.058594 41.171875 L 16.058594 44.984375 C 16.058594 45.414062 16.410156 45.765625 16.839844 45.765625 L 34.433594 45.765625 L 34.433594 47.296875 L 31.050781 47.296875 L 29.902344 51.890625 L 34.433594 51.890625 L 34.433594 53.421875 L 26.011719 53.421875 C 25.582031 53.421875 25.246094 53.078125 25.246094 52.65625 C 25.246094 52.25 25.589844 51.890625 26.019531 51.890625 L 28.003906 51.890625 C 28.179688 51.890625 28.339844 51.753906 28.378906 51.597656 L 29.457031 47.296875 L 16.839844 47.296875 C 15.566406 47.296875 14.527344 46.261719 14.527344 45.007812 L 14.527344 20.496094 C 14.527344 19.226562 15.550781 18.207031 16.839844 18.207031 L 48.960938 18.207031 C 50.238281 18.207031 51.273438 19.242188 51.273438 20.496094 Z M 32.902344 45 C 32.054688 45 31.371094 44.316406 31.371094 43.46875 C 31.371094 42.625 32.054688 41.9375 32.902344 41.9375 C 33.746094 41.9375 34.433594 42.625 34.433594 43.46875 C 34.433594 44.316406 33.746094 45 32.902344 45 Z M 32.902344 45 " fill-opacity="1" fill-rule="evenodd"/></g><path fill="#0d5d56" d="M 57.398438 28.925781 L 55.867188 28.925781 L 55.867188 27.394531 L 37.496094 27.394531 L 37.496094 47.296875 L 43.617188 47.296875 L 43.617188 48.828125 L 37.496094 48.828125 L 37.496094 52.664062 C 37.496094 53.078125 37.835938 53.421875 38.261719 53.421875 L 43.617188 53.421875 L 43.617188 54.953125 L 38.269531 54.953125 C 36.992188 54.953125 35.964844 53.933594 35.964844 52.648438 L 35.964844 25.105469 C 35.964844 23.828125 36.984375 22.800781 38.269531 22.800781 L 55.09375 22.800781 C 56.371094 22.800781 57.398438 23.820312 57.398438 25.105469 Z M 37.496094 25.089844 L 37.496094 25.863281 L 55.867188 25.863281 L 55.867188 25.089844 C 55.867188 24.675781 55.523438 24.332031 55.101562 24.332031 L 38.261719 24.332031 C 37.828125 24.332031 37.496094 24.675781 37.496094 25.089844 Z M 37.496094 25.089844 " fill-opacity="1" fill-rule="evenodd"/><g clip-path="url(#fbc0c814c0)"><path fill="#0d5d56" d="M 47.453125 30.457031 L 58.15625 30.457031 C 59.433594 30.457031 60.460938 31.476562 60.460938 32.761719 L 60.460938 54.179688 C 60.460938 55.457031 59.441406 56.484375 58.15625 56.484375 L 47.453125 56.484375 C 46.179688 56.484375 45.148438 55.464844 45.148438 54.179688 L 45.148438 32.761719 C 45.148438 31.484375 46.171875 30.457031 47.453125 30.457031 Z M 46.679688 48.828125 L 58.929688 48.828125 L 58.929688 35.050781 L 46.679688 35.050781 Z M 46.679688 32.746094 L 46.679688 33.519531 L 58.929688 33.519531 L 58.929688 32.746094 C 58.929688 32.328125 58.585938 31.988281 58.164062 31.988281 L 47.445312 31.988281 C 47.015625 31.988281 46.679688 32.328125 46.679688 32.746094 Z M 46.679688 54.195312 C 46.679688 54.609375 47.023438 54.953125 47.445312 54.953125 L 58.164062 54.953125 C 58.59375 54.953125 58.929688 54.609375 58.929688 54.195312 L 58.929688 50.359375 L 46.679688 50.359375 Z M 46.679688 54.195312 " fill-opacity="1" fill-rule="evenodd"/></g><path fill="#0d5d56" d="M 54.335938 52.65625 C 54.335938 53.5 53.652344 54.1875 52.804688 54.1875 C 51.960938 54.1875 51.273438 53.5 51.273438 52.65625 C 51.273438 51.8125 51.960938 51.125 52.804688 51.125 C 53.652344 51.125 54.335938 51.8125 54.335938 52.65625 Z M 54.335938 52.65625 " fill-opacity="1" fill-rule="evenodd"/></svg>