<svg xmlns="http://www.w3.org/2000/svg" xmlns:xlink="http://www.w3.org/1999/xlink" width="100" zoomAndPan="magnify" viewBox="0 0 75 74.999997" height="100" preserveAspectRatio="xMidYMid meet" version="1.0"><defs><clipPath id="c0edcf477f"><path d="M 2.308594 10 L 72.808594 10 L 72.808594 61 L 2.308594 61 Z M 2.308594 10 " clip-rule="nonzero"/></clipPath><clipPath id="25f89efac7"><path d="M 28 58 L 34 58 L 34 70.5 L 28 70.5 Z M 28 58 " clip-rule="nonzero"/></clipPath><clipPath id="03981d719f"><path d="M 41 58 L 47 58 L 47 70.5 L 41 70.5 Z M 41 58 " clip-rule="nonzero"/></clipPath><clipPath id="aa2fcdc814"><path d="M 25 68 L 50 68 L 50 70.5 L 25 70.5 Z M 25 68 " clip-rule="nonzero"/></clipPath><clipPath id="cdf29b4d78"><path d="M 22.804688 70.382812 L 52.054688 70.382812 L 52.054688 75 L 22.804688 75 Z M 22.804688 70.382812 " clip-rule="nonzero"/></clipPath></defs><g clip-path="url(#c0edcf477f)"><path fill="#0c8346" d="M 68.609375 60.453125 L 6.394531 60.453125 C 4.144531 60.453125 2.3125 58.625 2.3125 56.375 L 2.3125 14.113281 C 2.3125 11.863281 4.144531 10.03125 6.394531 10.03125 L 20.738281 10.03125 C 21.179688 10.03125 21.539062 10.390625 21.539062 10.832031 C 21.539062 11.273438 21.179688 11.632812 20.738281 11.632812 L 6.394531 11.632812 C 5.023438 11.632812 3.910156 12.746094 3.910156 14.113281 L 3.910156 56.375 C 3.910156 57.742188 5.023438 58.855469 6.394531 58.855469 L 68.609375 58.855469 C 69.976562 58.855469 71.089844 57.742188 71.089844 56.375 L 71.089844 14.113281 C 71.089844 12.746094 69.976562 11.632812 68.609375 11.632812 L 54.261719 11.632812 C 53.820312 11.632812 53.464844 11.273438 53.464844 10.832031 C 53.464844 10.390625 53.820312 10.03125 54.261719 10.03125 L 68.609375 10.03125 C 70.859375 10.03125 72.691406 11.863281 72.691406 14.113281 L 72.691406 56.375 C 72.691406 58.625 70.859375 60.453125 68.609375 60.453125 Z M 68.609375 60.453125 " fill-opacity="1" fill-rule="nonzero"/></g><path fill="#0c8346" d="M 66.902344 48.753906 L 8.101562 48.753906 C 7.660156 48.753906 7.300781 48.394531 7.300781 47.953125 L 7.300781 15.820312 C 7.300781 15.378906 7.660156 15.019531 8.101562 15.019531 L 20.738281 15.019531 C 21.179688 15.019531 21.539062 15.378906 21.539062 15.820312 C 21.539062 16.261719 21.179688 16.621094 20.738281 16.621094 L 8.902344 16.621094 L 8.902344 47.15625 L 66.101562 47.15625 L 66.101562 16.621094 L 54.261719 16.621094 C 53.820312 16.621094 53.464844 16.261719 53.464844 15.820312 C 53.464844 15.378906 53.820312 15.019531 54.261719 15.019531 L 66.902344 15.019531 C 67.34375 15.019531 67.703125 15.378906 67.703125 15.820312 L 67.703125 47.953125 C 67.703125 48.398438 67.34375 48.753906 66.902344 48.753906 Z M 66.902344 48.753906 " fill-opacity="1" fill-rule="nonzero"/><g clip-path="url(#25f89efac7)"><path fill="#0c8346" d="M 29.320312 70.335938 C 29.164062 70.335938 29.003906 70.289062 28.867188 70.195312 C 28.503906 69.941406 28.410156 69.445312 28.664062 69.082031 C 32.785156 63.132812 31.953125 59.914062 31.945312 59.878906 C 31.8125 59.457031 32.050781 59.015625 32.476562 58.886719 C 32.898438 58.757812 33.347656 58.996094 33.476562 59.417969 C 33.523438 59.574219 34.601562 63.3125 29.976562 69.992188 C 29.824219 70.214844 29.574219 70.335938 29.320312 70.335938 Z M 29.320312 70.335938 " fill-opacity="1" fill-rule="nonzero"/></g><g clip-path="url(#03981d719f)"><path fill="#0c8346" d="M 45.683594 70.335938 C 45.429688 70.335938 45.179688 70.214844 45.023438 69.992188 C 40.398438 63.316406 41.480469 59.574219 41.527344 59.421875 C 41.65625 58.996094 42.105469 58.761719 42.527344 58.890625 C 42.945312 59.023438 43.179688 59.464844 43.058594 59.882812 C 43.039062 59.957031 42.246094 63.171875 46.339844 69.082031 C 46.589844 69.445312 46.5 69.941406 46.136719 70.195312 C 46 70.289062 45.839844 70.335938 45.683594 70.335938 Z M 45.683594 70.335938 " fill-opacity="1" fill-rule="nonzero"/></g><g clip-path="url(#aa2fcdc814)"><path fill="#0c8346" d="M 48.789062 70.335938 L 26.214844 70.335938 C 25.773438 70.335938 25.414062 69.976562 25.414062 69.535156 C 25.414062 69.09375 25.773438 68.734375 26.214844 68.734375 L 48.789062 68.734375 C 49.230469 68.734375 49.585938 69.09375 49.585938 69.535156 C 49.585938 69.976562 49.230469 70.335938 48.789062 70.335938 Z M 48.789062 70.335938 " fill-opacity="1" fill-rule="nonzero"/></g><path fill="#0c8346" d="M 37.5 56.761719 C 35.871094 56.761719 34.542969 55.4375 34.542969 53.804688 C 34.542969 52.171875 35.871094 50.847656 37.5 50.847656 C 39.132812 50.847656 40.460938 52.171875 40.460938 53.804688 C 40.460938 55.4375 39.132812 56.761719 37.5 56.761719 Z M 37.5 52.445312 C 36.75 52.445312 36.140625 53.054688 36.140625 53.804688 C 36.140625 54.554688 36.75 55.164062 37.5 55.164062 C 38.25 55.164062 38.859375 54.554688 38.859375 53.804688 C 38.859375 53.054688 38.25 52.445312 37.5 52.445312 Z M 37.5 52.445312 " fill-opacity="1" fill-rule="nonzero"/><path fill="#0c8346" d="M 27.859375 54.605469 L 11.832031 54.605469 C 11.390625 54.605469 11.035156 54.246094 11.035156 53.804688 C 11.035156 53.363281 11.390625 53.003906 11.832031 53.003906 L 27.859375 53.003906 C 28.300781 53.003906 28.65625 53.363281 28.65625 53.804688 C 28.65625 54.246094 28.300781 54.605469 27.859375 54.605469 Z M 27.859375 54.605469 " fill-opacity="1" fill-rule="nonzero"/><path fill="#0c8346" d="M 63.167969 54.605469 L 47.144531 54.605469 C 46.703125 54.605469 46.34375 54.246094 46.34375 53.804688 C 46.34375 53.363281 46.703125 53.003906 47.144531 53.003906 L 63.167969 53.003906 C 63.609375 53.003906 63.96875 53.363281 63.96875 53.804688 C 63.96875 54.246094 63.609375 54.605469 63.167969 54.605469 Z M 63.167969 54.605469 " fill-opacity="1" fill-rule="nonzero"/><path fill="#0c8346" d="M 52.167969 44.449219 L 22.835938 44.449219 C 21.238281 44.449219 19.941406 43.148438 19.941406 41.554688 L 19.941406 2.9375 C 19.941406 1.34375 21.238281 0.0429688 22.835938 0.0429688 L 52.167969 0.0429688 C 53.765625 0.0429688 55.0625 1.34375 55.0625 2.9375 L 55.0625 41.554688 C 55.0625 43.148438 53.765625 44.449219 52.167969 44.449219 Z M 22.835938 1.640625 C 22.121094 1.640625 21.539062 2.222656 21.539062 2.9375 L 21.539062 41.554688 C 21.539062 42.269531 22.121094 42.847656 22.835938 42.847656 L 52.167969 42.847656 C 52.882812 42.847656 53.464844 42.269531 53.464844 41.554688 L 53.464844 2.9375 C 53.464844 2.222656 52.882812 1.644531 52.167969 1.644531 L 22.835938 1.644531 Z M 22.835938 1.640625 " fill-opacity="1" fill-rule="nonzero"/><path fill="#0c8346" d="M 54.261719 9.566406 L 20.738281 9.566406 C 20.296875 9.566406 19.941406 9.207031 19.941406 8.765625 C 19.941406 8.324219 20.296875 7.964844 20.738281 7.964844 L 54.265625 7.964844 C 54.707031 7.964844 55.0625 8.324219 55.0625 8.765625 C 55.0625 9.207031 54.707031 9.566406 54.261719 9.566406 Z M 54.261719 9.566406 " fill-opacity="1" fill-rule="nonzero"/><path fill="#0c8346" d="M 25.699219 3.191406 C 26.539062 3.191406 27.21875 3.871094 27.21875 4.714844 C 27.21875 5.554688 26.539062 6.234375 25.699219 6.234375 C 24.855469 6.234375 24.175781 5.554688 24.175781 4.714844 C 24.175781 3.871094 24.859375 3.191406 25.699219 3.191406 Z M 25.699219 3.191406 " fill-opacity="1" fill-rule="evenodd"/><path fill="#0c8346" d="M 30.714844 3.191406 C 31.554688 3.191406 32.238281 3.871094 32.238281 4.714844 C 32.238281 5.554688 31.554688 6.234375 30.714844 6.234375 C 29.871094 6.234375 29.191406 5.554688 29.191406 4.714844 C 29.191406 3.871094 29.871094 3.191406 30.714844 3.191406 Z M 30.714844 3.191406 " fill-opacity="1" fill-rule="evenodd"/><path fill="#0c8346" d="M 35.730469 3.191406 C 36.570312 3.191406 37.253906 3.871094 37.253906 4.714844 C 37.253906 5.554688 36.570312 6.234375 35.730469 6.234375 C 34.890625 6.234375 34.207031 5.554688 34.207031 4.714844 C 34.207031 3.871094 34.890625 3.191406 35.730469 3.191406 Z M 35.730469 3.191406 " fill-opacity="1" fill-rule="evenodd"/><path fill="#0c8346" d="M 39.015625 29.625 C 38.738281 29.625 38.46875 29.480469 38.320312 29.226562 L 35.296875 23.988281 C 35.078125 23.605469 35.207031 23.117188 35.589844 22.894531 C 35.972656 22.675781 36.460938 22.808594 36.683594 23.1875 L 39.707031 28.425781 C 39.925781 28.808594 39.796875 29.296875 39.414062 29.519531 C 39.289062 29.589844 39.148438 29.625 39.015625 29.625 Z M 39.015625 29.625 " fill-opacity="1" fill-rule="nonzero"/><path fill="#0c8346" d="M 33.085938 29.625 C 32.9375 29.625 32.785156 29.582031 32.648438 29.496094 L 28.660156 26.875 C 28.433594 26.726562 28.296875 26.476562 28.296875 26.207031 C 28.296875 25.9375 28.433594 25.683594 28.660156 25.539062 L 32.648438 22.917969 C 33.019531 22.675781 33.515625 22.78125 33.757812 23.148438 C 34 23.519531 33.894531 24.015625 33.527344 24.253906 L 30.554688 26.207031 L 33.527344 28.15625 C 33.894531 28.402344 33.996094 28.898438 33.757812 29.265625 C 33.605469 29.5 33.347656 29.625 33.085938 29.625 Z M 33.085938 29.625 " fill-opacity="1" fill-rule="nonzero"/><path fill="#0c8346" d="M 41.914062 29.625 C 41.65625 29.625 41.398438 29.5 41.246094 29.265625 C 41.003906 28.894531 41.109375 28.398438 41.476562 28.15625 L 44.449219 26.207031 L 41.476562 24.253906 C 41.109375 24.011719 41.003906 23.519531 41.246094 23.148438 C 41.488281 22.78125 41.984375 22.675781 42.351562 22.917969 L 46.34375 25.539062 C 46.570312 25.683594 46.703125 25.9375 46.703125 26.207031 C 46.703125 26.476562 46.570312 26.726562 46.34375 26.875 L 42.351562 29.496094 C 42.21875 29.582031 42.066406 29.625 41.914062 29.625 Z M 41.914062 29.625 " fill-opacity="1" fill-rule="nonzero"/><path fill="#0c8346" d="M 49.863281 14.046875 L 25.140625 14.046875 C 24.699219 14.046875 24.339844 13.691406 24.339844 13.25 C 24.339844 12.808594 24.699219 12.449219 25.140625 12.449219 L 49.863281 12.449219 C 50.304688 12.449219 50.660156 12.808594 50.660156 13.25 C 50.660156 13.691406 50.304688 14.046875 49.863281 14.046875 Z M 49.863281 14.046875 " fill-opacity="1" fill-rule="nonzero"/><path fill="#0c8346" d="M 49.863281 17.75 L 25.140625 17.75 C 24.699219 17.75 24.339844 17.390625 24.339844 16.949219 C 24.339844 16.507812 24.699219 16.152344 25.140625 16.152344 L 49.863281 16.152344 C 50.304688 16.152344 50.660156 16.507812 50.660156 16.949219 C 50.660156 17.390625 50.304688 17.75 49.863281 17.75 Z M 49.863281 17.75 " fill-opacity="1" fill-rule="nonzero"/><path fill="#0c8346" d="M 49.863281 21.453125 L 25.140625 21.453125 C 24.699219 21.453125 24.339844 21.09375 24.339844 20.652344 C 24.339844 20.210938 24.699219 19.855469 25.140625 19.855469 L 49.863281 19.855469 C 50.304688 19.855469 50.660156 20.210938 50.660156 20.652344 C 50.660156 21.09375 50.304688 21.453125 49.863281 21.453125 Z M 49.863281 21.453125 " fill-opacity="1" fill-rule="nonzero"/><path fill="#0c8346" d="M 49.863281 32.5625 L 25.140625 32.5625 C 24.699219 32.5625 24.339844 32.203125 24.339844 31.761719 C 24.339844 31.320312 24.699219 30.960938 25.140625 30.960938 L 49.863281 30.960938 C 50.304688 30.960938 50.660156 31.320312 50.660156 31.761719 C 50.660156 32.203125 50.304688 32.5625 49.863281 32.5625 Z M 49.863281 32.5625 " fill-opacity="1" fill-rule="nonzero"/><path fill="#0c8346" d="M 49.863281 36.261719 L 25.140625 36.261719 C 24.699219 36.261719 24.339844 35.90625 24.339844 35.464844 C 24.339844 35.023438 24.699219 34.664062 25.140625 34.664062 L 49.863281 34.664062 C 50.304688 34.664062 50.660156 35.023438 50.660156 35.464844 C 50.664062 35.90625 50.304688 36.261719 49.863281 36.261719 Z M 49.863281 36.261719 " fill-opacity="1" fill-rule="nonzero"/><path fill="#0c8346" d="M 49.863281 39.964844 L 25.140625 39.964844 C 24.699219 39.964844 24.339844 39.605469 24.339844 39.164062 C 24.339844 38.722656 24.699219 38.367188 25.140625 38.367188 L 49.863281 38.367188 C 50.304688 38.367188 50.660156 38.722656 50.660156 39.164062 C 50.660156 39.605469 50.304688 39.964844 49.863281 39.964844 Z M 49.863281 39.964844 " fill-opacity="1" fill-rule="nonzero"/><g clip-path="url(#cdf29b4d78)"><path fill="#0c8346" d="M 51.574219 70.382812 L 23.417969 70.382812 C 23.078125 70.382812 22.804688 70.660156 22.804688 70.996094 L 22.804688 88.132812 C 22.804688 88.472656 23.078125 88.746094 23.417969 88.746094 L 51.574219 88.746094 C 51.910156 88.746094 52.183594 88.472656 52.183594 88.132812 L 52.183594 70.996094 C 52.183594 70.660156 51.910156 70.382812 51.574219 70.382812 Z M 50.960938 87.523438 L 24.03125 87.523438 L 24.03125 71.609375 L 50.960938 71.609375 Z M 50.960938 87.523438 " fill-opacity="1" fill-rule="nonzero"/></g></svg>