<svg xmlns="http://www.w3.org/2000/svg" xmlns:xlink="http://www.w3.org/1999/xlink" width="100" zoomAndPan="magnify" viewBox="0 0 75 74.999997" height="100" preserveAspectRatio="xMidYMid meet" version="1.0"><defs><filter x="0%" y="0%" width="100%" height="100%" id="c09ffa15df"><feColorMatrix values="0 0 0 0 1 0 0 0 0 1 0 0 0 0 1 0 0 0 1 0" color-interpolation-filters="sRGB"/></filter><mask id="2e733220cd"><g filter="url(#c09ffa15df)"><rect x="-7.5" width="90" fill="#000000" y="-7.5" height="89.999996" fill-opacity="0.6"/></g></mask><clipPath id="4c5c8075e8"><path d="M 1 1.179688 L 63.953125 1.179688 L 63.953125 73.921875 L 1 73.921875 Z M 1 1.179688 " clip-rule="nonzero"/></clipPath><clipPath id="58545777fc"><rect x="0" width="65" y="0" height="74"/></clipPath><clipPath id="3771509c56"><path d="M 15.707031 36 L 32 36 L 32 59.097656 L 15.707031 59.097656 Z M 15.707031 36 " clip-rule="nonzero"/></clipPath><clipPath id="a265d6980b"><path d="M 36 15.597656 L 59.207031 15.597656 L 59.207031 32 L 36 32 Z M 36 15.597656 " clip-rule="nonzero"/></clipPath><clipPath id="1a7fdd73ed"><path d="M 6.039062 1.179688 L 69 1.179688 L 69 73.929688 L 6.039062 73.929688 Z M 6.039062 1.179688 " clip-rule="nonzero"/></clipPath></defs><g mask="url(#2e733220cd)"><g transform="matrix(1, 0, 0, 1, 5, -0.000000000000001887)"><g clip-path="url(#58545777fc)"><g clip-path="url(#4c5c8075e8)"><path fill="#8fd5a6" d="M 32.492188 73.8125 L 1.039062 55.65625 L 1.039062 19.339844 L 32.492188 1.179688 L 63.941406 19.339844 L 63.941406 55.65625 Z M 32.492188 73.8125 " fill-opacity="1" fill-rule="nonzero"/></g></g></g></g><path fill="#0d5d56" d="M 29.917969 24.953125 C 29.917969 25.4375 29.527344 25.828125 29.042969 25.828125 L 25.367188 25.828125 L 25.867188 25.332031 L 29.917969 21.292969 Z M 34.9375 19.484375 L 30.449219 19.484375 C 30.445312 19.484375 30.441406 19.484375 30.4375 19.484375 C 30.410156 19.484375 30.378906 19.488281 30.347656 19.492188 C 30.34375 19.496094 30.34375 19.496094 30.339844 19.496094 C 30.3125 19.503906 30.285156 19.511719 30.257812 19.519531 C 30.25 19.523438 30.242188 19.527344 30.230469 19.53125 C 30.210938 19.542969 30.191406 19.550781 30.171875 19.5625 C 30.164062 19.570312 30.15625 19.574219 30.148438 19.578125 C 30.121094 19.597656 30.097656 19.617188 30.074219 19.640625 L 23.707031 25.984375 C 23.683594 26.007812 23.664062 26.03125 23.648438 26.058594 C 23.640625 26.066406 23.636719 26.074219 23.632812 26.082031 C 23.621094 26.101562 23.609375 26.121094 23.601562 26.140625 C 23.597656 26.148438 23.59375 26.15625 23.589844 26.167969 C 23.578125 26.195312 23.570312 26.222656 23.5625 26.253906 C 23.5625 26.253906 23.5625 26.257812 23.5625 26.257812 C 23.554688 26.285156 23.554688 26.316406 23.554688 26.347656 C 23.554688 26.351562 23.550781 26.355469 23.550781 26.359375 L 23.550781 35.242188 C 23.550781 35.535156 23.789062 35.773438 24.082031 35.773438 C 24.375 35.773438 24.613281 35.535156 24.613281 35.242188 L 24.613281 26.890625 L 29.042969 26.890625 C 30.109375 26.890625 30.980469 26.019531 30.980469 24.953125 L 30.980469 20.546875 L 34.9375 20.546875 C 35.230469 20.546875 35.46875 20.308594 35.46875 20.015625 C 35.46875 19.722656 35.230469 19.484375 34.9375 19.484375 " fill-opacity="1" fill-rule="nonzero"/><path fill="#0d5d56" d="M 55.417969 39.394531 C 55.6875 39.011719 56.042969 38.6875 56.445312 38.457031 L 57.199219 38.03125 L 57.039062 38.890625 C 56.957031 39.335938 56.78125 39.753906 56.523438 40.125 L 52.464844 45.929688 L 44.503906 57.316406 C 44.402344 57.460938 44.25 57.558594 44.074219 57.585938 C 43.902344 57.617188 43.726562 57.578125 43.582031 57.476562 C 43.433594 57.378906 43.339844 57.226562 43.308594 57.050781 C 43.277344 56.875 43.316406 56.699219 43.417969 56.554688 Z M 29.113281 54.40625 C 28.820312 54.40625 28.582031 54.640625 28.582031 54.9375 C 28.582031 55.230469 28.820312 55.46875 29.113281 55.46875 L 42.882812 55.46875 L 42.546875 55.949219 C 42.28125 56.324219 42.183594 56.78125 42.261719 57.234375 C 42.34375 57.691406 42.59375 58.085938 42.972656 58.347656 C 43.273438 58.558594 43.617188 58.660156 43.957031 58.660156 C 44.5 58.660156 45.039062 58.402344 45.371094 57.921875 L 52.371094 47.914062 L 52.371094 53.382812 C 52.371094 53.945312 51.914062 54.40625 51.347656 54.40625 L 49.621094 54.40625 C 49.328125 54.40625 49.089844 54.640625 49.089844 54.9375 C 49.089844 55.230469 49.328125 55.46875 49.621094 55.46875 L 51.347656 55.46875 C 52.5 55.46875 53.433594 54.53125 53.433594 53.382812 L 53.433594 46.394531 L 57.394531 40.734375 C 57.742188 40.234375 57.972656 39.679688 58.082031 39.085938 L 58.449219 37.101562 C 58.488281 36.898438 58.402344 36.695312 58.234375 36.574219 C 58.066406 36.453125 57.84375 36.441406 57.664062 36.542969 L 55.921875 37.535156 C 55.378906 37.839844 54.90625 38.273438 54.546875 38.785156 L 53.433594 40.378906 L 53.433594 28.585938 C 53.433594 28.292969 53.195312 28.054688 52.902344 28.054688 C 52.609375 28.054688 52.371094 28.292969 52.371094 28.585938 L 52.371094 41.597656 C 52.371094 41.679688 52.390625 41.753906 52.425781 41.824219 L 43.625 54.40625 L 29.113281 54.40625 " fill-opacity="1" fill-rule="nonzero"/><g clip-path="url(#3771509c56)"><path fill="#0d5d56" d="M 17.617188 53.5625 L 25.882812 55.277344 L 25.15625 58.285156 C 23.78125 58.113281 19.660156 57.558594 16.9375 56.667969 Z M 17.21875 43.40625 C 17.195312 43.117188 17.316406 42.839844 17.546875 42.65625 L 17.640625 42.582031 C 17.777344 43.335938 18.039062 44.433594 18.515625 45.457031 C 18.605469 45.652344 18.796875 45.765625 19 45.765625 C 19.074219 45.765625 19.148438 45.75 19.222656 45.714844 C 19.488281 45.59375 19.601562 45.277344 19.480469 45.011719 C 18.742188 43.429688 18.566406 41.566406 18.5625 41.546875 C 18.5625 41.546875 18.5625 41.542969 18.5625 41.539062 C 18.558594 41.53125 18.5625 41.527344 18.558594 41.519531 C 18.558594 41.511719 18.449219 40.75 18.398438 39.824219 C 18.382812 39.527344 18.515625 39.25 18.75 39.074219 L 19.25 38.703125 C 19.328125 40.003906 19.578125 42.28125 20.363281 44.089844 C 20.449219 44.289062 20.644531 44.410156 20.851562 44.410156 C 20.921875 44.410156 20.992188 44.394531 21.0625 44.363281 C 21.332031 44.25 21.453125 43.933594 21.335938 43.667969 C 20.453125 41.625 20.304688 38.800781 20.28125 37.9375 L 20.601562 37.699219 C 20.820312 37.535156 21.039062 37.601562 21.121094 37.640625 C 21.203125 37.675781 21.402344 37.789062 21.429688 38.0625 L 21.453125 38.296875 C 21.464844 38.4375 21.683594 40.949219 22.253906 43.09375 C 22.316406 43.332031 22.53125 43.488281 22.765625 43.488281 C 22.808594 43.488281 22.855469 43.480469 22.902344 43.46875 C 23.183594 43.394531 23.355469 43.101562 23.277344 42.820312 C 22.851562 41.210938 22.625 39.320312 22.542969 38.554688 L 23.28125 38.171875 C 23.433594 38.089844 23.566406 38.144531 23.617188 38.171875 C 23.667969 38.195312 23.789062 38.277344 23.8125 38.445312 C 24.042969 40.171875 24.445312 42.605469 25.035156 44.390625 C 25.320312 45.242188 25.894531 45.980469 26.65625 46.464844 C 27.582031 47.058594 28.914062 47.820312 30.269531 48.296875 L 30.039062 49.050781 C 29.898438 49.5 29.488281 49.804688 29.019531 49.804688 C 28.375 49.804688 27.429688 49.789062 26.585938 49.699219 C 26.324219 49.671875 26.082031 49.835938 26.015625 50.089844 L 24.984375 54.003906 L 18.683594 52.699219 L 19.15625 50.320312 C 19.265625 49.769531 19.167969 49.199219 18.886719 48.714844 C 18.355469 47.792969 17.425781 45.882812 17.21875 43.40625 Z M 16.136719 57.515625 C 19.484375 58.730469 25.261719 59.367188 25.503906 59.394531 C 25.523438 59.398438 25.542969 59.398438 25.5625 59.398438 C 25.804688 59.398438 26.019531 59.230469 26.078125 58.992188 L 27.042969 54.992188 C 27.078125 54.851562 27.054688 54.707031 26.976562 54.582031 C 26.898438 54.460938 26.777344 54.378906 26.636719 54.347656 L 26.027344 54.222656 L 26.925781 50.796875 C 27.683594 50.855469 28.460938 50.867188 29.019531 50.867188 C 29.960938 50.867188 30.777344 50.261719 31.054688 49.363281 L 31.441406 48.109375 C 31.480469 47.972656 31.46875 47.828125 31.398438 47.703125 C 31.332031 47.578125 31.21875 47.484375 31.082031 47.445312 C 29.675781 47.03125 28.210938 46.199219 27.226562 45.570312 C 26.671875 45.214844 26.25 44.675781 26.042969 44.054688 C 25.449219 42.261719 25.050781 39.683594 24.863281 38.304688 C 24.800781 37.84375 24.519531 37.441406 24.105469 37.226562 C 23.695312 37.015625 23.203125 37.015625 22.792969 37.226562 L 22.351562 37.457031 C 22.195312 37.109375 21.914062 36.828125 21.550781 36.667969 C 21.023438 36.4375 20.433594 36.503906 19.96875 36.847656 L 18.117188 38.222656 C 17.59375 38.609375 17.304688 39.226562 17.339844 39.878906 C 17.371094 40.5 17.429688 41.042969 17.46875 41.367188 L 16.890625 41.824219 C 16.378906 42.226562 16.105469 42.851562 16.160156 43.496094 C 16.382812 46.179688 17.390625 48.25 17.96875 49.25 C 18.121094 49.507812 18.171875 49.816406 18.113281 50.113281 L 17.644531 52.480469 L 17.320312 52.414062 C 17.035156 52.355469 16.757812 52.535156 16.695312 52.820312 L 15.800781 56.902344 C 15.742188 57.164062 15.886719 57.425781 16.136719 57.515625 " fill-opacity="1" fill-rule="nonzero"/></g><g clip-path="url(#a265d6980b)"><path fill="#0d5d56" d="M 55.125 26.671875 L 54.324219 18.269531 L 57.488281 17.933594 C 58.074219 20.734375 58.175781 24.894531 58.191406 26.277344 Z M 49.957031 26.234375 C 49.695312 26.273438 49.503906 26.496094 49.503906 26.757812 C 49.5 27.605469 49.414062 28.546875 49.34375 29.1875 C 49.289062 29.65625 48.941406 30.03125 48.480469 30.117188 L 47.707031 30.265625 C 47.382812 28.867188 46.769531 27.457031 46.28125 26.472656 C 45.882812 25.664062 45.210938 25.011719 44.394531 24.636719 C 42.742188 23.878906 40.457031 23.230469 38.832031 22.820312 C 38.664062 22.777344 38.535156 22.664062 38.472656 22.503906 C 38.414062 22.34375 38.433594 22.171875 38.527344 22.027344 L 38.867188 21.519531 C 39.621094 21.683594 41.472656 22.113281 43.027344 22.71875 C 43.089844 22.742188 43.15625 22.753906 43.21875 22.753906 C 43.433594 22.753906 43.632812 22.625 43.714844 22.414062 C 43.820312 22.140625 43.683594 21.832031 43.410156 21.726562 C 41.34375 20.925781 38.867188 20.433594 38.730469 20.40625 L 38.234375 20.300781 C 38.046875 20.261719 37.984375 20.113281 37.964844 20.054688 C 37.945312 19.992188 37.914062 19.835938 38.046875 19.695312 L 38.503906 19.203125 C 39.359375 19.320312 42.144531 19.773438 44.082031 20.878906 C 44.164062 20.925781 44.253906 20.949219 44.34375 20.949219 C 44.527344 20.949219 44.707031 20.855469 44.804688 20.683594 C 44.953125 20.429688 44.863281 20.101562 44.609375 19.957031 C 42.898438 18.980469 40.660156 18.484375 39.375 18.261719 L 39.800781 17.804688 C 40 17.589844 40.292969 17.492188 40.582031 17.539062 C 41.496094 17.691406 42.246094 17.882812 42.253906 17.882812 C 42.257812 17.886719 42.265625 17.886719 42.269531 17.886719 C 42.273438 17.886719 42.277344 17.890625 42.28125 17.890625 C 42.300781 17.894531 44.125 18.273438 45.621094 19.179688 C 45.707031 19.234375 45.800781 19.257812 45.894531 19.257812 C 46.074219 19.257812 46.25 19.167969 46.351562 19.003906 C 46.503906 18.75 46.421875 18.425781 46.171875 18.273438 C 45.207031 17.6875 44.144531 17.308594 43.410156 17.089844 L 43.492188 17 C 43.699219 16.792969 43.992188 16.703125 44.277344 16.757812 C 46.714844 17.234375 48.511719 18.367188 49.367188 19 C 49.816406 19.332031 50.375 19.488281 50.933594 19.441406 L 53.347656 19.230469 L 53.957031 25.636719 Z M 57.847656 16.828125 L 53.691406 17.269531 C 53.402344 17.296875 53.191406 17.558594 53.21875 17.847656 L 53.25 18.175781 L 50.84375 18.382812 C 50.542969 18.410156 50.242188 18.324219 50 18.144531 C 49.070312 17.460938 47.121094 16.234375 44.480469 15.714844 C 43.84375 15.589844 43.191406 15.792969 42.738281 16.257812 L 42.21875 16.785156 C 41.902344 16.710938 41.371094 16.59375 40.753906 16.492188 C 40.113281 16.386719 39.464844 16.605469 39.023438 17.082031 L 37.265625 18.972656 C 36.914062 19.355469 36.796875 19.878906 36.953125 20.371094 C 37.082031 20.785156 37.375 21.101562 37.761719 21.261719 L 37.644531 21.4375 C 37.359375 21.867188 37.300781 22.40625 37.484375 22.886719 C 37.667969 23.363281 38.074219 23.726562 38.570312 23.851562 C 40.15625 24.25 42.375 24.875 43.953125 25.601562 C 44.550781 25.875 45.039062 26.351562 45.332031 26.941406 C 45.847656 27.988281 46.515625 29.539062 46.769531 30.980469 C 46.792969 31.121094 46.875 31.242188 46.992188 31.324219 C 47.082031 31.386719 47.183594 31.417969 47.292969 31.417969 C 47.324219 31.417969 47.359375 31.414062 47.390625 31.410156 L 48.679688 31.164062 C 49.601562 30.984375 50.292969 30.238281 50.398438 29.304688 C 50.457031 28.75 50.53125 27.976562 50.554688 27.21875 L 54.058594 26.695312 L 54.117188 27.316406 C 54.132812 27.460938 54.203125 27.59375 54.316406 27.683594 C 54.410156 27.757812 54.527344 27.796875 54.648438 27.796875 C 54.667969 27.796875 54.691406 27.796875 54.714844 27.792969 L 58.796875 27.269531 C 59.058594 27.238281 59.257812 27.011719 59.257812 26.746094 C 59.257812 26.5 59.257812 20.691406 58.417969 17.230469 C 58.355469 16.972656 58.109375 16.800781 57.847656 16.828125 " fill-opacity="1" fill-rule="nonzero"/></g><path fill="#0d5d56" d="M 35.316406 46.527344 L 41.28125 46.527344 L 41.28125 47.796875 C 41.28125 49.167969 40.167969 50.28125 38.796875 50.28125 L 37.800781 50.28125 C 36.433594 50.28125 35.316406 49.167969 35.316406 47.796875 Z M 38.179688 27.832031 C 35.980469 27.863281 33.898438 28.738281 32.316406 30.300781 C 30.734375 31.859375 29.828125 33.925781 29.769531 36.125 C 29.679688 39.257812 31.3125 42.183594 34.023438 43.753906 C 34.167969 43.835938 34.253906 43.992188 34.253906 44.164062 L 34.253906 47.796875 C 34.253906 49.753906 35.847656 51.34375 37.800781 51.34375 L 38.796875 51.34375 C 40.753906 51.34375 42.34375 49.753906 42.34375 47.796875 L 42.34375 45.996094 C 42.34375 45.703125 42.105469 45.464844 41.8125 45.464844 L 40 45.464844 L 40 43.921875 C 40 43.46875 40.21875 43.042969 40.582031 42.78125 C 41.476562 42.144531 43.03125 40.785156 43.421875 38.867188 C 43.429688 38.808594 43.675781 37.398438 43.117188 36.101562 C 42.765625 35.28125 42.070312 34.667969 41.207031 34.417969 C 40.347656 34.167969 39.4375 34.3125 38.714844 34.808594 C 38.472656 34.976562 38.410156 35.304688 38.578125 35.546875 C 38.742188 35.789062 39.074219 35.851562 39.316406 35.683594 C 39.777344 35.367188 40.359375 35.277344 40.910156 35.4375 C 41.46875 35.601562 41.917969 35.996094 42.144531 36.523438 C 42.570312 37.519531 42.375 38.667969 42.378906 38.667969 C 42.0625 40.21875 40.730469 41.371094 39.964844 41.917969 C 39.324219 42.378906 38.9375 43.125 38.9375 43.921875 L 38.9375 45.464844 L 37.769531 45.464844 L 37.769531 43.921875 C 37.769531 43.125 37.386719 42.378906 36.742188 41.917969 C 36.21875 41.542969 35.484375 40.929688 34.949219 40.121094 C 34.789062 39.875 34.460938 39.808594 34.214844 39.96875 C 33.96875 40.132812 33.902344 40.460938 34.0625 40.703125 C 34.6875 41.648438 35.527344 42.355469 36.125 42.78125 C 36.488281 43.042969 36.707031 43.46875 36.707031 43.921875 L 36.707031 45.464844 L 35.316406 45.464844 L 35.316406 44.164062 C 35.316406 43.617188 35.027344 43.109375 34.554688 42.835938 C 32.179688 41.457031 30.753906 38.898438 30.828125 36.152344 C 30.9375 32.207031 34.242188 28.949219 38.191406 28.894531 C 40.214844 28.867188 42.109375 29.632812 43.546875 31.046875 C 44.980469 32.460938 45.773438 34.351562 45.773438 36.367188 C 45.773438 39.027344 44.339844 41.507812 42.035156 42.839844 C 41.570312 43.109375 41.28125 43.617188 41.28125 44.164062 C 41.28125 44.457031 41.519531 44.695312 41.8125 44.695312 C 42.105469 44.695312 42.34375 44.457031 42.34375 44.164062 C 42.34375 43.992188 42.429688 43.839844 42.566406 43.757812 C 45.199219 42.238281 46.835938 39.402344 46.835938 36.367188 C 46.835938 34.066406 45.933594 31.90625 44.292969 30.289062 C 42.652344 28.671875 40.480469 27.800781 38.179688 27.832031 " fill-opacity="1" fill-rule="nonzero"/><path fill="#0d5d56" d="M 23.6875 56.214844 C 23.652344 56.222656 23.621094 56.234375 23.585938 56.246094 C 23.554688 56.261719 23.523438 56.277344 23.496094 56.292969 C 23.464844 56.316406 23.441406 56.335938 23.414062 56.359375 C 23.316406 56.460938 23.257812 56.597656 23.257812 56.738281 C 23.257812 56.875 23.316406 57.015625 23.414062 57.113281 C 23.441406 57.136719 23.464844 57.160156 23.496094 57.179688 C 23.523438 57.195312 23.554688 57.214844 23.585938 57.226562 C 23.621094 57.238281 23.652344 57.25 23.6875 57.257812 C 23.722656 57.261719 23.757812 57.269531 23.789062 57.269531 C 23.929688 57.269531 24.066406 57.210938 24.167969 57.113281 C 24.265625 57.011719 24.320312 56.875 24.320312 56.738281 C 24.320312 56.597656 24.265625 56.460938 24.167969 56.359375 C 24.042969 56.238281 23.859375 56.183594 23.6875 56.214844 " fill-opacity="1" fill-rule="nonzero"/><path fill="#0d5d56" d="M 57.296875 24.546875 C 57.28125 24.515625 57.265625 24.484375 57.246094 24.457031 C 57.226562 24.425781 57.203125 24.398438 57.179688 24.375 C 57.15625 24.351562 57.128906 24.328125 57.097656 24.308594 C 57.070312 24.289062 57.039062 24.273438 57.007812 24.261719 C 56.976562 24.246094 56.941406 24.234375 56.910156 24.230469 C 56.734375 24.195312 56.550781 24.25 56.429688 24.375 C 56.40625 24.398438 56.382812 24.425781 56.363281 24.457031 C 56.34375 24.484375 56.328125 24.515625 56.316406 24.546875 C 56.300781 24.578125 56.289062 24.613281 56.285156 24.644531 C 56.277344 24.679688 56.273438 24.714844 56.273438 24.75 C 56.273438 24.785156 56.277344 24.820312 56.285156 24.851562 C 56.289062 24.886719 56.300781 24.921875 56.316406 24.953125 C 56.328125 24.984375 56.34375 25.015625 56.363281 25.042969 C 56.382812 25.074219 56.40625 25.101562 56.429688 25.125 C 56.527344 25.222656 56.664062 25.28125 56.804688 25.28125 C 56.839844 25.28125 56.875 25.277344 56.910156 25.269531 C 56.941406 25.261719 56.976562 25.253906 57.007812 25.242188 C 57.039062 25.226562 57.070312 25.210938 57.097656 25.191406 C 57.128906 25.171875 57.15625 25.148438 57.179688 25.125 C 57.28125 25.027344 57.335938 24.890625 57.335938 24.75 C 57.335938 24.714844 57.332031 24.679688 57.328125 24.644531 C 57.320312 24.613281 57.308594 24.578125 57.296875 24.546875 " fill-opacity="1" fill-rule="nonzero"/><path fill="#0d5d56" d="M 37.175781 37 C 37.199219 37.03125 37.222656 37.066406 37.242188 37.101562 C 37.605469 37.710938 37.691406 38.4375 37.476562 39.09375 L 37.46875 39.117188 C 37.414062 39.273438 37.273438 39.296875 37.21875 39.300781 C 37.15625 39.304688 37.007812 39.292969 36.9375 39.136719 C 36.597656 38.402344 36.675781 37.683594 37.175781 37 Z M 35.972656 39.582031 C 36.195312 40.0625 36.671875 40.363281 37.199219 40.363281 C 37.222656 40.363281 37.25 40.363281 37.273438 40.359375 C 37.828125 40.332031 38.296875 39.976562 38.472656 39.457031 L 38.484375 39.421875 C 38.792969 38.476562 38.675781 37.433594 38.15625 36.558594 C 37.261719 35.054688 35.816406 35.214844 35.550781 35.257812 C 33.757812 35.414062 33.183594 37.027344 33.234375 38.363281 C 33.246094 38.65625 33.496094 38.886719 33.785156 38.875 C 34.078125 38.863281 34.308594 38.617188 34.296875 38.324219 C 34.273438 37.753906 34.363281 36.414062 35.660156 36.3125 C 35.679688 36.3125 35.703125 36.308594 35.726562 36.304688 C 35.730469 36.300781 35.996094 36.25 36.335938 36.351562 C 35.597656 37.355469 35.464844 38.488281 35.972656 39.582031 " fill-opacity="1" fill-rule="nonzero"/><g clip-path="url(#1a7fdd73ed)"><path fill="#0d5d56" d="M 6.839844 55.199219 L 37.496094 72.898438 L 68.152344 55.199219 L 68.152344 19.800781 L 37.496094 2.101562 L 6.839844 19.800781 Z M 37.496094 73.816406 L 6.042969 55.660156 L 6.042969 19.339844 L 37.496094 1.179688 L 68.949219 19.339844 L 68.949219 55.660156 L 37.496094 73.816406 " fill-opacity="1" fill-rule="nonzero"/></g></svg>