<svg xmlns="http://www.w3.org/2000/svg" xmlns:xlink="http://www.w3.org/1999/xlink" width="100" zoomAndPan="magnify" viewBox="0 0 75 74.999997" height="100" preserveAspectRatio="xMidYMid meet" version="1.0"><defs><filter x="0%" y="0%" width="100%" height="100%" id="f01c31d2a8"><feColorMatrix values="0 0 0 0 1 0 0 0 0 1 0 0 0 0 1 0 0 0 1 0" color-interpolation-filters="sRGB"/></filter><mask id="b15090f8b2"><g filter="url(#f01c31d2a8)"><rect x="-7.5" width="90" fill="#000000" y="-7.5" height="89.999996" fill-opacity="0.6"/></g></mask><clipPath id="0c7591bbea"><path d="M 1 1.179688 L 63.953125 1.179688 L 63.953125 73.921875 L 1 73.921875 Z M 1 1.179688 " clip-rule="nonzero"/></clipPath><clipPath id="1b87eb29a1"><rect x="0" width="65" y="0" height="74"/></clipPath><clipPath id="9dc19389b9"><path d="M 6.039062 1.179688 L 69 1.179688 L 69 73.929688 L 6.039062 73.929688 Z M 6.039062 1.179688 " clip-rule="nonzero"/></clipPath><clipPath id="cc459b46fe"><path d="M 16.195312 17 L 58.945312 17 L 58.945312 59.730469 L 16.195312 59.730469 Z M 16.195312 17 " clip-rule="nonzero"/></clipPath></defs><g mask="url(#b15090f8b2)"><g transform="matrix(1, 0, 0, 1, 5, -0.000000000000001887)"><g clip-path="url(#1b87eb29a1)"><g clip-path="url(#0c7591bbea)"><path fill="#8fd5a6" d="M 32.492188 73.8125 L 1.039062 55.65625 L 1.039062 19.339844 L 32.492188 1.179688 L 63.941406 19.339844 L 63.941406 55.65625 Z M 32.492188 73.8125 " fill-opacity="1" fill-rule="nonzero"/></g></g></g></g><g clip-path="url(#9dc19389b9)"><path fill="#0d5d56" d="M 6.839844 55.199219 L 37.496094 72.898438 L 68.152344 55.199219 L 68.152344 19.800781 L 37.496094 2.101562 L 6.839844 19.800781 Z M 37.496094 73.816406 L 6.042969 55.660156 L 6.042969 19.339844 L 37.496094 1.179688 L 68.949219 19.339844 L 68.949219 55.660156 L 37.496094 73.816406 " fill-opacity="1" fill-rule="nonzero"/></g><g clip-path="url(#cc459b46fe)"><path fill="#0d5d56" d="M 57.746094 52.808594 L 52.457031 46.855469 C 52.078125 46.429688 51.558594 46.195312 50.992188 46.144531 C 50.421875 46.097656 49.855469 46.289062 49.429688 46.667969 L 48.535156 47.46875 L 46.546875 45.203125 C 50.992188 40.902344 52.597656 34.523438 50.707031 28.617188 L 54.722656 24.597656 L 55.808594 25.6875 C 56 25.875 56.28125 25.921875 56.519531 25.875 C 56.753906 25.78125 56.945312 25.589844 56.992188 25.308594 L 58.171875 17.9375 C 58.21875 17.699219 58.125 17.464844 57.984375 17.324219 C 57.84375 17.179688 57.605469 17.085938 57.371094 17.132812 L 50.046875 18.316406 C 49.761719 18.363281 49.574219 18.550781 49.476562 18.789062 C 49.382812 19.023438 49.476562 19.308594 49.667969 19.496094 L 50.753906 20.582031 L 47.917969 23.371094 C 47.777344 23.183594 47.589844 22.992188 47.445312 22.804688 C 41.539062 16.140625 31.285156 15.480469 24.578125 21.386719 C 23.679688 22.1875 22.921875 23.039062 22.261719 23.9375 C 22.261719 23.9375 22.214844 23.984375 22.214844 23.984375 C 21.316406 25.214844 20.605469 26.582031 20.085938 28 C 20.039062 28.191406 19.992188 28.285156 19.992188 28.378906 C 18.480469 32.867188 18.953125 37.925781 21.550781 42.128906 L 16.921875 42.128906 C 16.542969 42.082031 16.210938 42.414062 16.210938 42.792969 L 16.210938 56.871094 C 16.210938 57.25 16.542969 57.582031 16.921875 57.582031 L 40.925781 57.582031 C 41.304688 57.582031 41.632812 57.25 41.632812 56.871094 L 41.632812 48.414062 C 43.003906 47.847656 44.328125 47.042969 45.507812 46.097656 L 47.492188 48.367188 L 46.597656 49.171875 C 46.171875 49.546875 45.933594 50.066406 45.886719 50.636719 C 45.839844 51.203125 46.027344 51.769531 46.40625 52.195312 L 51.699219 58.148438 C 52.503906 59.046875 53.589844 59.519531 54.722656 59.519531 C 55.667969 59.519531 56.613281 59.1875 57.371094 58.527344 C 58.171875 57.816406 58.644531 56.824219 58.691406 55.785156 C 58.785156 54.652344 58.457031 53.613281 57.746094 52.808594 Z M 52.265625 20.109375 L 51.652344 19.496094 L 56.707031 18.691406 L 55.90625 23.75 L 55.289062 23.132812 C 55.007812 22.851562 54.582031 22.851562 54.296875 23.132812 L 49.429688 27.90625 L 41.777344 35.5625 L 37.949219 31.734375 C 37.664062 31.449219 37.238281 31.449219 36.957031 31.734375 L 30.957031 37.6875 L 21.503906 28.285156 C 21.835938 27.339844 22.308594 26.441406 22.828125 25.640625 L 30.4375 33.246094 C 30.71875 33.53125 31.144531 33.53125 31.429688 33.246094 L 37.429688 27.292969 L 41.257812 31.121094 C 41.539062 31.402344 41.964844 31.402344 42.25 31.121094 L 52.21875 21.195312 C 52.359375 21.054688 52.40625 20.867188 52.40625 20.675781 C 52.40625 20.488281 52.359375 20.253906 52.265625 20.109375 Z M 25.523438 22.519531 C 31.617188 17.132812 40.972656 17.699219 46.359375 23.796875 C 46.546875 23.984375 46.738281 24.222656 46.878906 24.457031 L 41.777344 29.5625 L 37.949219 25.734375 C 37.664062 25.449219 37.238281 25.449219 36.957031 25.734375 L 30.957031 31.6875 L 23.679688 24.457031 C 24.246094 23.75 24.859375 23.085938 25.523438 22.519531 Z M 40.21875 56.164062 L 17.628906 56.164062 L 17.628906 43.5 L 40.21875 43.5 Z M 40.925781 42.082031 L 23.253906 42.082031 C 20.65625 38.445312 19.945312 33.90625 21.03125 29.796875 L 30.4375 39.199219 C 30.578125 39.34375 30.765625 39.390625 30.957031 39.390625 C 31.144531 39.390625 31.332031 39.34375 31.476562 39.199219 L 37.476562 33.246094 L 41.304688 37.074219 C 41.585938 37.355469 42.011719 37.355469 42.296875 37.074219 L 49.621094 29.796875 C 51.039062 35.183594 49.335938 40.902344 45.132812 44.632812 C 44.089844 45.578125 42.910156 46.335938 41.683594 46.902344 L 41.683594 42.839844 C 41.632812 42.414062 41.304688 42.082031 40.925781 42.082031 Z M 56.472656 57.441406 C 55.386719 58.382812 53.730469 58.289062 52.785156 57.203125 L 47.492188 51.203125 C 47.351562 51.058594 47.304688 50.871094 47.304688 50.683594 C 47.304688 50.492188 47.398438 50.304688 47.542969 50.210938 L 50.375 47.707031 C 50.519531 47.609375 50.660156 47.515625 50.847656 47.515625 C 50.847656 47.515625 50.894531 47.515625 50.894531 47.515625 C 51.085938 47.515625 51.273438 47.609375 51.367188 47.753906 L 56.660156 53.753906 C 57.132812 54.273438 57.320312 54.933594 57.320312 55.644531 C 57.273438 56.351562 56.945312 56.96875 56.472656 57.441406 Z M 56.472656 57.441406 " fill-opacity="1" fill-rule="nonzero"/></g><path fill="#0d5d56" d="M 19.519531 48.179688 C 19.519531 49.5 20.605469 50.539062 21.882812 50.539062 L 22.261719 50.539062 C 22.78125 50.539062 23.207031 50.964844 23.207031 51.484375 C 23.207031 52.003906 22.78125 52.429688 22.261719 52.429688 L 20.230469 52.429688 C 19.851562 52.429688 19.519531 52.761719 19.519531 53.140625 C 19.519531 53.519531 19.851562 53.847656 20.230469 53.847656 L 22.261719 53.847656 C 23.585938 53.847656 24.625 52.808594 24.625 51.484375 C 24.625 50.164062 23.535156 49.125 22.261719 49.125 L 21.882812 49.125 C 21.363281 49.125 20.9375 48.699219 20.9375 48.179688 C 20.9375 47.660156 21.363281 47.234375 21.882812 47.234375 L 23.914062 47.234375 C 24.292969 47.234375 24.625 46.902344 24.625 46.523438 C 24.625 46.144531 24.292969 45.816406 23.914062 45.816406 L 21.882812 45.816406 C 20.605469 45.816406 19.519531 46.855469 19.519531 48.179688 Z M 19.519531 48.179688 " fill-opacity="1" fill-rule="nonzero"/><path fill="#0d5d56" d="M 27.082031 53.847656 L 30.765625 53.847656 C 31.144531 53.847656 31.476562 53.519531 31.476562 53.140625 C 31.476562 52.761719 31.144531 52.429688 30.765625 52.429688 L 27.789062 52.429688 L 27.789062 50.539062 L 30.765625 50.539062 C 31.144531 50.539062 31.476562 50.210938 31.476562 49.832031 C 31.476562 49.453125 31.144531 49.125 30.765625 49.125 L 27.789062 49.125 L 27.789062 47.234375 L 30.765625 47.234375 C 31.144531 47.234375 31.476562 46.902344 31.476562 46.523438 C 31.476562 46.144531 31.144531 45.816406 30.765625 45.816406 L 27.082031 45.816406 C 26.703125 45.816406 26.371094 46.144531 26.371094 46.523438 L 26.371094 53.140625 C 26.371094 53.519531 26.703125 53.847656 27.082031 53.847656 Z M 27.082031 53.847656 " fill-opacity="1" fill-rule="nonzero"/><path fill="#0d5d56" d="M 35.773438 53.847656 C 37.191406 53.847656 38.328125 52.714844 38.328125 51.296875 L 38.328125 48.320312 C 38.328125 46.902344 37.191406 45.769531 35.773438 45.769531 C 34.359375 45.769531 33.222656 46.902344 33.222656 48.320312 L 33.222656 51.296875 C 33.222656 52.714844 34.359375 53.847656 35.773438 53.847656 Z M 34.640625 48.367188 C 34.640625 47.753906 35.160156 47.234375 35.773438 47.234375 C 36.390625 47.234375 36.910156 47.753906 36.910156 48.367188 L 36.910156 51.34375 C 36.910156 51.957031 36.390625 52.476562 35.773438 52.476562 C 35.160156 52.476562 34.640625 51.957031 34.640625 51.34375 Z M 34.640625 48.367188 " fill-opacity="1" fill-rule="nonzero"/></svg>